<?xml version="1.0" encoding="UTF-8"?><svg id="Layer_2" xmlns="http://www.w3.org/2000/svg" viewBox="0 0 1531.33 2000"><defs><style>.cls-1{fill:#f1e4b2;}.cls-2{fill:#cb9700;}.cls-3{fill:#e04403;}</style></defs><g id="Layer_1-2"><path class="cls-2" d="m1037.34,799.8c3-.81,5.51-2.09,6.24-5.56.1-.52.98-1.06,1.62-1.23,2.48-.69,4.42-2.38,6.54-3.49,3-1.6,5.88-3.32,8.73-5.16,3.86-2.43,8.6-3.32,11.82-7.03,1.11-1.25,3.1-1.99,4.82-2.43,3.98-1.03,6.51-4.72,10.57-5.53.66-.12,1.11-.81,1.01-1.65-.22-1.7,1.28-2.51,2.26-2.65,5.19-.66,9.32-3.64,13.89-5.68,1.38-.61,3-.96,4.82-.54,2.85.66,5.88.79,7.74-2.38.2-.34.66-.69,1.08-.79,3.69-.84,6.24-3.66,9.42-5.29,2.7-1.4,6.07-1.87,9.17-2.02,3.27-.15,6.76-1.89,9.91.69.02.05.81-.52.88-.86.71-4.03,2.46-6.02,7.03-4.7,1.4.39,3.17-1.47,5.21-.69,4.3,1.62,8.31.44,11.97-2.02,1.08-.74,2.24-.42,3.34-.59,1.94-.32,4.33.59,5.14-2.56.39-1.43,3.05-.71,3.96-2.26,2.51,1.75,5.33-.49,8.31,1.23,4.28,2.48,8.87,4.33,14.75,3,4.3-.98,9.49-1.4,14.23,0,.42.12.81.32,1.23.47,1.13-3.44,3.05-.25,4.6-.47,8.58-1.3,16.96,2.8,25.61,1.11.57-.12,2.24-.2,3,1.03,1.92,2.95,4.72,3.86,8.11,3.39,4.45-.61,8.85.34,13.23.84,1.57.17,4.06,1.7,4.23,2.88.66,4.62,4.3,2.78,6.66,3.61,2.58.93,5.53.37,7.69,3.1,1.23,1.5,4.18,1.03,6.07,2.56,2.11,1.7,4.18,3.32,5.38,5.75.89,1.79,1.97,3.22,4.25,2.51.86-.27,1.55.15,1.65.74.62,3.37,3.91,4.03,5.88,5.97.98.98,2.53,1.62,2.75,3,.59,3.64,3.52,3.54,6,3.88,2.58.34,6.74,3.15,7.74,5.29,1.18,2.46,2.16,5.78,4.2,6.88,4.3,2.31,5.24,7.4,9.27,9.78,1.18.69,2.29,2.14,2.24,4.28-.02,2.09.22,4.5,1.84,6.34.39.47.76,1.38.59,1.89-1.2,3.61,1.94,6.02,2.46,9.14.15.93.89,1.99,1.67,2.56,6.83,4.92,9.86,11.43,10.72,19.91.34,3.32,1.47,7.42,3.54,10.91,1.82,3.07,1.75,7.08.74,10.74-.52,1.84-1.03,3.37.49,5.33,2.06,2.65,3.59,5.8,4.13,9.27.27,1.7.49,3.29-1.08,4.67-1.01.91-1.18,2.14-.81,3.71,1.5,6.34,1.79,12.81.08,19.15-.86,3.22.64,6.34-.27,9.49-1.87,6.56.76,13.13.1,19.59-.49,4.89.54,10.03-1.7,14.7-.81,1.7-2.02,3.2-1.57,5.29.12.61,0,1.23-.71,1.77-2.04,1.55-2.78,3.76-2.83,6.27-.08,3.24,0,6.54-3.93,7.92-.79.27-.84,1.33-.79,2.16.37,6.44-.84,12.88.05,19.3.1.74-.15.64-.57.76-1.92.57-2.19,2.38-3.1,3.81-3.39,5.29-2.92,12.12-7.08,17.11-1.77,2.14-4.13,4.2-3.74,7.52.03.15-.27.42-.44.49-4.3,1.23-6,5.19-8.41,8.28-2.11,2.68-3.54,5.85-5.41,8.73-2.93,4.5-4.77,9.66-9.07,13.32-2.09,1.77-2.65,4.79-3,7.42-.17,1.5-.79,1.82-1.72,2.48-3.91,2.75-7.18,5.51-7.72,11.16-.32,3.1-2.68,6.83-6.27,8.78-1.89,1.03-3.84,2.26-5.24,3.86-3.32,3.74-7.6,6.37-10.94,9.98-3.17,3.44-6.83,6.29-10.23,9.46-2.21,2.06-3.74,4.92-6.74,6.22-1.87.84-3.59,2.02-5.85,1.84-2.68-.2-4.01,1.89-4.7,3.91-.81,2.46-2.14,3.74-4.67,3.74-1.65,0-3.15,1.03-2.9,2.31.49,2.68-2.04,3-2.83,3.1-2.95.32-5.43,2.02-8.31,2.36-2.8.34-4.35,2.43-5.68,4.47-2.78,4.25-6.64,5.88-11.55,5.63-.59-.02-1.28.2-1.45-.39-1.43-4.87-4.79-2.51-7.57-2.02-1.08.2-2.14.79-3.12,1.35-3.07,1.67-3.1,2.73,0,4.5,1.3.76,1.18,1.3.3,2.36-2.61,3.12-6.29,4.6-9.71,6.42-4.62,2.46-10.2,1.75-14.7,3.39-5.48,2.02-11.19,2.48-16.62,4.33-.22.07-.57.1-.64.25-2.16,4.65-6.69,5.04-10.69,4.99-4.08-.05-7.74,1.75-11.75,1.57-1.62-.07-3.17.37-4.72,1.4-1.75,1.16-4.11,2.38-6.2.2-.64-.69-1.43-.69-2.24-.66-3.66.2-7.37.25-10.62,2.31-.59.37-1.25.98-1.84.91-5.83-.59-11.26,1.52-16.89,2.36-3.37.49-6.86-.32-10.05,2.04-2.02,1.47-4.82,1.92-7.32,2.73-.47.17-1.35.12-1.6-.2-1.82-2.24-4.55-1.84-6.81-2.73-3.66-1.47-6.81-.25-10.15.57-2.04.52-4.03-.42-5.75-.81-2.9-.69-5.21.57-7.79.79-.52.02-1.28.66-1.57.17-1.45-2.34-3.86-1.33-5.31-.88-3.47,1.06-6.98,1.72-10.5,1.84-3.56.15-7.23.07-10.77-.84-1.5-.39-1.6-2.06-3.07-2.88-4.01-2.16-7.94.12-11.92-.64-3.79-.71-8.02,1.3-11.55-1.79-.57-.52-1.3.32-1.94.34-1.47.07-3.22,1.33-4.25-.91-.1-.2-.84-.37-.93-.27-2.02,2.36-4.08.96-6.15.15-.62-.25-1.16.17-1.5.64-2.24,3.17-6.17,3.88-9,6.12-2.7,2.14-5.78,3.59-8.53,5.6-.35.25-.79.54-.91.91-1.7,4.6-5.11,6.76-9.64,8.43-3.81,1.4-6.51,4.92-7.15,9.27-.32,2.04-1.92,3.59-1.74,5.88.07.79-1.67,2.04-3.1,2.16-2.46.17-4.03,1.55-5.75,3.2-2.41,2.31-5.73,3.91-8.85,4.13-4.87.32-7.25,3.61-10.52,6.19-3.76,2.95-7.87,5.65-13.13,5.85-4.13.15-8.24,1.13-10.5,5.29-.79,1.43-2.21,2.21-3.47,2.73-3.84,1.55-7.45,3.32-10.42,6.32-1.13,1.16-3.2.49-4.08.27-2.73-.71-4.65.34-6.93,1.25-4.89,1.99-9.54,4.25-13.89,7.37-2.41,1.75-6,2.24-9.12,2.41-3.49.22-6.78,2.19-10.47.81-1.55-.57-1.7,2.41-3.37,2.48-7.05.32-13.4,4.82-20.7,3.49-.86-.15-1.62.1-2.31.59-5.56,3.91-11.7,4.28-18.09,3.05-2.21-.44-4.42-.05-6.59.2-3.05.34-6.02.44-8.73-1.06-1.28-.71-2.04.27-3.05.39-6.66.86-13.05-.54-19.52-1.89-2.95-.61-6.07.34-9.14-.47-4.3-1.08-8.68-1.79-13-2.63-.98-.2-1.92-.54-3.02-.34-3.76.69-7.03-.91-10.3-2.43-.79-.37-1.43-.89-1.65-1.7-.81-2.97-2.34-3.69-5.29-2.34-2.85,1.28-6.83-.3-9.07-3.29-.93-1.23-2.06-2.21-3.05-3.34-.64-.74-1.45-1.13-2.09-.47-1.89,1.94-3.91-.27-4.28-.79-2.04-2.97-5.75-3.86-7.77-6.88-2.21-3.34-6.56-2.02-9.81-3.52-2.9-1.33-5.04-3.15-6.15-5.73-.76-1.87-1.43-2.93-3.42-3.12-.66-.05-1.47-.37-1.89-.84-2.85-3.29-7.1-4.08-10.72-5.95-2.53-1.3-4.33-3.17-5.11-5.75-.62-2.06-1.92-2.97-3.69-3.71-4.28-1.75-7.87-4.5-10.79-8.06-1.79-2.19-4.72-1.7-6.93-3.34-3.1-2.31-5.75-4.45-7.23-8.24-1.97-5.09-6.49-7.72-11.33-9.59-1.25-.49-1.82-.79-2.14-2.16-.44-1.94-.96-4.03-3.34-4.87-.93-.34-1.45-1.33-1.67-2.48-.71-4.08-3.17-7.13-6.56-9.17-2.19-1.35-4.2-2.29-4.11-5.33.02-.66-.98-1.35-1.35-2.24,2.29,1.55,4.03,5.21,7.32,2.43,1.5-1.25,3.74-3.07,2.51-5.56-.96-1.92-2.41-3.61-5.09-3.52-3.32.12-4.11,2.85-5.93,4.89-.29-.05-.2-.61-.2-.91.1-4.03-1.99-6.39-5.31-8.53-2.9-1.87-3.22-5.83-4.92-8.73-3.29-5.58-6.93-10.89-11.78-15.24-2.02-1.82-3.69.27-4.79,1.35-2.75,2.65-5.29,5.24-9.61,4.65-.76-.1-1.99.44-2.43,1.08-4.77,6.98-13.13,8.11-19.72,12.05-2.02,1.18-2.65,2.83-3.54,4.3-2.11,3.52-4.55,5.7-8.9,5.92-4.79.25-8.75,2.19-11.04,6.93-.79,1.6-2.51,2.95-4.11,3.91-4.77,2.88-9.59,5.68-14.58,8.14-6.96,3.47-14.11,6.54-21.17,9.86-5.65,2.65-11.28,5.43-16.94,8.14-.71.34-1.77,1.11-2.19.86-5.09-2.95-9.32,2.48-14.16,1.35-.17-.05-.56.1-.59.22-1.11,4.18-5.56,2.95-8.06,4.97-2.29,1.84-4.35-.66-6.32-1.6-1.08-.52-1.23-1.06-2.26.32-1.43,1.92-3.22,4.38-6.44,2.41-.91-.57-1.79.27-2.46.91-1.13,1.13-2.09,2.43-3.32,3.44-2.41,1.97-4.67,3.66-8.31,2.09-3.66-1.57-7.6,1.01-11.53.32-.96-.15-.49,1.47-.56,2.26-.2,3-.98,5.63-4.01,7.01-1.57.71-8.68-.88-9.24-2.46-1.2-3.34-3.54-2.95-5.85-2.09-4.01,1.5-7.96,2.41-12.36,1.84-2.41-.34-4.28,2.41-6.96,2.41-1.13,0-2.09.84-3.22-.52-.71-.86-2.02-.15-2.48,1.13-.86,2.36-2.48,3.17-4.92,2.36-.17-.05-.49-.15-.54-.07-2.19,3.39-5.75.57-8.11,1.7-6.17,3-11.31.29-16.64-2.02-2.09-.91-3.42-.3-5.58.61-3.39,1.43-6.91,3.98-11.65,2.19-3-1.13-5.26-2.26-7.69-4.38-2.04-1.77-5.43-.86-8.16.54-1.84.93-3.54,1.55-5.68-.07-2.21-1.7-3.1-2.8-.84-5.09,1.33-1.35.89-3.34.42-4.97-.84-2.88-6.07-6.05-9.17-5.83-2.29.17-6.81,4.6-7.18,7.2-.17,1.2.74,2.06,1.57,2.88,1.55,1.5.71,2.02-.91,2.43-3.74.93-6.27-2.09-9.46-2.88-.37-.1-.96-.59-1.43-.57-6.07.39-9.02-5.88-14.53-6.71-1.77-.27-1.25-3.81-3.93-3.02-1.7.49-3.15-.34-4.7-.57-5.01-.69-7.69-4.2-10.4-7.67-2.36-3.05-4.72-5.68-8.92-6.12-3.15-.32-5.31-3.15-6-5.46-1.74-5.7-6.29-8.7-10.05-12.51-3.86-3.91-6.98-7.96-7.67-13.96-.25-2.14-3.2-4.77-4.89-7.18-2.51-3.56-4.72-7.42-6.51-11.21-2.06-4.35-4.2-9.37-2.61-14.75.35-1.13,1.18-2.7-1.3-3.47-1.23-.39-2.95-2.38-2.14-4.38.93-2.41.15-4.6-.74-6.56-1.55-3.39.15-7.55-2.66-10.57-.05-.07-.15-.27-.12-.3,2.83-3.42.93-6.88-.08-10.2-.98-3.37,1.33-7.18.32-9.46-2.11-4.79,1.08-8.33,1.03-12.49-.02-3.2-.42-6.27-1.28-9.34-.79-2.83-.96-5.46.54-8.58,1.03-2.16,1.06-5.41,1.45-8.19.39-2.85,1.5-5.36,4.13-6.69,2.43-1.23,3.34-4.28,2.78-5.48-1.52-3.24.98-6.24-.44-9.44-1.06-2.36,2.51-7.79,4.79-8.7.49-.2,1.28-.86,1.2-1.08-.91-2.93,2.31-4.94,1.65-7.87-.17-.81.42-2.36,1.11-2.73,3.32-1.77,3.27-6.22,6.91-7.96,1.82-.86,1.01-4.18,2.46-6.15,1.06-1.45,1.72-2.88,3.81-2.9.98,0,2.29-.42,2.31-1.65.12-6.29,5.88-7.65,9.49-10.72,1.11-.93,2.46-1.72,3.34-2.88,1.33-1.7,2.83-2.65,5.04-2.29.54.1,1.45.32,1.57-.27.76-3.17,4.69-3.81,5.46-7.3.32-1.38,2.06-4.55,5.43-3.12,1.52.66,3.64-.32,4.4-1.33,2.7-3.44,6.49-5.11,10.13-7.08,1.4-.76,2.31-1.82,2.61-3.39.05-.2.05-.54.17-.61,3.29-1.84,6.39-4.38,9.91-5.31,3.91-1.03,8.65,1.01,11.48-3.56,3.81.27,6.71-2.63,10.37-2.93,1.52-.1,2.14-1.23,3.17-2.11,2.7-2.34,4.65-6.07,9.24-5.68,3.52.32,6.42-1.43,9.46-3.24,4.57-2.75,9.54-5.65,14.97-1.28,1.52,1.23,3.64-.22,5.34.71-1.5,4.2-.39,8.65,2.33,9.44,1.43.39,5.21-2.53,5.65-4.4.74-3.05-1.55-5.53-5.9-6.47.81-1.99,2.24-2.21,4.33-2.65,3.96-.81,7.96-.79,11.92-1.62,5.46-1.13,10.25-4.5,15.81-4.5,2.9,0,5.19-.98,7.77-1.65,3.59-.93,8.14-2.65,11.6,1.13.52.57,1.03.61,1.45.12,2.29-2.65,5.97-2.31,8.75-4.18,1.35-.93,4.42-2.11,6.51.27,1.01,1.18,1.72,1.2,3.02-.17,2.51-2.65,5.7-4.45,9.51-2.75,1.77.79,2.73-1.47,3.74-.93,5.41,2.95,10.55.12,15.81-.34,3.12-.29,6.34.81,9.37-.81.17-.07.69.15.84.37,2.09,3.24,4.52,1.13,7.01.64,3.88-.71,7.96-.54,11.77-1.52,3.98-1.03,7.89.57,11.85-.42,1.55-.37,3.19,1.35,5.43.57,3.12-1.11,3.12-3.07,3-5.58-.15-2.75-2.21-4.57-3.37-6.74-.81-1.5-.79-2.26-.27-3.64,1.2-3.27,2.71-6.47,1.52-10.18-.86-2.65.96-5.02,1.33-7.55.74-4.99,1.38-9.93,3.96-14.5,1.16-2.06-.69-4.65-1.52-6.74-.47-1.2-1.03-1.67.02-2.65.22-.17.37-.71.25-.96-2.04-4.57.69-9.56-.59-13.72-1.47-4.79.17-8.92.91-12.98.96-5.31-.71-10.03-1.13-14.97-.27-3.29-.54-6.76-1.8-10.03-.64-1.62,1.89-2.68,2.41-4.55.3-1.01.69-2.21.81-3.34.47-4.89.05-9.78-.39-14.65-.39-4.43,1.65-8.16,2.46-12.22.84-4.13,2.06-8.26,2.36-12.59.27-3.74-.27-8.04.71-11.06,1.3-4.06.86-8.19,1.55-12.09.66-4.01,2.21-8.36,1.18-12.71-.37-1.57-.07-3.49,1.3-4.03,3.25-1.3,2.61-3.98,2.61-6.32,0-4.4.47-8.68,2.09-12.78.15-.32.42-.71.32-.96-1.67-3.91,1.52-7.55.54-11.53-.54-2.19.64-4.62,1.94-6.37,1.35-1.79,1.77-3.66,1.13-5.36-1.6-4.15,1.99-7.37,1.57-11.23-.02-.22.42-.64.69-.74,3.98-1.3,3.34-5.09,3.44-7.77.22-5.26,3.34-7.67,7.28-10.01,4.38-2.58,9.1-5.02,10.35-10.69.12-.54.54-1.25.98-1.4,3.81-1.25,4.4-6.07,8.41-7.25,2.26-.69,3.22-3.39,5.28-4.82,1.01-.71,2.09-1.79,3.25-1.97,4.08-.61,7.52-3.98,12.09-2.75,1.5.42,2.16-1.5,3.1-2.43,2.31-2.36,5.75-2.88,8.19-5.31.91-.91,3.69-1.84,6.37-.02,2.68,1.79,6.17,3.74,9.29,3.88,2.16.1,4.77-.61,7.23-.64,1.4-.02,2.7.3,4.01.93,2.19,1.08,3.91,2.06,7.06.91,2.88-1.06,6.93.61,10.27,2.63,3.86,2.31,8.26,3.79,13.05,3.37,3.64-.32,7.57-.96,9.91,3.27.52.96,1.87.88,2.9.61,2.66-.66,5.29-.05,7.94-.05,5.51.05,10.84,1.52,16.32,1.7.37,0,.62.29,1.13-.05,4.72-3.22,10.87-1.5,15.68-4.57,1.62-1.06,3.52.27,5.31.34,4.55.22,9.14-.57,13.64.69,4.38,1.23,7.77-2.06,11.73-2.75,1.89-.34,4.06.07,5.46-.39,2.88-.98,5.66-.05,8.46-.71,3.69-.89,7.52-1.23,11.41-1.35,3.98-.12,7.62-1.72,10.52-4.89,1.82-1.99,3.93-3.44,7.25-3.07,2.21.27,4.67-1.47,6.96-2.43.71-.29,1.18-.96,2.02-1.25,3.37-1.23,7.15-1.06,10.18-3.69,1.65-1.45,4.08-1.57,6.61-1.4,2.51.17,5.19-.42,7.82-2.06,2.92-1.87,6.56-2.51,8.75-5.78.81-1.16,2.26-1.75,4.08-1.87,2.41-.17,4.94-.66,7.05-2.36.91-.71,2.02-1.7,3.66-1.11.96.37,1.84-.64,2.48-1.5,2.95-4.01,6.69-6.56,11.82-6.91,1.82-.12,3.71-1.25,4.4-2.93,1.5-3.64,5.19-4.06,7.84-6.02,1.4-1.03,2.93,1.18,4.6-.49,1.25-1.25,3.59-1.33,4.4-3.49.22-.59,1.3-1.23,1.97-1.23,3.96.07,7.08-3,11.11-2.73,1.57.12,2.51-1.43,3.49-2.48,2.11-2.24,4.52-4.06,7.67-3.93,1.2.05,1.28-.71,1.87-1.11,1.7-1.08,3.15-2.34,5.63-1.62,2.21.64,4.89-.2,6.44-1.84,3.56-3.79,8.06-2.9,12.39-3.42,5.24-.59,9.54,2.53,14.53,3.05,4.03.42,7.87-.17,11.8-.37,3.61-.17,7.45-.69,10.52,2.34.74.74,2.07.93,3.17,1.13.84.12,1.7.22,2.16.91,3.39,5.14,8.68,6.32,14.23,7.03,2.16.27,3.74,1.77,5.38,2.93,3.52,2.51,8.31,3.32,10.2,7.94.3.69,1.08.71,1.8.88,3.91.84,5.55,3.98,6.15,7.35.54,3.15,2.26,5.04,4.92,5.75,3.15.86,5.24,1.92,5.58,5.7.27,3.32.49,7.57,2.56,9.61,3.42,3.37,2.46,8.51,6.05,11.55,1.72,1.45-.52,3.86.59,5.73,1.55,2.58-.39,3.39-2.21,4.47-1.75,1.06-3.29,2.46-4.97,3.66-3.17,2.29-3.47,5.7-.74,8.51.71.74,1.45,1.52,2.19,2.26,4.03,4.03,8.14,3.32,10.89-1.92.27-.52.61-.98.93-1.52,3.47,4.38,1.62,9.78,2.93,14.55.47,1.75,1.2,3.52,2.24,4.99.96,1.35,2.85,2.19.96,4.15-1.13,1.18.54,2.31.79,3.05,1.01,3.1-2.83,4.97-1.5,7.87,1.2,2.58,1.6,5.41,1.65,8.19.05,2.06,1.7,3.2,1.84,5.51.47,7.03-2.38,14.11.32,21.07.25.61.42,2.41-1.5,1.67-1.4-.57-2.63-.22-3.64.79-.81.81.02,1.65.42,2.19.86,1.23,2.06,1.65,3.52.66.69-.49,1.7-.66,1.77.47.1,1.77,1.97,3.02,1.97,4.11.02,3.34,1.82,6.54.17,10.2-1.03,2.31,1.25,5.21,2.97,6.98,2.04,2.09,1.06,4.42,1.77,6.49.86,2.51.84,4.7-1.08,6.27-2.7,2.24-2.19,5.24-1.77,7.74,1.11,6.51-.49,13.35,2.41,19.64.17.37.17,1.03-.05,1.35-2.51,3.44-.66,6.76.05,10.18.27,1.38-.22,2.9-.32,4.35-.32,4.92-.3,9.88-1.06,14.75-.42,2.65-2.11,5.14-3.27,7.69-.27.59-1.28,1.23-.49,1.72,1.79,1.08,2.26,1.92,1.94,4.38-.2,1.47-.49,3-.89,4.5-1.45,5.58-3.12,11.06-1.01,17.04.59,1.72,1.16,4.67-1.38,6.74-1.6,1.28.89,3.61-.69,5.63,3.88-1.45,6.64-4.01,10.5-4.4,1.87-.17,3-2.21,4.45-3.44,2.58-2.16,5.63-3.74,8.46-5.63,2.73-1.87,5.21-3.96,7.67-6.22,2.66-2.43,5.78-4.79,9.91-4.33-.22.27-.52.52-.61.81-.91,2.68,1.16,3.47,2.9,4.03,1.62.49,3.17-.57,3.29-2.19.2-2.36-1.5-3.05-3.64-2.83-.66.05-1.35.15-2.02.25m-413.7,119.62c2.14-1.67,2.43-3.93,2.26-6.47-.2-2.85-2.29-4.28-4.3-5.33-1.92-.98-3.25.49-4.33,2.26-1.06,1.75-2.56,3.22-3.93,4.77-1.06,1.2-1.16,2.26-.27,3.69,3,4.94,5.92,5.26,10.67,1.01,1.13,2.85,2.78,3.29,5.02,1.08.96-.93,2.33-1.47,3.37-.96,2.38,1.2,5.43,1.65,6.47,4.77,2.98-3.07,8.26-4.25,11.36-2.65,2.11,1.11,3.81,5.75,2.9,9.19-.39,1.43-.12,2.09.76,2.95,4.25,4.15,4.57,6.17,1.4,11.23-.76,1.23-.66,3.15-2.09,3.71-4.82,1.97-13-2.53-14.48-7.69-.37-1.33-1.18-2.68-2.66-2.68-1.33.02-2.33,1.16-2.33,2.56.02,1.43-.66,2.09-1.79,2.63-.64.29-1.08.81-.84,1.67.89,3.07,1.97,5.83,5.88,5.85,1.01,0,1.99,0,2.9.81,2.56,2.26,6.39,2.31,8.38.91,5.31-3.81,11.63.44,16.72-2.93.12-.1.62.52.86.44,3.84-.81,7.79,2.21,11.46-.25,2.04-1.38,3.71-1.08,5.24.49,1.3,1.35,2.66,1.3,3.84.2,3.84-3.59,8.68-3.61,13.18-2.95,2.53.39,5.14-.98,7.5.61,1.97,1.35,3.84,1.03,5.43-.64,1.97-2.04,10.59-2.88,12.22-.84,3.1,3.86,7.52,2.26,11.01,2.26,2.95-.02,5.65-1.89,9.39-1.3,4.25.66,9.27,1.16,13.55-1.57.32-.2,1.5-.98,2.58.22,1.97,2.19,4.4,3.61,7.62,1.62.89-.54,2.21-.93,3.56-.98,4.03-.17,8.11-.05,12-1.43,1.08-.39,2.07-.71,3.34-.52,3.69.52,7.4.34,11.11.34,5.11,0,7.89-3.1,10.64-6.29,2.21-2.61,4.13-4.45,8.06-3.81,1.94.32,4.62,1.87,6.69-.59.15-.17,1.6-1.16,2.93-.59.88.37,2.43-.05,2.63-1.57.42-3,2.73-4.13,5.11-4.7,3.83-.96,7.37-2.43,10.45-4.7-2.19-2.06-4.38-1.92-7.18-.59-6.02,2.83-11.68,1.47-16.69-2.8-1.6-1.38-7.08-1.01-8.73.59-1.52,1.5-4.33,1.77-5.29,1.11-4.99-3.44-10.23-2.48-15.54-1.84-1.45.15-3.74.76-4.23.12-2.06-2.8-5.31-.52-7.64-2.24-.93-.69-2.68-.64-3.88,1.18-.84,1.23-2.63,2.02-4.72,2.09-3.42.1-6.81,1.28-10.25,1.43-2.29.1-5.33,1.18-6.74-1.82-1.13-2.46-2.68-2.75-5.24-2.78-3,0-5.8,1.87-8.78.81-2.56-.93-4.84.37-7.2.76-2.66.42-5.09,1.72-6.91-1.47-1.01-1.77-3.54-2.24-4.72-2.19-6.64.27-13.15-.66-19.64-1.33-3.59-.37-7.15.71-10.67-.57-3.29-1.18-6.22-2.21-10.13-.2-4.23,2.19-9.39-.22-14.16-.02-1.67.07-3.22-1.65-5.01.02-1.92,1.75-3.81,3.52-7.03,2.36-3.61-1.3-7.77-1.38-11.14-3.05-3.15-1.57-5.9-.17-7.74.86-3.96,2.21-7.47,5.14-12.19,5.7m414.36-75.59c2.09-2.73-.34-4.25-1.89-6.15,3.27-.44,2.9-3.64,4.5-5.29,1.11-1.13,1.67-2.78-.17-4.18-1.67-1.28-2.8-.12-3.96.66-3.61,2.48-2.63,7.18-4.84,10.32-.1.12-.02.54.12.66,1.87,1.67,2.93,4.67,6.32,3.91-.03,2.34.22,4.92-1.67,6.54-3.27,2.8-6.88,5.46-11.26,5.97-5.93.66-8.8,6.05-13.69,8.41-2.29,1.11-4.47,2.78-7.03,3.54-3.88,1.16-8.09,1.33-10.2,5.95-1.16,2.51-3.98,3.07-6.83,2.88-2.39-.17-5.16.59-6.39,2.19-2.04,2.61-3.74,5.11-6.86,6.76-1.55.81-3.44,1.52-4.79,3-2.34,2.58-4.65,5.51-7.62,7.06-2.93,1.52-4.6,4.82-8.14,5.24-.37.05-.76.57-.96.96-1.52,2.7-4.13,4.01-6.76,5.14-4.79,2.06-9.54,4.08-11.55,9.51-.05.17-.32.37-.52.39-2.43.42-4.3,3.05-7.2,1.72-.57-.25-1.47.25-1.47.96.02.61.1,1.33,1.38,1.45,2.41.27,4.92.49,6.81,2.68.62.71,2.53,1.06,3.54-.71.76-1.38,1.74-1.94,3.69-1.35,2.83.86,6.22,1.23,8.8.86,4.35-.61,7.65,1.38,11.21,2.46,3.66,1.13,7.65.71,10.23-.34,2.95-1.23,5.73-1.06,8.53-1.65,2.51-.52,3.84.74,5.06,2.75.62.98,1.33,3.17,3.37,2.04,2.56-1.4,5.58-.47,8.26-1.99.96-.54,4.35-.74,5.75,1.4,1.5,2.34,4.4,3.42,5.36,6.19.25.71.96,1.03,1.7,1.06,2.58.02,4.79,1.5,7.45,1.62,2.46.12,4.94,1.08,7.01,2.88,2.85,2.53,6.49,2.78,10.08,2.63,4.23-.17,8.46-.12,10.96,3.91,1.67,2.68,4.57,3.22,6.76,3.37,4.03.25,7.25.44,8.33,5.16.22.98,1.33,2.04,2.29,2.56,3.47,1.82,5.95,5.19,9.91,6.19.44.1.81.76,1.06,1.25,1.25,2.31,2.26,4.79,3.71,6.98,4.55,6.83,6.27,14.8,8.83,22.39,1.16,3.42,2.53,7.06,1.52,11.14-1.47,5.88-4.13,10.74-9.81,13.2-4.55,1.97-7.99,6.88-13.99,5.33-2.65-.71-5.63-.32-7.64-2.95-.54-.69-2.11-1.79-2.98-.54-.56.84.25,2.14,1.48,2.65.32.12.64.29.88.52,2.48,2.16,3.98,4.84,3.29,8.19-.69,3.42-3.69,4.74-6.49,5.51-2.58.69-5.8-.44-7.1-2.48-2.46-3.91-6.29-4.15-9.91-5.26-2.58-.79-4.45-.59-4.23,2.95.07,1.35-.66,2.75-1.03,4.2,2.8.02,5.11-1.6,8.09.57,2.41,1.77,2.56,3.93,2.58,5.78.03,2.43-.49,5.88-3.76,6.17-4.06.39-5.92,1.97-6.74,6.02-.71,3.69-4.62,3.96-8.09,5.04,3.79,1.18,5.41,3.98,7.6,6.51,4.33,4.99,5.8,9.61,2.41,14.8-.93,1.45-2.11,2.9-4.42,2.9-3.1-.02-5.51,3.44-4.82,6.51.76,3.47.42,6.59-2.61,8.95-1.25.98-1.25,1.67.34,2.41,2.71,1.28,4.4,3.83,3.66,6.54-.66,2.46-.3,4.89-.84,7.3-.39,1.79-.62,3.24-3.02,3.42-1.01.05-2.63.66-2.51,2.38.15,1.77,1.52,1.87,2.85,1.72,2.24-.25,2.78.74,2.65,2.85-.1,1.4-.2,2.7-.81,4.01-1.47,3.12-.27,4.3,2.87,5.26,5.51,1.67,12.14-.71,16.67,4.52.12.17.66.12.96.02,7.4-2.14,15.19-.59,22.74-3.32,4.03-1.45,9.69-2.21,14.36,1.33,5.02,3.79,11.51,2.09,17.23,3.12,4.82.84,10.6-.98,15.24-3.47,4.84-2.58,10.08-2.75,15.02-2.75,3.93,0,7.65.98,11.8-.12,5.02-1.35,10.08-3.47,15.46-2.7,2.26.32,2.14-2.88,4.01-2.34,2.88.84,5.14-4.06,8.21-.76.05.05.96-.39,1.01-.71.39-1.7,1.77-1.62,3-2.24,3.98-2.06,7.67-4.77,11.65-6.88,1.43-.76,3.32-2.04,4.97-1.08,2.29,1.35,4.18,1.75,6.69.39,1.2-.64,2.31-.66,3.2-2.19,1.87-3.2,3.93-6.66,8.8-4.89.47.17,1.47-.25,1.84-.69,2.75-3.24,6.66-3.71,10.35-5.04,2.34-.86,5.46-.25,7.08-2.95,1.57-2.61,4.28-3.96,6.78-4.99,3.39-1.4,6.24-3.17,8.7-5.85,1.57-1.72,3.15-3.59,5.6-4.2,3.29-.86,6.29-2.38,9.14-4.2,1.08-.69.37-2.58,2.14-2.8,2.36-.32,2.21-2.34,2.92-4.03.96-2.26-.49-6.83,4.57-6.1,1.01.15.52-.54.61-1.01.54-2.19.52-4.55,3.64-5.26,2.88-.66,5.14-2.8,7.65-4.4,2.36-1.5,1.06-4.03,2.68-5.7,2.58-2.7,4.82-5.78,6.93-8.87,1.77-2.63,4.08-4.67,6.66-6.22,1.35-.84,2.78-1.45,2.83-3,.17-5.33,2.68-9.46,6.1-13.32.57-.64.44-2.34,1.5-2.51,3.39-.64,4.77-4.03,5.53-6.02,1.84-4.74,6.69-6.47,8.95-10.82,1.16-2.16,3.17-4.06,3.88-6.86.66-2.51.44-5.36,2.19-7.52.89-1.11,1.87-2.16,2.14-3.54.74-3.71,1.25-7.45,2.02-11.16.32-1.5.22-2.73-.25-4.28-.66-2.19-1.06-4.6,1.35-6.61,2.38-1.97,4.2-4.57,3-8.11-.17-.52-.12-1.16.61-1.4,1.43-.47,1.45-1.65,1.4-2.85-.07-1.92.44-3.59,1.99-4.87,1.47-1.18,1.13-2.9.44-4.06-2.09-3.56-2.24-4.08-.15-7.28.49-.76-.42-.91-.52-1.38-.86-5.19-2.26-10.28,2.04-14.97,1.3-1.43,2.06-4.55,1.43-6.32-1.38-3.88-1.35-8.04-.59-11.46.76-3.49-.52-4.84-2.43-6.61-1.55-1.45-2.38-2.88-.47-4.7,1.52-1.45,1.82-2.9-.37-4.08-1.23-.69-.74-1.7-.59-2.73.25-1.97,1.48-4.3-.12-5.9-4.55-4.57-4.15-9.88-2.41-15.22.91-2.83-3.39-4.92-.59-7.64,0,0-.12-.17-.22-.25-2.68-1.75-1.84-5.43-4.94-7.5-3.91-2.63-4.82-8.21-8.43-11.7-2.88-2.8-1.35-7.67-4.18-10.99-1.38-1.6-1.43-4.25-4.23-4.72-1.2-.2-1.23-1.45-1.72-2.34-1.43-2.58-2.09-5.97-4.92-7.23-2.78-1.2-4.74-3.32-6.24-5.48-1.18-1.75-2.53-2.7-4.18-3.71-2.68-1.6-6-1.33-8.56-3.91-1.72-1.72-2.36-4.92-5.46-5.16-4.77-.37-7.94-5.53-13.35-4.33-1.45.32-3-.54-4.15-1.92-1.3-1.57-3.79-2.31-5.26-2.04-3.54.69-6.05,0-8.06-2.93-.37-.57-.91-1.23-1.72-.74-3.79,2.34-6.78.12-10.08-1.43-3.69-1.75-7.55-4.01-11.11.81-.42.54-3.02,2.93-5.14,1.2-2.85-2.31-5.41-.98-8.21.17-2.95,1.23-5.51,2.85-9.37.88-5.73-2.9-12.14-2.41-18.41-.57-2.85.81-5.51,2.06-8.29,3-4.77,1.6-9.46-1.5-14.31.05-2.95.93-6.54-.07-9.12,2.02-1.62,1.3-3.19,1.45-4.96,1.3-6.07-.57-8.29,1.79-6.44,7.72.05.12-.2.34-.29.49-2.21.37-2.21-3.07-4.47-2.58-2.06.44-3.96.02-6-.42-1.25-.27-3.42-.76-4.03,2.16-.49,2.43-3.02,5.19-5.28,4.97-4.2-.42-6.91,4.45-11.28,2.53-.61-.27-2.56.86-2.8,1.67-.74,2.41-2.75,2.61-4.35,3.76-3.96,2.93-8.46,2.34-12.61,3.39-5.38,1.35-11.24,1.45-12.76,8.43-.05.2-.29.37-.49.49-3.2,1.82-4.11,5.16-5.66,8.16-.66,1.33-1.47,3.34-3.66,3.39-5.48.15-11.06.1-15.83,3.34-2.63,1.77-6.1,1.94-8.31,4.35-1.7,1.84-3.05,4.01-4.97,5.65m-379.38-174.51c.76-1.2,2.9-1.18,2.11-2.97-.57-1.28-1.57-1.18-2.93-.79-1.62.44-2.6-.91-3.12-2.43-.25-.69.27-1.75-.86-2.04-4.99-1.23-8.63-5.09-13.42-6.71-1.67-.57-2.98-2.83-4.55-2.95-4.94-.42-6-6.74-10.96-6.76-.07,0-.15-.17-.22-.27-1.87-2.43-4.94-2.61-7.3-2.53-3.1.1-4.92-.91-6.86-3-2.63-2.83-5.48-5.88-9.73-5.65-2.63.15-5.07.32-7.77.02-3.96-.47-6.42-2.43-8.7-5.16-.59-.69-.98-1.92-2.04-1.3-4.45,2.58-9.17.66-13.72,1.13-4.35.44-8.85-1.87-13.08.84-2.34,1.5-4.62,3.2-7.4,3.88-4.11.98-5.7,4.2-7.01,7.74-.52,1.35-.98,2.83-2.73,3.1-2.33.34-4.15,1.65-6.1,2.83-2.63,1.57-3.25,4.72-5.01,6.51-3.17,3.24-2.66,6.93-3.1,10.5-.15,1.2-1.25,2.53-.27,3.93,3.05,4.35.71,8.06-1.7,11.5-1.11,1.57-1.28,2.85-1.16,4.72.42,5.33,1.75,10.69-1.38,15.88-1.67,2.8-4.18,5.53-3.47,9.37.52,2.85-1.11,5.41-.91,8.38.44,6.02.91,12.44-6.22,15.63-.56.27-1.2.91-1.35,1.52-.34,1.33-.76,2.93.89,3.69,1.2.57,2.53.39,3.2-1.13.22-.49.34-1.06,1.18-.98.96,3.24-.54,6.17-1.55,8.97-.89,2.56-.49,4.62,1.13,6.34,2.26,2.38.52,6.24,3.29,8.31-1.6,1.4,1.33,2.65.1,4.13-3.17,3.76-2.43,8.68-3.64,13-.47,1.7-1.13,3.34.32,5.29.47.64,1.84,4.13-1.3,5.33-2.83,1.08-3.47,3.42-3.32,6.32.22,4.92,1.92,9.78.84,14.77-.81,3.76,0,7.03,1.57,10.55.52,1.16,2.56,5.53-2.14,6.34-1.01.2-1.89,1.65-1.35,2.88,1.18,2.75,1.16,5.8,2.02,8.48,1.38,4.35.49,8.65-.25,12.51-.96,5.02-2.02,9.81-.44,14.72.84,2.56.96,5.7,4.5,6.69,1.72.47,2.95.81,4.11-.96.86-1.33,2.51-1.55,3.98-1.79,4.25-.69,8.51-.44,12.81-.22,2.19.12,4.67.49,6.93-.52,2.6-1.16,4.72-.79,6.2,1.92.56,1.06,1.3,3,2.68,2.14,3.81-2.41,7.94-.37,11.85-1.28,3.86-.93,7.82.59,11.51,1.38,3.07.66,5.61,3.2,8.43-.22.59-.74,1.18.22,1.89.02,8.24-2.14,16.69-1.03,24.51.91,5.06,1.25,9.98,1.43,14.97,2.02,4.13.49,8.56-.27,12.12,2.8.3.22,1.13,0,1.62-.25,5.6-2.65,12.34.15,17.7-3.69,3.96,1.33,8.21.25,12.32,1.89,2.48,1.01,6.07,2.38,8.8.52,2.43-1.67,4.89-1.79,7.5-1.82,3.32-.02,6.64-2.11,10.01-.07.24.15.84-.37,1.25-.34,4.6.12,9.07,1.28,13.52,2.26.76.17,1.82.84,2.9.93,5.73.61,11.46,1.4,17.21,1.79,3.25.2,5.83,2.31,8.78,2.75,4.5.69,9.17-1.01,13.74.27.76.22,1.18-.44,1.77-.79,4.08-2.36,8.16-5.02,13.22-2.65,1.92.91,3.88,1.28,5.88.07.62-.34,1.4.22,1.82.15,3.22-.39,6.02,1.75,9.22,1.2,3.79-.61,7.64-.61,11.38.07,2.21.42,4.23,2.85,6.59.32.12-.12,1.03.42,1.5.76,3.07,2.26,6.98,2.68,9.71.39,1.4-1.2,2.83-1.23,4.3-1.52,5.33-1.11,10.57,2.46,15.93.39.08-.02.2.1.3.15,3.47,1.52,6.86,2.73,10.84,3.07,6.07.52,11.92,3.39,18.22.69,1.43-.61,3.47-.49,5.01-.02,4.28,1.3,8.46,2.61,12.88.61,1.6-.74,3.96.74,4.87-.2,2.97-3.12,6.54-2.78,10.08-2.36,2.83.32,5.88-.34,8.48.96,3.49,1.75,6.71,1.89,8.95-.76,1.35-1.57,2.88-2.58,4.55-3.54,3-1.7,5.34-4.23,7.87-6.51,2.09-1.89,4.38-3.64,6.54-5.33,3.56-2.75,6.49-7.06,11.8-7.01.2,0,.52-.2.56-.37.74-2.97,3.49-2.34,6-3.71-.66.98-.84,1.28-1.03,1.55-.93,1.47-.81,2.97.66,3.86,1.72,1.03,2.24-.61,3.1-1.75.93-1.23,1.11-2.24.69-3.79-.35-1.33-.17-2.88,1.92-3.54,1.82-.57,3.12-1.7,2.26-4.43-.74-2.24-1.89-5.06.74-7.33.74-.64.64-2.16.15-3-2.56-4.45-.12-8.73.27-13.05.07-.91.86-1.89,1.57-2.61,2.26-2.29,2.53-4.62.64-7.35-1.65-2.34-2.41-9.12-.69-10.5,3.12-2.46,2.73-5.8,2.6-8.82-.29-6.98.89-13.84,1.23-20.77.24-4.99,4.62-9.49,1.7-14.8-.07-.1.32-.37.32-.57.12-1.55.02-2.8-.79-4.45-1.7-3.44-3.84-7.13-1.7-11.41,1.99-3.96,4.11-7.99,2.04-12.68-.29-.66-.15-1.72.2-2.38.47-.86.35-1.47-.12-2.24-1.16-1.79-1.08-3.98-1.67-5.88-1.03-3.29,1.18-6.49-.2-9.46-2.09-4.55-4.92-8.8-5.26-14.01-.02-.07-.25-.15-.25-.25-.05-2.02-1.6-4.4,1.01-5.85,2.26-1.23,2.33-2.8,1.25-4.77-.74-1.35-1.01-2.83-1.35-4.3-.47-1.84-.76-4.4-2.04-5.26-1.94-1.28-1.52-2.48-1.08-3.91.32-1.03.61-2.06.1-3-.49-.88-1.08-1.57.05-2.38,1.13-.79,1.28.57,1.89.86.93.42,2.24,1.52,2.66,1.25,2.02-1.33,4.5-3.05,4.47-5.41-.03-2.04-1.06-6.02-3.59-5.41-4.72,1.16-5.06-1.89-6.37-4.62-1.2-2.56-2.04-4.97-1.97-7.99.02-2.09.81-4.28.17-6.32-.84-2.75-.44-4.99,1.6-7.08.96-1.01,1.08-2.29-.12-3.39-4.33-3.91-5.95-9.49-7.32-14.63-1.43-5.29-1.57-11.04-2.78-16.49-.29-1.4-.27-3-1.82-3.96-2.58-1.57-3.86-3.91-4.25-7.01-.39-2.95-2.63-4.13-5.26-2.97-.86.39-1.25-.15-1.84-.22-4.72-.64-6-5.24-8.51-8.11-3.27-3.79-5.68-7.42-11.48-8.14-5.53-.69-11.09-1.52-16.64-2.38-.93-.15-1.84.39-2.43-1.01-.93-2.29-3.12-2.48-5.01-1.84-2.56.84-5.11.76-7.6.47-2.68-.32-4.01.86-5.48,2.88-1.18,1.62-2.58,4.23-5.16,3.27-1.82-.69-2.85,0-4.08.79-2.83,1.77-5.48,3.59-9.22,2.68-1.45-.34-3.74.07-4.28,2.02-.84,2.97-4.55,3.47-5.31,6.61-.12.49-2.73,2.75-5.16,1.7-1.97-.84-4.11.12-5.46,1.35-3.66,3.44-8.16,5.97-11.14,10.2-.71,1.01-1.4,2.34-3.05,2.21-3.02-.2-5.88.44-8.8,1.33-6.44,1.92-12.83,3.91-18.68,7.35-2.29,1.35-3.22,3.22-3.25,6.12-.05,4.97-2.95,9-6.86,11.63-2.16,1.45-3.71,2.46-3.84,5.19-.15,2.83-3.98,3.88-4.06,5.7-.1,1.99,2.73,3.98,3.02,6.54.47,4.4-1.33,7.4-5.36,8.63-2.46.79-3.02,3.02-2.48,4.57.42,1.25,2.31.32,3.76-.39,3.2-1.52,6.76-3.66,9.81.54.49.66,1.23.88,2.04,1.13,3.39,1.03,6.32,2.34,6.71,6.76.17,1.79-.1,4.33,1.33,5.58,3.42,3.05,2.36,6.49,1.28,9.83-.89,2.85.32,7.72,2.85,9.19.35.2.57.79,1.13.34,3.81-2.95,7.72-2.24,12.09-1.13,5.58,1.38,9.34,8.51,6.59,13.77-.49.98-2.43,1.92-.62,3,1.2.74,2.53.64,4.08-.81,2.9-2.73,6.22-5.06,10.84-2.63,3.52,1.84,6.15,5.16,10.33,5.85.32.05.32,1.06,1.57.98,4.11-.3,6.81,1.89,8.31,5.95.71,1.92,1.35,3.96,2.58,5.53,1.77,2.34,2.07,5.21,1.99,7.57-.3,8.8-4.99,13.27-14.14,14.28-3.91.44-7.62-1.4-11.75-.42-5.28,1.23-10.91.27-16.3,1.52-3.37.81-6.42,1.79-10.03-.34-2.29-1.35-5.51-1.94-8.6-1.6-.79.1-1.72,1.23-2.51.15-3.59-4.99-7.91-1.77-12.12-1.4-1.74.15-4.3,1.97-5.56-.27-2.75-4.97-7.18-6.49-12.32-6.96-1.03-.1-1.97-.25-2.95-.76-5.51-2.95-9.86-7.3-14.04-11.8-1.33-1.45-2.36-1.97-4.3-1.99-2.7-.05-6.27.44-7.89-1.5-3.44-4.08-8.28-4.57-12.61-6.49-3.07-1.35-6.76-2.19-8.97-4.43-2.56-2.61-5.16-4.65-8.43-6.12-3.22-1.45-6.17-3.37-8.09-6.54-1.18-1.92-3.05-3.74-4.99-3.98-3.37-.44-4.79-3.37-7.47-4.5-1.77-.76-3.32-2.21-5.14-2.56-4.82-.91-8.78-3.15-12.09-6.64-.37-.39-1.16-.93-1.43-.79-2.21,1.23-3.84-.96-6.12-.84m-209.64,460.7c2.39-2.21,5.04-2.9,8.04-2.53,1.89.25,2.85-.25,2.41-.93-1.13-1.67.47-2.95.44-4.47-6.42,2.34-7.89,1.57-11.23-2.34-2.26-2.68-1.52-6.64,1.52-10.18,3.17-3.71,5.97-4.28,11.68-.74,3.61,2.24,1.82,6.12.03,9.98,2.78-1.6,5.11-.86,8.16-1.4-2.02-.69-3.29-1.45-3.54-2.93-.76-4.84,1.74-9.88,6.02-12.39,1.87-1.11,7.69-.39,8.43,1.43,1.18,2.85,3.44,2.65,5.75,3.12,1.67.34,1.79-.81,1.89-1.62.12-.89-1.06-2.14.54-2.51,1.33-.32.37,1.6,1.45,1.92.44.12.76.79,1.08,1.23,1.79,2.43,3.84,1.82,5.63.17,2.02-1.84,1.72-6.17-.49-7.72-1.94-1.35-4.01-1.79-5.53.81-.54.88-1.3,1.67-2.26,2.9-.05-.88-.12-1.2-.05-1.5.07-.32.47-.71.37-.91-2.09-4.4.93-6.34,3.91-8.28,1.16-.76,2.36-1.43,2.85-2.88,1.62-4.89,8.56-7.45,12.91-4.45.44.32,9.17-.29,9.46-.66.2-.25.22-.61.34-.96,1.18-3.66,4.2-5.46,7.52-4.92,3.81.61,4.84-1.87,6.88-3.74-3.02-1.6-5.16-3.39-5.38-6.78-.07-1.23-.74-2.34-1.92-3.12-2.78-1.82-3.64-4.35-2.93-7.65,1.23-5.6,3.59-6.71,9.02-4.99,3.47,1.11,4.94,4.08,7.47,5.85,5.01,3.56,5.88,7.94,4.6,13.32-.17.74-.39,1.57.32,1.87,1.03.42,2.26.79,3.29.59.86-.15.59-1.4.42-2.16-.35-1.5-.62-2.53.84-4.06,3.2-3.34,6.71-4.03,10.99-3.47,1.08.15,3.2,1.79,3.56-.81.3-1.89.76-4.08-2.53-4.5-1.87-.25-4.35-.96-4.13-3.91,1.6-.02,2.9,3.42,4.69.57,1.62-2.58.25-4.2-2.16-5.38-.81-.39-1.35-1.28-2.16-1.72-2.07-1.11-1.38-1.84.15-2.8,2.19-1.4,4.55-2.48,5.73-5.21,2.63-6.22,5.83-6.51,10.96-4.38,1.28.54,2.85,1.99,4.45.57,2.75-2.51,6.22-1.72,8.78-.69,3.25,1.3,4.57-.93,4.79-2.38.47-3.24,1.99-4.2,5.04-3.66-1.33-2.78.07-4.52,1.57-6.15,1.79-1.97,2.87-3.74.56-6.19-1.23-1.28-1.65-4.01-2.95-4.4-1.35-.42-3.27,1.57-5.04,1.87-3.59.59-7.89,2.29-10.55-1.03-2.06-2.53-4.03-2.53-6.56-2.46-1.03.05-2.11-.1-3.1-.39-1.77-.52-2.63-1.6-1.6-3.47.76-1.38.91-2.85-.74-3.49-1.25-.49-2.83-.59-3.71.93-.93,1.55-.39,2.83.91,3.88.47.37,1.92.2,1.47.91-1.03,1.67-.59,3.39-.93,4.99-.86,4.06-8.65,7.42-12.51,5.6-5.09-2.41-7.92-6.86-8.33-12.22-.2-2.7-1.16-4.43-2.75-6.37.22,2.78-1.97,4.38-2.87,6.56-1.18,2.85-4.4,1.55-6.78,1.84-.76.1-1.52.57-2.26.49-2.46-.25-5.56,1.38-7.28-.74-1.67-2.06-2.63-1.06-4.03-.3-6.44,3.52-10.82.84-12.98-6.17-.37-1.18-.89-2.75-.17-3.27,2.04-1.52.76-3.37,1.3-5.46-1.16.49-2.65.91-2.63,1.18.3,3.32-2.53,6.05-1.67,9.44,1.33,5.24-1.52,10.23-1.06,15.41,0,.15-.3.32-.44.47-2.61,2.56-5.7,4.57-7.42,8.04-1.03,2.04-2.98,3.76-5.31,4.28-4.5.96-9.07,1.84-13.64,2.14-1.16.07-3.47.91-4.06-.54-1.79-4.33-6.44-6.71-7.05-12.12-.25-2.24-1.4-5.85-4.38-7.69-2.11-1.33-2.73-8.16-1.97-10.69.54-1.79,1.87-3.22,2.14-5.04.71-4.97.98-10.03,2.02-14.92.71-3.39-.37-6.96.76-9.98,1.25-3.39.86-6.76.98-10.03.2-5.95-.66-11.92-.69-17.95-.03-2.31.44-4.45.66-6.64.3-3.12-.49-6.02-.81-9.02-.25-2.29-.39-2.7-2.48-2.46-3.74.39-7.38,0-11.24,1.28-4.08,1.35-8.95.37-13.47.47-4.03.07-8.56-1.38-12,.88-5.8,3.84-12.09,2.51-17.97,2.16-3.1-.17-4.08-.17-5.04,2.53-.59,1.67-6,2.93-6.54,1.65-.96-2.24-2.21-1.43-3.64-.96-.81.3-1.57.96-2.56.15-1.23-.98-2.34-.69-3.61.34-2.8,2.29-6.64,2.14-9.69,3.84-1.23.69-1.74,0-2.65-.61-2.83-1.92-5.7-3.52-8.83-.15-.91.96-2.51,1.28-4.11,1.2-4.33-.17-8.53.96-11.95,3.39-3.81,2.7-7.6,1.4-11.11.47-3.44-.91-6.34-1.03-8.95,1.47-.64.61-1.52,1.77-2.02,1.62-3.44-.98-6.44,1.4-9.91,1.16-2.16-.15-5.58-.86-6.83.52-3.07,3.39-7.08,3.17-10.77,4.28-1.18.34-2.58.47-3.52,1.18-3.86,2.93-7.97,4.72-12.81,5.88-4.52,1.08-9.34,2.26-13.25,5.65-1.13.98-2.63,2.58-4.79,2.93-3.86.64-6.78,2.93-9.1,6.37-.84,1.23-1.67,3.71-3.84,3.59-2.02-.1-2.39,1.3-3.34,2.43-1.4,1.67-1.57,3.91-2.43,5.73-1.08,2.26-2.33,2.95-4.13,3.05-1.74.1-2.53,2.78-5.11,1.16-1.47-.91-5.01-1.65-5.51,2.38-.07.57-.44,1.3-1.65.93-.88-.27-1.97.37-2.33,1.55-.64,2.14-2.41,3.34-4.2,4.2-3,1.43-4.99,3.44-5.75,6.78-.25,1.16-1.3,2.11-1.94,3.22-2.56,4.35-5.83,8.31-5.97,13.77-.12,3.79-.62,7.57-.96,11.33-.07.61.07,1.89-.79,1.52-3.32-1.38-2.24,1.52-2.9,2.75-1.16,2.19.66,5.26-1.87,6.98-1.72,1.18-1.25,2.9-1.03,4.2.59,3.76,1.23,7.33-.66,11.04-1.3,2.51-2.11,5.26-1.25,8.38,1.28,4.6,1.67,9.29,5.48,13,1.13,1.11,3,3.79,1.16,6.74-1.48,2.36-1.55,5.19-.2,8.33,1.28,3.02,2.34,6.69,1.25,10.25-.76,2.48.81,9.98,2.83,11.41,3.1,2.16,5.85,4.62,8.36,7.47,2.21,2.51,4.13,4.72.49,8.09,3.32-.17,4.35,1.77,5.09,3.81.34.91.91,1.52,1.38,2.29,2.04,3.24,3.42,6.96,6.88,9.19.27.17.1.91.3,1.33,1.67,3.2,2.9,6.74,7.47,6.96,4.4.25,8.73,1.16,12.02,4.4,4.35,4.23,10.23,5.65,15.49,7.72,4.89,1.89,10.91,0,16.3,1.7.79.25,1.7-.71,2.53-.91,2.19-.57,4.89-3.83,6.54.76.15.37.69.76,1.08.81,3.86.52,7.42,2.53,11.7.71,2.41-1.03,6.1-.96,8.33.59,1.55,1.06,2.68,1.03,4.15,1.03,1.79.02,3.56-.79,5.33.61,1.89,1.52,4.06,1.2,6.49,1.01,3.1-.25,4.89-4.15,8.38-2.51.37.17.81-.57.52-.98-1.84-2.83,1.03-4.6,1.92-6.47.52-1.08,1.3-4.47,3.88-3.42,1.97.81,4.28.79,5.95,2.46,1.99,1.99,3.71,3.69,6.56.29,2.83-3.39,6.86-.74,10.32-.15,1.43.27,2.34.84,3.29-.96,1.08-1.99,2.78-2.58,4.79-.61,1.84,1.79,3.44.76,4.35-1.18,1.03-2.26.57-4.65-1.67-5.63-2.46-1.08-1.38-1.65-.27-2.8,1.6-1.62,3.37-3.05,4.97-4.62,3.37-3.32,8.19-3.2,10.59.79,1.18,1.94,2.29,3.12,4.45,1.2,1.72-1.57,3.91,2.41,5.41-.27.62-1.08,1.99-1.23,2.19-2.8.74-5.53,3.91-8.21,9.32-8.31.91-.02,1.97.17,2.73-.22,3.02-1.5,4.57,1.06,6.59,2.21,2.8,1.6.81,4.72,1.79,6.93,1.35-.39,2.07-1.18,1.87-2.36-.64-3.88,1.16-6.29,4.57-7.69,1.87-.74,1.92-1.67,1.25-3.52-1.6-4.33.32-9.1,3.96-10.74,4.28-1.94,9.61-.25,12.09,3.88m507.73-38.42c-1.79,1.52-3.29,2.53-3.56,4.65-.2,1.5-1.47,2.43-2.73,2.95-3.54,1.43-7.1,2.19-11.04,1.08-1.5-.42-3.76-.84-5.04,1.5-2.61,4.74-10.27,7.03-15.71,5.68-2.14-.54-5.14-1.01-7.13.71-2.21,1.89-4.67,1.89-7.28,2.21-4.01.52-8.16-.39-12.07,1.3-1.28.57-2.36.34-1.79-1.6.22-.76.02-1.62.1-2.43.17-2.09-1.08-3.2-2.8-2.95-1.82.25-2.43,1.77-1.99,3.66.57,2.48-2.19,5.6-4.62,4.77-3.69-1.25-7.35-2.31-11.24-1.79-4.01.49-7.52-2.04-11.48-1.57-5.24.61-10.37-.71-15.54-1.11-4.79-.34-8.38-4.62-12.59-5.38-8.04-1.47-10.2-9.88-16.96-12.37-.17-.07-.37-.37-.37-.57,0-2.38-1.75-2.97-3.52-3.61-1.16-.42-1.99-1.18-2.19-2.46-.44-2.95-2.8-4.7-4.92-5.92-4.33-2.48-5.48-6.74-6.91-10.77-1.7-4.74-3.2-9.61-6.93-13.05-1.97-1.79-3.47-3.69-3.44-6.07.05-7.1-3.27-13.84-1.79-21.14.91-4.47-2.31-8.53-2.34-13.23,0-2.97.25-4.84,2.75-6.19.81-.44,1.45-.84.91-1.82-.37-.69-.52-1.82-1.47-1.77-.86.05-1.75.57-2.53,1.01-14.77,8.06-29.35,16.49-44.3,24.29-14.14,7.35-27.88,15.46-42.48,21.88-7.1,3.12-13.99,6.64-20.53,10.79-1.94,1.2-3.91,3.15-5.93,3.24-3.49.2-5.88,2.41-8.75,3.56-2.04.84-4.6,1.65-4.15,4.82.07.49-.37.71-.79.98-3.61,2.36-7.28,4.7-10.79,7.25-1.06.74-1.94.42-2.93.44-2.78.05-5.21.27-7.18,3-2.14,3-3.86,6.47-7.52,8.28-2.02,1.01-4.4,1.72-5.51,4.28-1.79,4.23-6.22,7.6-3.19,13.25.96,1.82.24,4.7,1.89,6.42,2.26,2.34,2.58,4.99,2.31,7.99-.37,4.06,2.31,7.33,2.93,11.14.05.3.34.76.59.81,2.34.37,4.18,2.21,5.21,3.66,2.7,3.79,5.75,6.93,9.54,9.69,1.55,1.13,2.65,3.42,4.28,4.89,2.24,2.06,3.64,4.6,5.09,7.28,2.43,4.52,6.47,7.89,10.08,11.5.37.37,1.01.57,1.57.71,2.73.69,4.69,2.31,5.85,4.87.3.71.76,1.33,1.38,1.47,5.63,1.38,8.8,6.37,13.32,9.39,3.37,2.24,6.42,4.42,10.52,4.84.89.07,2.06.22,2.58.79,3.12,3.37,8.14,2.73,11.45,5.63.81.71,1.87,1.33,3.12,1.38,4.82.17,9.19,1.77,13.45,3.93,3.22,1.65,6.56,2.75,10.2,3.47,2.9.57,6.19.69,9.02,2.75,2.68,1.94,6.1,3.54,9.49,3.66,3.37.1,6.44,1.11,9.61,1.82,1.38.3,2.43.39,3.84.12,4.38-.79,8.95-.02,13.22-1.7.15-.05.47.12.62.27,2.58,2.58,5.58.76,7.96.1,4.72-1.33,9.05-2.19,13.47.74,1.01.66,2.8.86,3.96.44,3.39-1.25,7.01-1.18,10.5-2.02,2.21-.52,5.16-3.49,7.45.27.05.07.52.02.64-.12,1.87-2.02,4.67-2.21,6.91-3.59,4.08-2.51,8.83-3.02,13.57-3.74,2.7-.42,5.75-.02,8.46-2.51,2.33-2.16,5.51-4.43,9.19-4.43,1.84,0,3.15-.49,4.69-1.6,2.95-2.06,6.24-4.52,9.71-4.65,9.22-.34,13.72-7.42,19.25-12.81,2.58-2.48,4.65-4.87,8.43-5.06,1.03-.05,1.74-1.16.86.84-.42.98.44,2.63,1.72,3.37.49.29,1.16.05,1.57-.47.91-1.16.84-2.31-.15-3.42-.35-.39-1.13-.84-.49-1.4,2.88-2.51,5.06-5.68,8.21-7.99,2.83-2.06,6.29-5.33,8.78-4.99,5.38.71,3.76-4.84,6.71-5.68.17-.05.34-.29.47-.49,2.26-3.64,7.33-4.11,9.14-8.87.76-1.97,2.02-3.91,2.19-6.22.2-2.61,1.87-4.89,1.67-7.67-.08-.96.81-2.11,1.5-2.97,2.51-3.12,4.5-6.34,4.62-10.57.1-3.59.91-7.03,4.33-9.24,3.27-2.11,3.81-5.01,1.97-8.43-.07-.15.08-.42.15-.66,2.02-.15,4.06.44,6.07-.61,1.65-.88,1.62-2.26,1.33-3.56-.39-1.6-1.55-1.77-3-1.08-1.06.47-2.19.39-3.27-.02-.05-2.31,3.54-1.08,3.25-3.39-.22-1.72-3.1-1.48-2.73-4.06m-327.88-168.71c-4.77-.02-9.59,6.76-7.77,10.82.84,1.89,2.58,3.47,4.67,3.86,1.79.34,3.12-.84,4.01-2.58.64-1.3,1.65-2.53,2.75-3.52,1.82-1.57,2.53-3.64,1.43-5.53-1.03-1.79-2.61-3.76-5.09-3.05m-68.36-36.95c3.34.1,6.59-2.85,6.64-6,.03-2.53-4.67-6.69-7.69-6.81-2.68-.12-6.47,3.32-6.51,5.9-.03,2.51,4.69,6.86,7.57,6.91m-34.69,107.75c0-.93.02-1.65,0-2.34-.05-2.68-2.51-3.37-4.11-4.57-1.43-1.11-2.9.54-3.93,1.4-2.88,2.38-2.51,7.03.49,9.66,3.29,2.9,3.96,2.83,6.56.15,1.4-1.43.88-3,.98-4.3m-18.86-13.54c.15-6.47-3-8.78-8.16-6.05-4.15,2.19-4.69,7.33-.96,10.2,3.25,2.48,4.6-2.65,7.55-2.06.86.2,1.87-.84,1.57-2.09m-315.07,31.76c.29-1.33-.62-1.62-1.35-1.75-1.23-.2-2.34.25-2.14,1.75.2,1.5-.71,2.38-1.45,3.37-.47.61-.44.39-2.93-.98-1.38-.79-3.61-1.01-4.55.1-.96,1.11-3.52,1.57-2.63,3.76,1.08,2.75,3.54,4.45,5.53,6.49.42.42,1.23.59,1.43-.07.64-2.14,4.6-2.21,3.34-5.53-.25-.66.54-1.35,1.23-1.45,3.66-.49,1.87-4.23,3.52-5.68m518.3-20.38c-.47,0-.96-.1-1.4.02-2.46.66-4.06,2.46-5.06,4.57-.93,1.97,1.13,3.02,2.29,3.81,2.09,1.38,5.28.61,6.86,3.29,0,0,.69-.42,1.06-.57,3.15-1.25,1.62-3.76,1.55-5.83-.08-3.15-2.29-5.31-5.29-5.31m-536.02,44.1c-1.23,0-8.53,4.57-8.75,5.53-.05.2,0,.57.15.64,1.84,1.01.76,2.8.98,4.18.34,2.09,1.06,1.89,2.51,1.13,2.24-1.16,4.45-2.51,6.29-4.01,1.5-1.23,4.55-2.7,3.22-5.7-.74-1.7-2.68-1.77-4.4-1.77m705.67-128.94c.02.3-.22,1.75.32,2.78,1.01,1.89,3.37,2.58,4.62,1.08,1.79-2.16,7.23-1.62,5.31-6.51-.47-1.16-1.6-2.11-2.09-3.44-.27-.69-.98-1.57-2.14-1.45-4.28.44-6.02,2.34-6.02,7.55m-380.59-156.69c.05-3.59-2.11-6.37-4.92-6.37-1.99-.02-4.94,3.42-5.01,5.85-.07,2.63,2.63,6.1,4.82,6.15,2.93.07,5.06-2.29,5.11-5.63m544.41,238.87c.02,2.58,2.78,6.19,4.79,6.27,2.29.1,5.14-3.52,5.11-6.44-.03-2.75-2.75-5.6-5.34-5.58-2.48,0-4.6,2.65-4.57,5.75m-202.14-77.75c0-3.24-1.74-5.68-4.11-5.75-2.11-.07-5.19,3.54-5.14,6.05.05,2.02,3.15,5.24,5.11,5.31,2.43.12,4.11-2.19,4.13-5.6m411.54,206.64c.02-2.61-2.38-5.11-4.92-5.11-2.73-.02-4.92,1.94-4.99,4.5-.07,2.02,3.12,5.41,5.16,5.51,2.24.12,4.74-2.46,4.74-4.89m104.16-189.68c0,2.73,3.29,6.19,5.09,6.15,1.79-.07,5.58-3.02,5.53-4.35-.05-1.77-4.84-5.88-6.91-5.38-1.99.47-3.49,2.06-3.71,3.59m-336.78,78.05c3.71.25,7.3.57,10.47,2.41,1.08.64,1.52.32,2.43-.57,1.52-1.5,2.7-4.06,5.36-3.69,3.22.47,3.91-1.7,4.74-3.88.22-.57.62-1.18.03-1.57-.96-.66-1.03.34-1.4.86-1.89,2.7-4.01,4.33-7.72,3.15-1.79-.59-3.98-1.03-5.87,1.06-1.13,1.23-3.32,1.25-5.24,1.01-.89-.12-2.06-.66-2.8,1.23m-366.89-21.68c-1.5,0-2.09-.07-2.66.02-1.55.3-3.93-.22-4.01,2.11-.05,2.78,2.46,2.31,4.18,2.21,2.41-.15,4.6.32,6.59,1.57,1.38.88,2.38.57,3.32-.54.57-.66,1.72-1.06,1.2-2.24-.54-1.3-1.2-2.43-2.93-2.51-2.21-.12-4.4-.49-5.7-.64m-72.72-15.88c2.75.05,4.74-1.06,5.19-3.88.34-2.14-2.83-4.92-5.33-4.67-2.53.22-4.47,1.84-4.42,4.33.02,2.51,1.72,4.25,4.57,4.23m-31.91-344.33c0-1.06-4.45-5.16-5.61-5.19-1.16-.02-4.38,5.14-4.3,6.98.05,1.6.98,2.58,2.48,2.8,1.7.22,7.45-3.47,7.42-4.6m462.23,394.01c.84-.05,1.55.07,1.74-.64.64-2.19,1.62-4.4,1.6-6.59-.02-1.06-2.31-1.33-3.79-1.47-.15-.02-.34-.47-.44-.42-1.79.54-4.82.79-5.06,1.75-.59,2.36,3,3.96,2.31,6.83,1.38-.32,2.63.22,3.64.54m-285.72-58.48c-.42-2.14-.93-4.4-3.86-4.65-2.31-.17-4.13,1.99-4.03,4.89.08,2.29.71,4.35,3.61,4.3,2.8-.05,4.08-1.67,4.28-4.55m-240.17-222.45c-.05-1.62-2.88-4.52-4.35-4.15-2.21.54-4.25,2.02-4.01,4.38.2,1.79,1.28,3.93,3.76,4.08,1.89.1,4.65-2.56,4.6-4.3m231.96,476.12c-1.97.86-4.23,1.43-3.86,4.2.34,2.46,1.72,4.52,4.35,4.4,2.43-.1,3.17-2.51,3.42-4.5.35-2.7-1.99-3.27-3.91-4.11m-15.22-176.13c2.33-.49,4.84-2.68,4.62-4.03-.54-3.1-3.79-2.51-6.32-2.56-2.16-.02-4.08.74-3.66,3,.44,2.53,3.02,3.02,5.36,3.59m-78.81-149.12c-.05-2.09-1.35-3-2.75-2.34-2.31,1.11-4.87,2.16-6.32,4.5-.54.86-1.4,1.87-.1,3.02,1.16,1.03,2.02,1.23,3.29.17.93-.79,2.16-1.28,3.27-1.84,1.52-.79,2.19-2.19,2.61-3.52m290.86,41.62c2.29-1.38,3.25-3.59,4.13-5.97.66-1.79-.12-3.02-1.16-4.01-.81-.76-2.16-1.06-2.88.44-.89,1.89-1.89,3.76-2.51,5.75-.61,1.94.47,3.2,2.41,3.79m-379.09,66.15c.64-1.89-.69-2.65-1.84-2.85-1.18-.17-2.61.32-2.46,2.04.12,1.62-.79,2.48-1.94,3.37-1.6,1.23-1.18,2.73-.07,4.08,1.38,1.65,2.63.98,3.71-.34,1.52-1.87,1.92-4.2,2.6-6.29m426.98,47.52c.2-2.7-1.6-4.03-3.69-4.13-1.75-.07-3.05,1.3-2.83,3.54.22,2.09.1,4.55,2.85,4.67,2.33.07,3.54-1.72,3.66-4.08m-391.18-149.14c2.95.07,6.24-2.11,6.24-4.18,0-1.79-1.01-2.38-2.65-2.38-2.53-.02-6.66,2.34-6.56,3.93.1,1.75,1.28,2.58,2.98,2.63m398.19-252.78c1.52.22,2.73-.54,3.15-1.75.47-1.38,1.16-2.43,2.19-3.37.84-.79,1.35-1.7.52-2.73-.89-1.03-2.09-1.03-3.15-.39-2.09,1.3-3.27,3.32-4.4,5.48-1.2,2.24-.02,2.58,1.7,2.75m-5.61,183.29c-1.84-.22-3.25.44-3.61,2.34-.27,1.45,3.34,3.59,5.65,3.52,1.65-.07,2.93-1.11,2.7-2.48-.37-2.43-2.16-3.64-4.74-3.37m-172.69,62.42c-.96-.05-1.38.74-1.94,1.25-1.06.93-.12,1.99.32,2.38,1.45,1.33,2.8,2.51,2.7,4.79-.05.93.93,1.5,2.02,1.43,1.08-.1,1.65-.88,2.04-1.7.54-1.13-3.88-8.04-5.14-8.16m-368.34,290.39c-.25-1.65-.96-3.56-3.34-4.03-1.94-.39-3.07,1.38-2.73,2.61.54,1.99.27,5.14,3.22,5.41,1.6.15,2.88-1.47,2.85-3.98m542.05-546.86c-1.62-.1-2.34,1.6-2.53,3.52-.25,2.19,1.72,3.34,3.17,3.37,1.5.02,3.39-1.16,3.17-3.37-.2-1.72-.66-3.44-3.81-3.52m26.82,454.21c-.15,1.84.71,2.7,2.65,2.65,2.51-.07,3.52-1.89,3.66-3.84.15-1.87-1.4-2.75-3.29-2.63-2.36.12-3.12,1.6-3.02,3.81m-477.15-401.48c2.19.29,3.69-.96,3.84-3.1.1-1.72-1.57-3.32-3.1-3.1-1.84.27-3.47,1.84-3.66,4.03-.2,1.94,1.18,2.24,2.92,2.16m743.13,63.62c-1.4-.05-2.9.05-2.75,2.04.2,2.29,1.82,3.79,3.83,4.23,1.38.29,2.58-1.03,2.48-2.63-.15-2.06-.81-3.86-3.56-3.64m-612.4-102.9c-.32-1.25-.86-2.29-2.7-2.19-2.21.1-3.44.88-3.66,3.22-.22,2.41,1.67,2.8,3.1,2.88,2.31.15,2.71-2.02,3.27-3.91m718.28,252.98c-.29-2.02-1.3-2.95-3.22-3.07-2.16-.15-3.27,1.48-3.05,2.9.22,1.65,1.47,3.49,3.61,3.52,2.19.02,1.99-2.11,2.65-3.34m-808.91,101.5c-1.03.64-2.93.88-2.36,2.46.71,2.06,2.31,3.86,4.47,4.35,1.67.37,1.94-1.23,1.84-2.58-.17-2.48-2.14-3.32-3.96-4.23m380.46,169.3c-.84.05-1.62.84-1.92,1.79-.25.91,4.65,4.67,5.78,4.6,1.3-.12,1.77-.93,1.77-2.14,0-1.3-3.71-4.28-5.63-4.25m-39.36-210.45c0-.66-.02-1.01,0-1.35.15-1.75-.86-2.78-2.24-3.56-.54-.32-1.18-.29-1.6.1-1.28,1.23.07,2.34.22,3.52.05.44.08.93.25,1.35.42,1.11.32,2.88,2.04,2.7,1.77-.17,1.23-1.87,1.33-2.75m-427.39,172.15c-.69-1.55-1.87-2.9-3.54-2.61-1.33.22-3.27.61-3,3,.17,1.6,1.11,3.1,2.38,2.75,1.55-.42,3.74-.76,4.15-3.15m-276.53-127.98c-.29-1.77-1.33-3.29-3.05-3.07-1.5.2-3.22,1.79-3.12,3.22.05,1.06,1.16,3.07,3.07,2.97,1.77-.07,2.78-1.35,3.1-3.12m756.68,151.55c-.64-3.12-3.07-1.89-4.82-2.06-1.23-.15-3-.25-2.88,1.52.1,1.72,1.74,3.24,3.29,2.56,1.43-.64,4.03.76,4.4-2.02m38.01-194.47c2.14-.05,4.08.15,3.79-2.04-.25-1.67-1.52-3-3.56-3.07-1.82-.1-2.75.59-2.75,2.56.03,2.31,1.38,2.63,2.53,2.56m-555.27,227.34c-.39-1.82-1.47-3.15-3.49-3.44-1.74-.25-2.11,1.28-2.19,2.43-.12,1.97,1.55,3.12,3.02,3.56.76.22,2.51-.74,2.66-2.56m81.79-189.04c-1.72-.2-3.37.59-3.32,2.16.05,1.5,1.52,2.88,3.39,2.83,1.77-.02,2.75-1.11,2.8-2.88.05-1.99-1.3-2.21-2.88-2.11m85.79,146.98c1.18-.39,2.43-.76,2.48-2.58.08-2.36-2.06-2.73-3.37-3.37-1.08-.54-2.38.96-2.29,2.26.1,1.79,1.13,3.2,3.17,3.69m71.61,68.73c-.2,1.62,1.33,2.29,2.34,2.02,1.52-.37,3.54-1.11,3.32-3.27-.17-1.4-1.33-2.43-2.98-2.24-1.89.25-2.7,1.47-2.68,3.49m259.86-257.77c-1.28.49-2.09,1.57-1.89,2.78.25,1.62.69,3.61,2.9,3.61,1.35,0,2.66-1.2,2.31-2.43-.47-1.57-1.08-3.52-3.32-3.96m-455.27-151.18c-1.77-.07-2.83.61-2.56,1.72.54,2.06,1.97,3.54,4.2,3.96,1.5.29,2.11-1.33,1.94-1.82-.62-1.97-2.06-3.29-3.59-3.86m98.16,172.74c-.25,1.75.34,3.42,2.14,3.64,1.57.2,2.68-1.28,2.78-2.85.1-1.77-1.01-3.17-2.78-3.24-1.16-.05-2.48.66-2.14,2.46m18.07,117.23c-1.92-.61-3,.88-2.97,2.26,0,1.33,1.33,2.56,3.02,2.65,1.99.1,2.58-1.72,2.75-2.88.22-1.33-.86-2.56-2.8-2.04m94.62-200.32c-1.55.69-2.92,1.2-2.9,3.34.02,2.04,1.74,2.04,2.51,1.97,1.57-.12,3.2-1.03,3.22-2.93.02-1.75-1.75-1.79-2.83-2.38m-118.61,179.43c-1.25.57-2.71.93-2.51,2.83.17,1.72,1.47,3.07,2.73,3.17,1.72.15,2.09-1.79,2.29-3.27.25-1.84-1.3-2.19-2.51-2.73m331.96-147.47c-.32-1.55-1.43-2.38-2.83-2.53-1.7-.15-3.05.93-3.2,2.48-.12,1.5,1.11,2.51,2.73,2.48,1.62-.02,2.73-.91,3.29-2.43m-158.83-220.83c-.25-2.02-1.4-3.24-3.05-3.54-1.45-.25-2.51,1.03-2.38,2.31.12,1.38.84,2.9,2.53,3.22,1.67.34,2.02-1.43,2.9-1.99m-89.6,498.73c-.61-1.23-.96-2.7-2.8-2.53-1.62.17-3.22,1.06-3.07,2.51.12,1.2,1.4,2.53,3.2,2.58,1.87.05,2.14-1.35,2.68-2.56m316.26-227.24c-1.47-.52-2.31.54-2.26,1.92.07,1.65,1.4,2.85,2.95,2.75,1.28-.07,3-1.06,2.9-2.53-.1-1.62-1.62-2.36-3.59-2.14m-33.6,96.76c1.72-.02,2.83-.88,3-2.38.2-1.43-.93-2.53-2.24-2.53-1.4-.02-3.17.44-3.27,2.29-.1,1.52,1.08,2.38,2.51,2.63m-105.43-163.67c.27-2.19-1.4-2.78-2.56-2.95-1.23-.17-2.71.49-3.1,2.14-.39,1.72.84,2.38,2.07,2.56,1.52.25,2.88-.47,3.59-1.75m-27.46,71.76c-1.4.17-2.53,1.11-2.41,1.89.37,1.97,1.94,3,3.96,3.17,1.01.07,2.21-.44,1.97-1.38-.47-1.79-1.99-2.93-3.52-3.69m-38.1-271.71c-1.67.52-2.31,1.92-2.34,3.39,0,1.2,1.06,2.34,2.24,2.19,1.57-.2,2.68-1.45,2.63-3.07-.02-1.43-1.13-2.16-2.53-2.51m-67.73,512.18c1.5-.66,2.48-1.45,2.43-3.1-.03-1.79-1.4-2.43-2.68-2.36-1.11.05-2.46.76-2.31,2.43.12,1.7,1.45,2.26,2.56,3.02m61.97-564c.02-2.16-2.61-3.93-3.29-2.65-1.06,1.84-1.18,4.28-1.55,6.49-.07.42.49.07.76.02,2.41-.39,1.97-3.54,4.08-3.86m-74.93,312.47c1.01-.32,2.8-.02,2.83-2.21,0-1.62-1.01-2.09-2.48-2.14-1.75-.02-2.98.71-3.17,2.38-.2,1.7,1.11,2.02,2.83,1.97m136.73,10.5c1.43.07,2.48-.3,2.56-1.99.07-1.84-.98-2.34-2.61-2.34-1.57.02-2.95.71-2.9,2.19.02,1.4,1.33,2.29,2.95,2.14m-365.1-72.96c-1.65.25-2.38,1.82-2.48,2.83-.1,1.28,1.33,2.63,2.58,2.75,1.23.12,2.14-1.11,2.21-2.56.07-1.65-.98-2.41-2.31-3.02m156.07,43.46c-1.72-.47-2.56.71-2.63,1.92-.1,1.77,1.6,2.73,2.95,2.75,1.23.02,2.56-1.3,2.51-2.7-.02-1.47-1.16-2.38-2.83-1.97m303.94-389.39c-1.16-.93-1.38-3.22-3.47-3.37-1.2-.1-1.7,1.13-1.48,2.24.39,1.79,1.48,3.12,3.37,3.29,1.01.07,1.57-.79,1.57-2.16m226.21,584.62c-1.01.66-2.19,1.18-2.33,2.88-.12,1.62,1.2,2.16,2.11,2.06,1.23-.1,2.9-.52,2.9-2.29,0-1.4-1.13-2.11-2.68-2.65m-818.23-205.36c-.39-1.65-1.77-2.31-3.02-2.29-1.03,0-2.14,1.08-1.97,2.36.17,1.5,1.2,2.38,2.8,2.46,1.79.05,1.65-1.5,2.19-2.53m-79.38,250.4c.61-1.57,3.07-1.2,3.05-3.47,0-1.6-1.23-2.26-2.14-2.09-1.57.32-2.73,1.77-3.34,3.2-.15.37,1.47,1.45,2.43,2.36m544.7-471.47c-.76-1.11-.81-2.97-2.71-2.65-1.18.2-2.53.64-2.26,2.38.25,1.52,1.11,2.61,2.7,2.51,1.23-.07,1.92-1.08,2.26-2.24m-109.59,300.65c1.72.12,3.07-.74,3.07-2.19.02-1.6-1.79-1.97-3.07-2.06-1.23-.1-2.31.96-2.31,2.11.02,1.2.69,2.48,2.31,2.14m234.66,50.52c.98-.47,2.24-1.06,2.26-2.46.02-1.5-1.23-2.26-2.51-2.63-1.57-.47-2.21.96-2.21,1.92-.02,1.28.57,2.65,2.46,3.17m48.43-442.73c-.03,1.2-.05,2.65,1.45,2.68,1.87,0,2.43-1.4,2.19-3.15-.15-1.03.44-2.48-1.52-2.41-1.99.07-2.16,1.38-2.11,2.88m-221.93,287.35c-.17-1.11-.27-2.53-1.77-2.43-1.3.05-1.94,1.28-1.89,2.51.05,1.08.71,2.02,1.94,2.06,1.4.07,1.67-.93,1.72-2.14m380.98-130.85c-.27-1.55-1.23-1.87-2.56-1.84-1.5.02-2.48.47-2.51,2.16,0,1.82,1.4,2.11,2.58,2.09,1.4-.02,2.21-1.11,2.48-2.41m-788.17,124.76c.2-2.04-1.2-2.34-2.36-2.53-1.23-.2-1.89.61-1.92,1.87-.07,1.65.84,2.75,2.29,2.97,1.82.27,1.52-1.57,1.99-2.31m282.11,239.31c-.27-1.25-.89-2.41-2.31-2.53-1.65-.12-2.58,1.01-2.7,2.51-.12,1.45.93,1.92,2.26,1.94,1.38.05,2.53-.17,2.75-1.92m373.58-206.49c-1.01.2-3.07-.84-3.1.74-.03,1.84,2.24,1.2,3.59,1.4,1.01.17,2.51.42,2.53-.88.05-2.14-1.84-.91-3.02-1.25m154.06,213.87c-1.06.54-2.16,1.18-2.09,2.46.07,1.18.34,2.53,2.09,2.56,1.79.02,2.02-1.35,2.09-2.53.07-1.25-1.01-1.92-2.09-2.48m-347.08-184.81c-1.03.27-2.14,1.01-2.04,2.21.07.98.54,2.51,1.87,2.61,1.35.1,2.51-.88,2.63-2.21.15-1.43-1.11-2.09-2.46-2.61m-40.07,23.6c-.57.81-2.16.49-2.09,2.21.05,1.65.96,2.68,2.38,2.83.84.1,2.02-.39,2.11-1.79.1-1.67-.91-2.46-2.41-3.24m71.61-288.99c-.1-1.55-.93-2.61-2.43-2.8-1.23-.17-1.82.66-1.94,1.89-.17,1.84,1.18,2.51,2.46,2.73.84.12,2.09-.34,1.92-1.82m-298.95,388.75c-.22,1.75-.93,3.71,1.13,3.91,2.02.22.37-2.38,1.62-3.07-.89-1.11.2-3.49-1.6-3.61-2.34-.17-.74,2.09-1.16,2.78m391.3-3.66c-1.08.2-1.57,1.06-1.55,2.38,0,1.23.12,2.38,1.6,2.58,1.72.22,2.31-1.3,2.38-2.36.07-1.08-.54-2.46-2.43-2.61m45.31-518.57c-.59-.66-1.01-1.75-2.38-1.75-1.3-.02-2.46.32-2.43,1.79.05,1.4,1.03,2.34,2.43,2.48,1.5.15,1.82-1.16,2.38-2.53m-668.99,624.3c-.52-1.52-1.72-1.52-2.88-1.43-1.13.07-2.73.34-2.61,1.57.15,1.38,1.5,2.34,3.15,2.04,1.25-.22,1.94-1.08,2.34-2.19m466.87-210.65c1.13-.05,2.19-.54,1.94-1.55-.3-1.2-.62-2.95-2.51-2.75-1.2.15-2.34,1.11-2.14,2.26.2,1.2,1.3,2.14,2.71,2.04m-221.42,97.45c-.69-.74.02-2.51-1.89-2.36-1.4.1-2.06.61-2.16,2.06-.12,1.65.96,2.38,2.21,2.58,1.57.22,1.38-1.4,1.84-2.29m469.11,33.53c-.03,1.7,1.18,2.29,2.19,2.34,1.38.07,1.97-1.01,2.11-2.41.15-1.47-1.08-1.89-1.84-2.02-1.4-.17-2.06,1.03-2.46,2.09m-136.61-42.04c1.11-.47,1.62-1.5,1.52-2.63-.07-.88-.35-2.48-1.5-2.19-1.2.27-2.65,1.35-2.6,2.78.02,1.08,1.18,1.89,2.58,2.04m119.91-17.65c-.62-.79-1.08-2.11-2.63-2.02-1.33.07-1.55,1.35-1.65,2.29-.1,1.43.84,2.06,2.24,2.02,1.23-.07,1.92-.69,2.04-2.29m-677.52-115.32c.02-.84-.05-2.21-1.55-2.14-1.06.05-1.99,1.01-2.06,2.34-.07,1.25.25,2.38,1.72,2.43,1.5.07,1.92-.96,1.89-2.63m761.05,51.6c-.15-.84-.62-1.2-1.25-1.06-1.57.34-2.73,1.33-3.22,2.85-.22.69.59,1.03,1.16.84,1.45-.47,2.73-1.2,3.32-2.63m-390.13-11.04c-.22-1.43-1.62-1.94-2.46-1.97-.86,0-2.53.49-2.38,1.92.12,1.11,1.06,2.06,2.34,2.11,1.33.02,1.89-1.08,2.51-2.06m-62.05,195.38c-.74.54-1.77.98-1.77,2.34,0,1.2,1.01,2.24,1.79,2.19,1.06-.05,2.53-.54,2.53-2.19.03-1.5-1.25-1.72-2.56-2.34m-.71-536.51c.37-.02,1.25-.57,1.13-1.87-.12-1.25-1.06-2.34-2.24-2.21-1.06.12-2.06,1.13-1.97,2.48.1,1.3,1.06,1.7,3.07,1.6m217.29,580.47c-1.13.05-1.94.49-1.99,1.6-.02,1.5.96,2.36,2.29,2.63,1.06.22,1.84-.44,1.92-1.52.07-1.52-1.06-2.16-2.21-2.7m-322.94-100.67c1.08-.17,1.82-.71,1.87-1.99.05-1.18-.25-2.16-1.52-2.36-1.72-.25-2.33,1.18-2.48,2.34-.15,1.03.98,1.67,2.14,2.02m69.03-218.59c.17-1.57-1.11-1.97-2.11-2.04-1.03-.05-2.06.96-2.06,1.92.02,1.33,1.13,2.21,2.51,2.21,1.25.02,1.7-.91,1.67-2.09m-246,284.22c-1.23.1-1.87.71-1.89,1.99-.02,1.16.3,2.11,1.57,2.26,1.45.17,2.04-.74,2.06-2.11.02-1.2-.52-1.94-1.74-2.14m420.46-236.04c.27-1.23-1.03-1.67-2.02-1.92-1.2-.34-2.19.88-2.16,1.67.05,1.11.57,2.53,2.24,2.51,1.23,0,1.82-.71,1.94-2.26m-144.59,59c1.18-.25,1.6-1.01,1.65-2.19.05-1.62-1.25-1.94-2.21-1.94-1.23-.02-1.52,1.16-1.43,2.26.07,1.2.76,1.82,1.99,1.87m470.31-229.68c1.38-.02,2.39-.47,2.21-1.55-.17-1.01-.54-2.29-2.19-2.09-1.23.15-2.02.69-1.92,1.97.12,1.3,1.06,1.7,1.89,1.67m-904.47,343.69c-1.5,0-2.97-.02-4.45.02-.54,0-1.23-.12-1.38.66-.15.66.42,1.03.84,1.38,2.36,1.77,3.54-.37,4.99-2.06m1034.24,9.83c.32-1.35-1.03-1.82-1.84-1.82s-1.99.49-1.84,1.97c.1,1.25.59,2.02,1.84,2.04,1.28,0,1.79-.81,1.84-2.19m-180.21-117.95c-.05-.66-.32-1.3-.76-1.08-1.52.79-1.84,2.51-2.56,3.91-.22.49.49.84.93.61,1.45-.74,1.94-2.16,2.39-3.44m313.35-65.34c-.81.84-2.31,1.3-2.04,2.53.2.81,1.43,1.92,2.21,1.94.76.02,1.82-1.01,1.72-2.26-.1-1.16-.93-1.72-1.89-2.21m-805.08-60.28c-.29-1.06-.88-2.06-1.92-2.06-1.18,0-2.14,1.01-2.11,2.21,0,.91.37,1.92,1.79,1.97,1.6.05,1.62-1.23,2.24-2.11m666.26-128.32c-.52-.76-.39-1.97-1.84-2.09-1.6-.17-2.04.98-2.26,1.99-.22,1.06.71,1.55,1.74,1.62,1.16.07,2.04-.22,2.36-1.52m-788.14,145.01c-1.01-.25-1.47.34-1.4,1.5.05.98-.22,2.38,1.13,2.41.98.02,2.46-.47,2.31-1.92-.07-.84-.39-2.09-2.04-1.99m472.48,195.43c.89-.25,1.84-.91,1.82-1.92-.05-.93-.66-1.92-2.06-1.7-1.01.17-1.94.59-1.74,1.62.17.81.34,2.14,1.99,1.99m-46.09,133.95c.07-.47-.34-1.06-1.57-.98-1.2.07-1.99.57-2.02,1.79-.02,1.06.59,1.72,1.65,1.77,1.28.05,1.82-.74,1.94-2.58m166.57-114.43c-1.35.02-2.19.49-2.24,1.75-.05,1.4,1.25,1.62,2.09,1.72,1.06.15,1.45-.81,1.5-1.84.07-1.11-.3-1.77-1.35-1.62m-2.51,25.22c-1.06.07-1.74.59-1.82,1.67-.07,1.08.47,1.79,1.55,1.89,1.23.1,1.99-.54,1.99-1.79,0-1.08-.69-1.62-1.72-1.77m326.19-271.71c-1.06.1-1.79.59-1.84,1.67-.07,1.28.66,1.94,1.92,1.89,1.06-.07,1.65-.76,1.65-1.82-.02-1.08-.66-1.65-1.72-1.75m-649.35,110.72c.81-.17,1.67-.66,1.43-1.55-.22-.84-.37-2.21-1.89-1.99-1.08.17-1.62.89-1.5,1.97.12,1.08.84,1.6,1.97,1.57m167.46,37.96c-.15-.98-.71-1.67-1.79-1.6-1.2.05-1.87.79-1.77,2.02.12,1.18,1.23,1.38,2.02,1.45,1.03.1,1.5-.79,1.55-1.87m-67.21-121.36c-.52-.76-.39-2.09-1.79-2.09-1.06.02-1.7.64-1.75,1.7-.07,1.06.52,1.72,1.55,1.84,1.06.15,1.72-.39,1.99-1.45m214.19,153.22c-.1-.93-.44-1.94-1.52-1.82-.98.15-1.94.98-1.97,2.06-.02,1.08.93,1.4,1.94,1.45,1.2.05,1.67-.52,1.55-1.7m-499.25-344.6c-.39-.84-.93-1.77-1.87-1.77-1.03.02-1.97.79-1.82,1.97.12.91.64,1.55,1.87,1.55,1.33,0,1.3-1.06,1.82-1.75m276.73,521.35c-.25-.69-.66-1.7-1.75-1.4-.69.2-1.92.34-1.89,1.62.05,1.25.76,1.87,1.99,1.82,1.06-.07,1.6-.74,1.65-2.04"/><path class="cls-3" d="m981.35,1002.05c0,17.92-14.53,32.45-32.45,32.45s-32.45-14.53-32.45-32.45,14.53-32.45,32.45-32.45,32.45,14.53,32.45,32.45"/><path class="cls-1" d="m957.96,1096.28c-1.82,1.5-3.32,2.51-3.59,4.65-.17,1.5-1.45,2.41-2.73,2.93-3.54,1.45-7.1,2.19-11.01,1.11-1.52-.42-3.76-.84-5.04,1.5-2.61,4.72-10.3,7.03-15.71,5.68-2.14-.54-5.16-1.03-7.15.69-2.21,1.92-4.67,1.92-7.25,2.24-4.01.52-8.16-.39-12.07,1.3-1.28.57-2.36.34-1.82-1.6.22-.76.02-1.65.1-2.46.2-2.06-1.06-3.17-2.8-2.95-1.79.25-2.43,1.79-1.99,3.69.59,2.48-2.19,5.58-4.6,4.77-3.71-1.25-7.35-2.31-11.26-1.82-3.98.52-7.5-2.02-11.48-1.55-5.23.61-10.35-.71-15.54-1.11-4.79-.34-8.36-4.62-12.59-5.38-8.01-1.47-10.2-9.88-16.94-12.39-.17-.05-.39-.37-.39-.54.03-2.38-1.72-3-3.52-3.61-1.16-.42-1.97-1.18-2.16-2.46-.44-2.97-2.8-4.72-4.92-5.92-4.35-2.48-5.48-6.74-6.93-10.77-1.67-4.74-3.17-9.61-6.93-13.05-1.97-1.79-3.44-3.69-3.42-6.07.05-7.1-3.29-13.84-1.79-21.17.91-4.45-2.34-8.51-2.34-13.2,0-2.97.25-4.84,2.73-6.19.84-.44,1.45-.84.93-1.82-.37-.69-.54-1.82-1.47-1.77-.86.05-1.75.57-2.56,1.01-14.77,8.06-29.33,16.5-44.3,24.29-14.11,7.35-27.85,15.46-42.46,21.88-7.13,3.12-13.99,6.61-20.55,10.77-1.92,1.23-3.88,3.17-5.92,3.27-3.49.2-5.85,2.38-8.75,3.56-2.04.81-4.57,1.62-4.13,4.79.07.52-.37.71-.79.98-3.64,2.38-7.3,4.72-10.82,7.25-1.03.76-1.92.44-2.9.47-2.78.02-5.24.27-7.18,3-2.16,2.97-3.86,6.47-7.55,8.28-2.02.98-4.4,1.72-5.48,4.28-1.82,4.23-6.22,7.6-3.22,13.25.98,1.82.27,4.7,1.92,6.39,2.26,2.36,2.58,5.02,2.31,8.01-.39,4.06,2.31,7.33,2.93,11.14.05.29.34.76.57.81,2.36.34,4.18,2.21,5.24,3.66,2.7,3.79,5.73,6.93,9.51,9.69,1.57,1.13,2.68,3.42,4.3,4.89,2.24,2.06,3.64,4.6,5.06,7.28,2.46,4.52,6.47,7.87,10.08,11.5.39.37,1.03.57,1.6.71,2.73.66,4.69,2.31,5.83,4.87.32.69.79,1.33,1.38,1.48,5.66,1.38,8.83,6.34,13.35,9.37,3.37,2.26,6.42,4.42,10.5,4.84.91.1,2.06.22,2.61.81,3.12,3.37,8.14,2.73,11.45,5.63.81.71,1.84,1.33,3.12,1.38,4.82.15,9.19,1.77,13.45,3.93,3.22,1.65,6.54,2.75,10.2,3.47,2.9.57,6.17.66,9.02,2.73,2.68,1.97,6.07,3.56,9.49,3.66,3.34.12,6.44,1.11,9.59,1.82,1.4.32,2.43.39,3.86.15,4.35-.81,8.95-.05,13.22-1.7.15-.07.44.12.59.27,2.6,2.58,5.58.76,7.99.1,4.72-1.33,9.02-2.19,13.47.74,1.01.66,2.8.86,3.93.44,3.42-1.25,7.03-1.2,10.5-2.02,2.21-.52,5.19-3.49,7.47.27.02.07.49.02.62-.12,1.87-2.02,4.69-2.21,6.93-3.59,4.08-2.51,8.83-3.02,13.55-3.76,2.7-.39,5.75,0,8.46-2.48,2.33-2.19,5.53-4.42,9.19-4.45,1.87,0,3.17-.49,4.72-1.57,2.93-2.09,6.22-4.52,9.71-4.65,9.22-.37,13.69-7.45,19.25-12.81,2.56-2.48,4.62-4.87,8.43-5.06,1.01-.05,1.74-1.16.86.84-.44.98.44,2.63,1.72,3.37.47.27,1.16.05,1.55-.47.93-1.18.86-2.31-.12-3.44-.35-.37-1.16-.81-.49-1.38,2.88-2.51,5.04-5.68,8.19-7.99,2.83-2.06,6.29-5.33,8.8-5.01,5.36.74,3.74-4.82,6.69-5.65.2-.07.37-.29.49-.49,2.26-3.64,7.33-4.11,9.14-8.87.76-1.99,1.99-3.91,2.19-6.22.2-2.63,1.84-4.89,1.65-7.67-.05-.96.81-2.11,1.52-2.97,2.51-3.12,4.47-6.34,4.6-10.57.12-3.59.93-7.03,4.33-9.24,3.29-2.14,3.81-5.04,1.99-8.43-.1-.15.08-.42.12-.66,2.02-.17,4.08.44,6.07-.61,1.67-.89,1.65-2.26,1.33-3.59-.37-1.57-1.55-1.75-3-1.08-1.03.49-2.19.39-3.25,0-.05-2.34,3.54-1.08,3.25-3.39-.25-1.75-3.12-1.5-2.73-4.06"/><path class="cls-3" d="m258.16,1562.5h-40.1c-6,0-10.37-5.71-10.37-12.77v-215.31c0-7.05,4.37-12.77,10.37-12.77h2.46c5.73,0,10.37,5.71,10.37,12.77v204.23h27.28c5.19,0,9.55,5.37,9.55,11.75,0,6.72-4.36,12.09-9.55,12.09Z"/><path class="cls-3" d="m326.1,1564.17h-3.82c-19.37,0-34.92-19.14-34.92-43v-156.53c0-23.85,15.55-43,34.92-43h3.82c19.37,0,34.92,19.15,34.92,43v156.53c0,23.85-15.55,43-34.92,43Zm11.73-201.88c0-9.4-6.27-16.8-13.64-16.8s-13.64,7.39-13.64,16.8v161.23c0,9.4,6,16.79,13.64,16.79s13.64-7.39,13.64-16.79v-161.23Z"/><path class="cls-3" d="m430.35,1564.17h-3.82c-19.37,0-34.92-19.14-34.92-43v-156.53c0-23.85,15.55-43,34.92-43h3.82c19.37,0,34.92,19.15,34.92,43v156.53c0,23.85-15.55,43-34.92,43Zm11.73-201.88c0-9.4-6.27-16.8-13.64-16.8s-13.64,7.39-13.64,16.8v161.23c0,9.4,6,16.79,13.64,16.79s13.64-7.39,13.64-16.79v-161.23Z"/><path class="cls-3" d="m571.4,1550.4c0,7.39-4.64,13.77-10.91,13.77-4.64,0-8.73-3.02-10.09-8.39l-31.92-103.8-.27,99.43c0,7.05-4.64,12.76-10.37,12.76h-1.91c-6,0-10.37-5.71-10.37-12.76l.27-111.52-.27-105.47c0-7.05,4.37-12.77,10.37-12.77h1.91c5.73,0,10.37,5.71,10.37,12.77v99.09l32.47-105.14c2.18-4.7,4.91-6.72,8.73-6.72,6,0,10.09,5.71,10.09,12.09,0,1.68-.27,2.69-.82,4.37l-31.11,101.44,33.01,106.15c.55,1.68.82,3.36.82,4.7Z"/><path class="cls-3" d="m1204.69,1564.17h-5.46c-18.82,0-34.38-19.14-34.38-42.32v-187.43c0-7.05,4.64-12.77,10.37-12.77h2.45c6,0,10.37,5.71,10.37,12.77v189.11c0,9.4,6.27,16.79,13.64,16.79s13.91-7.39,13.91-16.79v-189.11c0-7.05,4.64-12.77,10.37-12.77h2.45c6,0,10.64,5.71,10.64,12.77v187.43c0,23.18-15.55,42.32-34.38,42.32Z"/><path class="cls-3" d="m1315.19,1467.43h-18.82v83.98c0,7.05-4.37,12.76-10.09,12.76h-2.45c-6,0-10.64-5.71-10.64-12.76v-215.32c0-7.05,4.37-12.77,10.37-12.77h31.92c16.09,0,29.46,16.13,29.46,35.94v72.22c0,19.82-13.64,35.94-29.74,35.94Zm6.55-106.15c0-8.06-5.18-14.1-11.73-14.1h-13.64v101.11h11.73c7.37,0,13.64-7.39,13.64-16.8v-70.2Z"/><path class="cls-2" d="m1129.45,611.39c-6.98-4.13-8.36-13.2-16.84-15.68-4.08-1.2-3.81-7.2.1-9.61,3-1.84,9.14-.74,11.43,1.99,1.99,2.38,3.15,5.16,6.39,6.96,2.41,1.3,4.25,4.7,6.59,6.98,1.62-1.18.86-2.68.76-3.93-.59-7.35-1.28-14.65-.2-22.03.42-3-1.35-5.8-.81-8.9.59-3.29,2.19-5.21,5.26-5.63,3.15-.42,5.51,1.13,6.34,4.08,1.89,6.78,2.11,13.72,1.38,20.62-.2,1.94-.05,3.54,1.03,5.09.37-.17.88-.27,1.06-.54,3.64-5.73,8.73-10.2,13.13-15.24,1.89-2.19,7.65-3.22,10.03-1.87,3.02,1.72,3.52,5.92.52,8.82-2.85,2.78-5.31,6.07-8.31,8.55-3.02,2.53-3.86,5.33-4.28,9.12,2.9.52,5.88-.22,8.75.61,3.47,1.01,5.85,3.27,5.61,5.95-.32,3.66-3.15,6.44-6.98,5.7-5.26-.98-8.87,3.17-13.57,3.1-.37,1.79.59,2.61,1.55,3.29,3.32,2.36,7.84,2.88,10.1,6.93.56,1.01,1.55-.91,2.48-.74,3.42.69,8.8,6.47,9.34,9.98.66,4.3-3.29,7.82-7.69,6.15-5.36-2.04-11.09-3.52-15.63-7.37-.93-.76-1.99-1.67-3.2-1.01-1.28.69-.79,1.89-.59,3.15,1.52,10.37,1.2,20.87,2.16,31.32.49,5.24,1.06,11.68-3.79,16.4-2.38,2.34-5.55,3.54-8.53,2.19-2.36-1.06-3.86-3.86-3.34-7.03,1.4-8.31.59-16.64.44-24.95-.05-2.61,1.5-5.51-.64-8.26-1.89.39-2.29,2.04-3.07,3.32-3.02,4.97-6.78,9.37-9.54,14.63-2.24,4.3-5.9,8.46-11.09,10.37-2.95,1.11-5.73.74-7.45-1.52-1.77-2.34-1.28-4.57-.1-7.25,2.92-6.59,8.09-11.48,12.07-17.26,4.72-6.86,9.07-13.91,12.88-22.98-8.5,5.33-17.33,4.52-25.3,7.2-1.06.37-1.99-.15-2.9,0-2.43.34-.81-3.2-2.65-2.78-1.5.34-.81,2.7-2.04,3.42-1.57.88-2.73-.42-3.49-1.5-2.68-3.76.96-11.85,5.61-12.14,6.02-.37,11.65-2.58,17.7-2.97,3-.2,6.29-1.33,9.32-4.72m15.09,7.99c.93.12,1.16-.37,1.01-1.01-.17-.76-.44-1.55-1.45-1.45-.59.05-1.3.54-1.11,1.01.3.64,1.06,1.03,1.55,1.45"/><path class="cls-2" d="m995.65,1470.99c-3.88,2.53-6.61,5.68-8.43,9.46-1.65,3.39-5.11,4.94-7.25,7.82-.89,1.16-2.39,1.11-3.88.49-4.74-1.99-6.24-9.1-2.78-12.83,4.4-4.77,8.53-9.76,12.22-15.22,2.26-3.39,4.92-6.54,6.91-10.47-2.29-1.55-4.67-.76-6.56.3-6.2,3.39-13.03,3.05-19.67,3.83-2.36.3-4.72.12-7.13.74-4.13,1.03-7.35-1.89-7.96-6.71-.49-4.03,1.97-7.5,6.15-6.81,7.69,1.28,14.5-1.97,21.71-3.1.96-.15,1.94-.47,2.85-.86,1.84-.84,2.24-2.16,1.13-3.88-.32-.49-.64-1.08-1.11-1.38-5.14-3.44-9.66-7.62-14.65-11.21-1.74-1.25-3.74-1.6-2.31-4.28.17-.34.22-.79.2-1.18-.12-1.55-2.34-3.39.42-4.55,2.73-1.16,5.46-2.58,8.43-.22,4.38,3.47,8.92,6.76,13.42,10.08,2.85,2.09,5.78,4.11,9.27,6.61.03-4.33,1.52-7.94.1-12.02-1.11-3.17,1.35-6.54.39-9.96-.29-1.13-.05-2.41-.32-3.54-1.2-4.89.2-8.14,3.86-8.8,4.55-.79,9.14,2.61,9.32,7.18.2,4.77.17,9.59-.02,14.38-.08,2.06.37,3.83,1.11,5.97,6.07-4.18,11.26-8.58,15.51-14.09,2.63-3.39,9.32-4.55,13.03-2.48,3,1.65,3,6.91-.54,9.07-5.9,3.59-9.83,9.17-15.07,13.64,3.69-.32,7.32-.47,10.89-.02,4.94.61,7.18,2.95,6.81,6.69-.29,3.34-2.16,5.65-5.38,4.97-6.88-1.45-12.86,2.04-19.3,2.7-1.35.15-2.56,1.7-4.25,2.88,4.28,2.58,6.51,6.64,9.69,9.86,2.11,2.11,3.98,4.97,6.81,5.7,4.84,1.25,5.29,5.31,6.05,8.73,1.06,4.72-3.07,7.89-7.74,6.69-1.4-.37-2.75-.76-3.69-1.87-2.93-3.54-8.01-4.4-10.45-8.55-.54-.91-1.77-1.28-2.66-.84-1.4.66-.89,2.02-.52,3.12.25.76,1.16,1.79.93,2.09-3.76,5.24,2.85,11.58-1.82,16.67-.61.69-.05,1.7.62,2.06,3.96,2.14,2.36,5.26,1.43,8.11-1.11,3.32-3.76,4.45-7.1,4.33-3.59-.12-5.73-2.41-6.37-6.61-.93-6.29-2.16-12.56-.86-18.95.25-1.18-.22-2.36-1.4-3.74"/><path class="cls-2" d="m743.7,1694.55c.29-1.16.2-2.75,1.3-3.22,4.7-2.09,5.97-7.99,11.11-9.69,1.08-.34,1.92-2.58,2.19-4.08.57-3.05,1.99-5.09,4.82-6.39,1.01-.47,1.77-1.57,2.48-2.53,1.38-1.79,2.11-3.47-1.08-4.23-.89-.22-.02-1.97-1.25-2.34-1.77,5.43-1.79,5.24-8.31,6.02-3.32.39-6.91.91-9.71,2.56-3.86,2.26-8.06,1.89-12.07,2.8-2.7.61-5.83-.49-7.2-3.1-.98-1.87-.74-4.74,1.11-6.15,2.63-1.99,5.04-4.72,8.65-4.99,2.68-.2,5.09-1.03,7.47-2.09,4.97-2.19,10.35-2.58,15.56-3.56,1.38-.27,2.78-.1,4.06-.93,1.87-1.2,2.19-2.97.44-4.33-1.25-.98-2.68-1.79-4.15-2.36-6.93-2.75-12.46-7.67-18.46-11.8-4.25-2.93-5.24-6.24-3.66-9.02,1.38-2.46,4.82-2.51,9.61-1.11,3.05.91,5.36,2.38,7.4,4.7,3.32,3.74,8.04,5.06,12.44,6.91,1.57.64,2.24-.1,2.65-1.4.17-.57.44-1.18.37-1.75-.84-7.33.81-14.7-.44-22.03-1.23-7.08.98-9.78,8.56-9.96.3,1.99-3.2,2.75-1.89,4.89,1.3,2.11,3.49,1.11,5.56,1.01.1,9.96-.49,19.57,1.57,29.13,1.77-.32,2.75-1.6,3.29-3.05,1.23-3.27,3.54-5.83,5.68-8.43,1.3-1.57,2.56-3.02,3.05-5.06.69-3.02,2.68-4.33,5.75-3.93,2.88.37,5.73,2.68,5.56,5.43-.17,2.78-.02,5.75-2.38,8.24-3.15,3.29-4.72,7.82-8.01,11.11-.47.49-.47,1.45-.69,2.31,2.24,1.2,4.42.39,6.51.52,2.43.12,4.77.29,6.15,2.93,1.47,2.8.12,4.87-1.2,7.2-.93,1.65-2.83,2.21-3.76,4.23,3.02,2.16,5.14,5.29,7.69,7.99,2.63,2.78,2.63,5.56.1,8.43-2.73,3.1-6.12,3.86-9,1.43-4.84-4.08-9.96-7.82-15.09-11.53-.64-.47-1.25-1.03-1.97-1.38-1.65-.79-2.38.37-2.16,1.65.39,2.11.12,4.72,1.11,6.24,2.04,3.22,1.75,5.92.27,9.02-.3.64-.42,1.7-.1,2.31,3.59,7.15,1.47,15.34,4.25,22.69,1.18,3.15-.84,5.9-3.76,7.37-3.05,1.55-5.24-.22-6.76-2.24-3.59-4.82-6.59-9.98-5.53-16.42.2-1.2.39-2.34-.07-3.54-.74-1.84-1.92-2.97-3.47-1.13-3.96,4.7-9,8.38-12.49,13.5-1.7,2.48-3.74,4.65-6.69,5.78-3.74,1.43-5.48,1.03-8.11-1.45-2.56-2.41-1.25-4.74-.32-7.13.44-1.08,1.33-1.97,2.02-2.95-.1,1.03.17,1.89,1.01,2.58,1.35,1.08,2.73.84,3.54-.42.86-1.35.27-2.73-1.23-3.29-.66-.27-1.52,0-2.29.02m34.44-30.31c-.07-1.99-2.61-4.72-4.25-4.45-1.79.27-3.44,1.13-3.54,3.29-.12,2.02,2.16,4.3,4.15,4.18,1.97-.12,3.25-1.18,3.64-3.02m-20.7-7.89c-.02-1.35-.69-2.16-2.11-2.34-1.33-.15-2.53.27-2.83,1.6-.29,1.23.35,2.48,1.7,2.68,1.4.2,2.83-.1,3.24-1.94m-32.01-17.01c.76-.05,1.84-.32,1.99-1.45.2-1.57-.98-1.99-2.26-2.02-1.13-.02-2.04.66-2.04,1.72s.89,1.72,2.31,1.75"/><path class="cls-2" d="m852.93,1408.43c-1.67-1.7-.86-5.14-3.74-4.57-3.05.59-2.34,3.66-2.29,7.03-6.47-5.51-6.98-14.95-15.63-17.77.22,5.26,1.28,10.15-.05,15-.22.76.52,1.87.98,2.73,1.38,2.58,1.72,5.24,1.33,8.14-.34,2.73-.2,5.43.69,8.23,1.16,3.84.47,7.99.02,11.97-.29,2.75-2.24,4.87-4.69,5.73-2.83.98-5.43-.05-7.37-2.61-1.99-2.63-2.98-5.36-3.42-8.73-.86-6.51-.47-13.1-1.45-19.59-.39-2.75-1.4-5.43.37-8.26-2.9,1.55-5.04,3.61-5.83,6.34-1.08,3.76-4.28,5.65-6.49,8.38-2.19,2.73-5.63,2.43-8.51-.07-3.15-2.73-3.91-6.07-1.67-8.82,1.3-1.62,2.48-3.1,2.21-5.31-.12-1.03.12-2.11,1.08-2.65,5.33-2.9,6.88-8.46,9.88-13.62h-7.84c-4.25-.02-7.47-2.75-7.74-6.61-.22-3.15,3.05-6.56,6.88-6.59,3.49-.05,6.34-2.48,9.66-1.92.69-.76.42-1.5.02-1.77-3.49-2.56-7.28-4.7-8.97-9.07-.34-.93-1.7-.71-2.7-.81-2.53-.25-4.01-1.79-4.25-4.28-.27-2.51.34-4.87,2.58-6.34,3.12-2.09,8.6-1.65,10.91,1.43,2.02,2.65,5.02,3.86,7.57,6.98,1.25-4.6,2.75-8.38,1.08-12.49-.81-1.94-.98-3.86-.22-5.83.37-.98.49-1.89-.2-2.83-2.58-3.52-.05-6.96.32-10.4.27-2.36,3.69-3.91,6.24-3.49,4.55.71,7.38,4.74,6.91,9.44-.66,6.51.03,13.05.35,19.59.1,2.16-1.28,4.23-.15,6.46.84,1.65,1.97,2.31,3.12.86,2.09-2.7,5.14-4.47,6.83-7.5,1.11-1.99,2.83-3.42,4.72-4.52,1.55-.88,3.42-1.84,5.04-.39,1.79,1.6,3.56,3.52,2.51,6.27-1.5,3.86-3.2,7.65-4.87,11.65,2.87,1.99,6.24,2.09,9.66,2.19,2.9.07,5.09,1.6,5.93,4.25.81,2.61.12,5.14-2.26,6.96-1.03.76-2.14,1.5-3.29,1.03-4.23-1.77-8.04.81-12.83.37,5.38,5.51,8.14,11.78,11.75,17.45,1.97,3.07,1.35,4.6-2.19,8.36m-15.19-44.17c-.05,1.57.71,2.61,2.26,2.95,1.13.27,2.16-.27,2.19-1.33.05-1.77-1.08-2.93-2.88-3.12-.91-.1-1.3.69-1.57,1.5m-39.16-6.02c-.12-1.01-.84-1.3-1.7-1.2-.81.1-1.6.54-1.47,1.47.12,1.11.91,1.72,2.09,1.52.96-.2,1.11-.98,1.08-1.79m40.93,20.65c-.86.1-1.4.59-1.4,1.45s.54,1.5,1.35,1.52c.86.05,1.4-.66,1.43-1.47.02-.81-.52-1.35-1.38-1.5"/><path class="cls-2" d="m360.17,778.72c-1.11,4.79-3.93,8.19-5.97,12-1.89,3.52-4.94,5.11-8.95,4.65-3.59-.42-6.24-4.08-4.72-7.28,1.16-2.43,1.5-4.94,2.21-7.4.22-.76.32-1.7.84-2.24,5.73-6.02,7.92-14.16,13.15-21.58-4.72,1.65-9.02,1.16-12.96,2.85-2.11.91-4.3.69-6.51.61-2.98-.1-4.92-1.5-5.61-4.43-.64-2.68.69-5.73,3.56-6.88,3.49-1.4,6.86-3.37,10.84-3.2,1.62.05,3.27.07,4.65-1.72-2.93-4.03-7.57-6.02-11.48-8.85-1.45-1.03-3.17-1.77-4.38-3.1-1.6-1.75-1.99-3.93-1.23-6.15.86-2.48,3.02-3.27,5.31-3.02,4.01.42,7.62,1.92,10.82,4.43,2.75,2.14,4.72,5.48,8.78,5.97,1.11-4.82.91-9.51.25-14.18-.32-2.26.1-4.4.56-6.54.84-4.01,2.34-5.56,5.09-5.51,2.8.02,6.05,2.46,6.15,5.56.12,3.24,1.62,6.22,1.35,9.44-.05.59.15,1.18.32,2.21,2.19-.96,3.39-3.02,4.13-4.55,1.25-2.61,3.32-3.88,5.43-5.31,3.42-2.38,6.24-2.04,8.95.91,2.26,2.48,2.41,5.83-.84,8.43-3.29,2.63-5.01,6.02-6.98,9.46-2.41,4.23-2.33,4.55,2.73,5.26.59.1,1.2.07,1.77.2,4.28.93,7.35,4.33,7.47,8.26.12,3.81-.98,4.89-7.37,6.93,3.12,4.2,6.17,8.26,9.14,12.36,2.75,3.84,1.57,8.48-2.43,9.86-3.27,1.16-9.12-.91-10.82-4.08-2.29-4.3-5.14-7.99-9.73-10.25-1.11,3.17-.2,6.47.66,9.22,1.38,4.3,1.45,8.53,1.52,12.88.07,4.35.02,8.78.81,13.03.96,5.24.24,10.32-.32,15.44-.17,1.77-.42,3.34-.03,5.21.93,4.35-2.83,7.65-7.2,6.86-5.11-.91-8.48-5.7-7.3-10.69,1.92-8.06.15-15.86.2-23.72,0-3.59,1.03-7.47-1.87-11.36"/><path class="cls-2" d="m720.13,362.16c-1.82-2.11-4.11-3-6-4.45-1.97-1.52-3.49-3.05-.2-4.89,1.47-.84,1.79-2.19.29-3.39-1.13-.93-2.58-.76-3.05.47-1.4,3.79-3.44,1.75-4.92.47-2.02-1.75-3.2-4.08-6.22-5.06-2.93-.98-3.1-5.26-.98-7.69,3.39-3.96,5.97-4.42,10.3-1.4,2.98,2.11,7.23,2.85,8.16,7.3.05.29.61.59.98.64,3.52.59,5.04,2.85,5.43,6.19.17,1.6,1.25,2.04,2.56,1.4,1.03-.49,1.4-1.89.71-2.56-5.53-5.53-2.26-11.85-1.65-17.85.37-3.54,3.15-5.19,6.47-4.67,3.1.47,5.75,3.29,4.84,6.46-1.47,5.14,1.11,9.73.64,14.65,2.38.1,2.33-1.75,2.88-2.83,2.68-5.63,7.79-8.87,12.49-12.29,4.72-3.42,8.31-1.89,10.67,2.93.98,2.04.81,3.29-.89,4.57-5.38,4.03-9.54,9.12-12.83,14.92-.69,1.2-2.43,1.5-2.68,3.37,2.09.15,4.15.29,6.81.52-1.13,2.8-3.32,5.51.25,7.79,2.04,1.3,3.64,1.11,5.48-.25,3.22-2.36,1.23-4.87-.32-7.45,3.12-1.08,5.29-.12,7.2,1.25,1.6,1.16,3.07,2.65,2.56,4.99-.52,2.31-1.62,4.11-4.13,4.65-1.16.25-2.41.22-3.52.61-1.11.39-2.29,1.13-1.87,2.63.35,1.23,1.43,2.46,2.63,1.79,4.08-2.21,5.02.52,6.27,3.39,1.01,2.38,2.48,4.55,3.2,7.08.81,3-.37,5.04-2.75,6.69-2.26,1.55-4.25.79-5.95-.86-2.11-2.02-5.46-2.85-6.27-6.17-.05-.2-.1-.52-.22-.54-6.22-1.82-9.42-8.73-16.4-9.93-1.55,4.18-.47,8.48.02,12.24.69,5.29.3,10.62,1.55,15.93,1.11,4.72.44,9.96-.02,14.92-.3,3.34-3.71,6.07-6.49,6.17-2.73.07-5.11-1.89-5.95-5.8-.96-4.45-3.47-8.63-2.31-13.45.76-3.17-2.29-.61-3.07-1.94-.96-1.57-2.65-2.7-4.62-1.75-2.38,1.16-4.13,3.12-5.28,5.56-.74,1.57.29,2.65,1.11,3.79,1.47,2.11,3.32,1.79,5.31.54-1.13,4.89-6.29,10.15-10.5,10.87-2.65.44-5.09-1.13-5.88-3.91-.49-1.77-.79-3.76.3-5.29,2.65-3.79,3.1-8.65,6.32-12.14,2.09-2.24,1.43-5.53,3.22-8.19,2.78-4.08,4.35-8.95,6.47-13.45.25-.54.66-1.06.2-1.6-.54-.64-1.55-1.06-2.14-.59-4.01,3.1-9,.84-13.32,2.65-2.78,1.16-7.15-1.67-8.46-4.42-1.23-2.58.15-5.7,3.42-7.28,5.38-2.56,10.99-4.2,17.06-3.83,1.03.05,1.89-.49,3.1-1.52"/><path class="cls-2" d="m535.27,293.06c1.28-4.06,1.11-7.4.54-10.74-.74-4.2-.59-8.36.44-12.46.29-1.16.71-2.29,1.2-3.37.93-2.16,2.75-2.61,4.92-2.7,2.48-.1,3.84,1.28,4.47,3.27,1.4,4.45,2.14,9.02,1.75,14.45,3.84-4.52,9.07-6.39,12.46-10.64,2.46-3.07,6.02-3.52,8.36-1.47,2.21,1.89,2.63,6.96.52,9.32-1.6,1.77-3.52,3.27-5.38,4.77-2.66,2.11-5.43,3.93-5.63,7.96-.05,1.35-1.55,2.63-2.48,4.13,3.15,1.2,6.05.3,8.95.12,3.44-.2,6.07,2.04,6.39,5.48.29,3.17-2.21,6.61-5.26,7.01-1.77.2-3.56.02-5.43.02-.27,2.02,1.45,1.89,2.51,2.53,4.08,2.46,8.36,4.67,9.22,10.2.52,3.44-.15,6.59-2.34,7.96-2.29,1.43-7.05,1.13-8.78-1.5-2.53-3.86-6.88-4.97-9.59-7.92-1.82.32-1.62,1.45-1.57,2.38.12,4.57-.42,9.32.66,13.67,1.45,5.88,1.28,11.8,1.84,17.67.54,5.6-2.9,9.49-7.67,9.44-4.4-.05-6.1-1.97-6.74-6.51-.96-6.93-1.16-13.89-1.33-20.85-.05-1.06-.56-1.89-1.4-2.58-1.5.15-1.57,1.5-2.11,2.51-3.61,6.66-8.75,12.14-14.04,17.45-2.85,2.83-6.34,2.46-8.92-.39-2.73-2.97-2.95-8.04.1-10.08,2.85-1.92,4.13-4.84,6.15-7.28,1.75-2.11,2.75-4.82,5.38-6.29.74-.42,1.3-1.55,1.55-2.46,1.35-4.87,4.72-8.63,7.77-14.11-5.78,3.83-11.51,4.52-16.5,7.1-3.07,1.6-5.97.86-8.26-1.45-2.83-2.85-3.32-6.07-.12-8.7,3.22-2.65,6.93-3.96,10.72-5.09,2.7-.81,5.28-1.6,7.37-3.66-3.27-3.37-6.39-6.61-9.51-9.83-2.75-2.8-2.97-6.19-.56-8.36,2.63-2.36,8.7-2.38,10.3.39,1.23,2.16,2.58,3.98,4.43,5.53,1.67,1.43,3.27,2.93,5.63,5.06"/><path class="cls-2" d="m454.64,530.3c1.45,7.4,1.03,14.26.22,20.82-.37,2.9-.76,4.99.52,7.72,2.61,5.63.25,11.41-.62,17.01-.56,3.74-3.54,4.94-7.35,4.45-3.86-.52-6.15-2.78-6.37-6.69-.59-10.15.54-20.33-.47-30.51-1.3-.54-1.84.42-2.04,1.33-.42,1.92-1.4,3.12-3.15,4.08-2.7,1.47-4.03,4.35-5.95,6.61-1.65,1.92-2.88,4.3-5.85,4.82-3.2.57-6.12-.22-7.84-2.8-1.67-2.53-1.25-5.09.59-7.2,6.44-7.55,10.69-16.99,19.27-22.71,1.03-.66,1.82-1.57,1.6-3.39-4.87-.59-9.54-2.41-14.9-.57-2.75.93-6.27-.22-9.1-1.92-3.24-1.94-3.88-5.01-1.62-8.04,2.36-3.15,5.61-4.33,9.49-4.18,2.73.1,5.63.74,8.38-1.47-2.43-3.2-4.96-6.05-8.19-8.43-4.67-3.47-4.87-8.68-.81-11.58,1.4-1.01,2.75-1.43,4.45-.61,3.2,1.5,6.51,2.34,8.36,6.15,1.08,2.29,4.01,3.69,6.64,5.92,2.02-8.04.76-16.49,6.34-24.41.61,3.86.79,6.32.44,8.85-.15,1.23,0,2.46,1.33,3.05,1.33.61,2.16-.44,3.22-.98,1.89-.96,2.11-3.2,4.2-5.41-1.87,8.55-1.89,16.22-3.84,23.72,2.48.25,3.52-.79,4.38-1.87,3.27-4.06,6.83-7.79,10.4-11.58,1.94-2.04,4.08-2.78,6.32-3.98,2.41-1.28,3.64.34,4.65,1.25,1.47,1.33,2.31,4.35.71,5.36-3.61,2.31-3.24,6.71-6,9.37-1.92,1.84-4.33,3.59-4.62,6.83,2.16,1.11,4.38,1.45,6.83,1.03,2.58-.42,4.72.59,6.17,2.85,1.74,2.75,1.2,5.36-1.47,7.23-2.14,1.5-3.86,2.02-8.7,2.56.15,3.93,2.63,6.44,5.19,8.97,3.59,3.56,3.54,3.64,1.33,7.6-1.94,3.47-3.22,4.11-7.25,3.1-2.31-.57-4.89-1.08-6.15-3.37-1.99-3.61-5.31-5.85-8.75-8.97"/><path class="cls-2" d="m997.99,365.21c3.88-2.34,4.67-5.73,6.81-8.06,1.25-1.35,2.41-2.7,4.11-3.37,2.51-.98,4.69,0,5.95,2.46,2.11,4.23,1.55,7.25-2.14,10.55-2.41,2.16-3.54,5.06-5.29,7.77,2.36,1.03,4.33.27,6.27.44,3.32.27,5.65,2.51,5.68,5.6.05,3.2-2.07,5.6-5.19,6.15-2.88.54-6.1-.27-8.58,2.06.86,1.47,2.21,2.48,3.71,2.9,4.96,1.35,7.84,5.36,11.26,8.68,2.11,2.06,3.2,4.84,1.79,7.67-.64,1.28-1.72,4.45-4.13,1.18-.69-.93-1.82-1.13-2.7-.61-3.71,2.09-6.59,0-9.19-2.02-1.99-1.57-4.28-2.06-6.49-3.02-1.79,2.53-3.12,4.84-1.33,8.16,1.06,1.94,1.5,4.5.39,6.96-1.03,2.31-.12,4.77.17,7.1.57,4.7-.74,8.65-4.13,11.92-2.46,2.36-5.92,3.02-8.23,1.67-2.43-1.45-3.59-4.97-2.58-8.31.35-1.16.89-2.29.54-3.49-1.18-4.06-.74-8.14-.39-12.37-2.8,2.61-3.54,6.32-5.48,9.32-1.52,2.36-1.94,4.03-5.09,1.67-2.58-1.94-6.27.07-8.14,3.76-.49.96.32,2.48-1.28,2.97-3.07-4.82-3.12-6.69-.29-10.47,1.89-2.56,3.42-5.24,4.52-8.31,2.24-6.22,7.2-10.96,9.81-17.04.54-1.25,1.87-2.48.96-3.81-.81-1.16-2.43-1.4-3.79-.98-4.52,1.4-9.61-.15-13.91,2.97-1.7,1.25-4.35.64-6.47.2-3.84-.76-5.26-4.45-3.42-7.84,1.43-2.61,3.64-4.15,6.39-5.09,2.78-.91,5.55-1.92,9.05-3.12-3.81-3.05-5.41-7.1-10.15-8.65-4.42-1.4-5.48-5.73-3.24-8.53,1.87-2.31,4.92-1.87,7.32-2.68,2.29-.76,5.61-.29,7.18,2.02,3.79,5.53,9.46,8.97,14.41,13.64,1.6-3.2,2.02-6.61,2.68-9.96.27-1.4.47-2.85-.32-4.11-2.43-3.86-.37-7.65.15-11.43.27-2.06,1.2-3.79,3.81-3.64,2.38.12,4.92-.15,6.15,2.68.39.91,1.16,1.87,1.06,2.75-.42,4.47,2.21,8.43,1.8,13.64"/><path class="cls-2" d="m510.88,1212.22c.71-1.65,1.6-3.24,2.11-4.97.81-2.68,3.15-3,5.21-3.32,1.94-.29,3.25,1.25,4.11,2.95.69,1.45,1.33,2.9,2.02,4.33,1.18,2.51.86,4.45-1.4,6.34-3.2,2.68-5.6,6.12-7.6,10.2,2.33.37,4.45,1.03,6.12,2.48,1.74,1.52,2.75,3.32,1.89,5.83-.79,2.29-2.07,3.83-4.65,3.91-1.82.05-3.61.1-5.41,0-1.67-.07-3.25-.12-4.52,1.75,2.09,1.99,4.08,4.11,7.25,4.45,3,.32,5.06,2.36,7.2,4.13,4.3,3.59,3.12,7.87-2.04,10.15-3.37,1.47-5.97,1.47-8.92-.59-1.75-1.23-4.23-.96-5.95-3.17-.32,1.28-.69,1.89-.54,2.34,2.11,6.59,1.38,13.3,1.23,20.01-.12,5.01-2.06,8.85-6.37,11.41-2.78,1.65-6.24,1.5-8.48-.37-2.48-2.06-1.99-4.74-.96-7.15,2.46-5.7,2.07-11.43,1.18-18.63-2.51,3.88-4.45,6.51-6.81,8.83-2.19,2.11-4.69,3.39-7.42,2.43-3-1.06-3.56-3.91-3.44-6.98.22-4.55.93-8.46,5.38-11.16,2.88-1.77,4.62-4.99,5.43-8.36.44-1.82,1.57-3.22,2.19-5.11-2.58-1.06-4.52.61-6.66,1.38-2.06.74-3.54.57-3.66-2.14-.1-1.89.64-4.35-2.16-4.92-2.02-.37-3.56.86-4.25,2.65-.98,2.53.25,4.2,2.63,5.19.27.12.47.52.69.79-4.4,4.3-7.35,4.5-10.27.69-2.56-3.37-1.45-9.12,2.51-11.6,2.73-1.72,5.75-2.8,9.02-3.12,1.18-.12,2.61-.39,2.7-1.87.1-1.45-.52-2.78-2.09-3.29-.96-.32-1.97-.47-2.88-.84-2.56-1.03-4.6-2.51-4.23-5.73.44-4.08,2.02-5.75,5.9-6.27,3.44-.44,6.71-.47,9.42,2.43,1.3,1.38,3.24,2.14,5.38,3.49.96-3.44.1-6.22-.2-9.12-.69-6.91,1.33-10.1,7.62-11.19,2.65-.47,4.52.54,5.01,3.02.81,4.01,1.89,8.09.71,12.24-.49,1.75-1.18,3.42-.1,5.21,2.33-.07,2.85-1.82,3.37-3.59.59-1.97,1.23-3.86,3.76-4.01-.02.98-.07,1.97.57,2.8.84,1.11,1.94,1.2,3.12.71,1.01-.42,1.43-1.33,1.52-2.34.15-1.38-.56-2.24-1.92-2.41-.76-.1-1.55.05-2.33.1m-13.35,33.83c2.26.02,4.6-1.84,4.62-3.69.02-1.72-2.43-4.08-4.38-4.2-1.84-.12-4.33,2.09-4.52,3.98-.17,1.99,1.89,3.88,4.28,3.91"/><path class="cls-2" d="m622.76,1446.84c-8.11,4.5-16.91,1.06-24.68,4.74-2.43,1.16-4.25-.47-5.8-2.06-2.36-2.46-2.85-7.69-1.38-10.77.86-1.75,2.31-1.89,3.91-2.29,6.78-1.67,13.77-1.89,20.92-2.7-.96-3.17-1.94-6.02-5.51-7.25-2.51-.88-4.15-3.39-3.88-5.56.29-2.31,2.16-4.57,3.76-6.51.71-.91,2.31-.25,3.27.54,2.97,2.48,6.78,3.34,10.08,5.65.3-3.52,1.92-6.39.81-10.08-1.2-4.06,3.32-6.83,7.32-4.99,5.93,2.68,7.3,4.5,5.75,10.67-1.08,4.33.79,8.21-.3,13.69,6.74-7.47,11.24-14.97,17.9-21.17,1.72,2.31,2.88,4.43,4.84,5.8,3,2.09,3.47,4.33.59,6.27-4.01,2.73-4.97,8.31-10.03,9.96-1.25.42-1.7,2.19-2.06,3.54-.71,2.56.76,4.28,2.63,5.56,1.82,1.28,3.44.37,4.69-1.16,1.72-2.11,4.65-3.39,4.38-7.25,3.47,1.55,7.1,2.06,7.03,6.59-.02,2.7-1.47,4.7-3.91,5.48-2.21.71-4.74.12-6.96,1.11-.42,1.97,1.2,2.93,1.97,4.25,1.4,2.36,1.92,4.82,1.06,7.47-1.11,3.49-3.2,4.62-6.81,4.01-3.49-.61-6.42-2.02-8.63-4.89-1.33-1.7-2.68-3.56-5.11-3.86-1.3,1.7-1.77,3.56-1.35,5.65.69,3.52,1.67,6.93-1.25,10.15-1.01,1.13.15,2.29,1.45,3.29,4.74,3.64,4.18,13.42-.79,16.47-4.45,2.75-8.97,1.11-10.15-3.98-.71-3.07-2.19-6.05-1.52-9.39.22-1.11-.12-2.51-1.35-3.12-1.35-.66-2.14.27-3.05,1.13-4.08,3.91-6.54,4.55-9.24,2.53-2.58-1.94-2.97-5.56-1.2-9.93.71-1.82,2.09-2.78,3.54-3.88,4.2-3.15,8.16-6.56,9.07-13.72m12.76,1.75c-.3-.98-.74-2.38-2.51-2.11-1.52.22-2.31,1.43-2.14,2.95.15,1.4.76,2.8,2.46,2.56,1.47-.22,2.24-1.43,2.19-3.39"/><path class="cls-2" d="m956.06,1314.59c-.17,3.49-2.12,6.74-4.45,9.19-3.1,3.27-7.1,5.75-11.48,7.33-5.04,1.82-9.96.07-13.08-4.43-2.56-3.71-4.2-7.52-3.32-12.24.64-3.34.05-3.59-3.52-3.42-2.09.1-4.03.54-6.37,0-6.39-1.43-7.55-6.37-9.12-11.28-.42-1.25.17-2.38.66-3.44,2.78-6.02,7.03-10.6,13.47-12.54,2.26-.66,4.57.27,6.71,1.67,2.21,1.45,4.89,2.7,5.78,5.04,1.72,4.62,5.36,5.01,9.27,5.68,8.36,1.4,15.44,9.88,15.44,18.44"/><path class="cls-2" d="m975.45,1720.32c-3.98-.59-7.01-.57-9.59-2.51-2.46-1.87-4.72-3.61-3.98-7.28.24-1.3.17-3.02-.47-4.13-2.97-5.01-.89-10.5-1.65-15.71-.59-4.23,5.23-10.94,9.49-12.02,6.78-1.7,12.27,0,16.37,5.29,1.77,2.31,2.04,5.29,2.34,8.01.42,3.81,1.38,7.42,2.63,11.01.32.91,1.18,1.72.86,2.78-1.4,4.55-4.6,8.06-7.64,11.33-2.19,2.34-6,2.8-8.36,3.22"/><path class="cls-2" d="m264.15,313.3c9.42-.15,16.37,3.91,20.48,10.5,2.83,4.52,6.74,10.15,3.74,16.62-.39.88-.62,2.56-1.5,2.21-3.81-1.5-3.64,1.2-4.15,3.47-.24,1.03-1.33,1.35-2.26,1.77-5.8,2.61-11.01,1.82-15.76-2.53-3.74-3.44-7.79-6.83-10.94-10.57-7.45-8.9-5.65-17.11,6-20.92,1.72-.57,3.52-.74,4.4-.54"/><path class="cls-2" d="m553.77,1755.69c.27,1.3.3,3,.98,4.38,4.4,8.55-2.11,14.97-8.83,17.58-3.39,1.3-7.28,1.7-11.01-.15-2.61-1.3-4.97-2.29-4.97-5.85,0-2.36-1.99-4.01-3.69-5.24-6.1-4.45-5.46-10.91-4.57-16.84.59-4.06,2.19-8.36,6.39-11.01,1.87-1.18,3.52-1.7,5.46-1.33,5.11.96,10.25,1.89,12.98,7.3.98,1.94,3.56,2.36,4.97,4.18,1.55,2.06,3.81,3.64,2.29,6.98m-4.6,17.06c1.47.05,4.33-2.75,4.35-4.28,0-1.62-2.68-3.96-4.57-3.93-2.29.05-3.74,1.33-4.25,3.47-.47,1.84,2.33,4.67,4.47,4.74"/><path class="cls-2" d="m1234.4,1216.7c8.21,1.25,15.88,6.32,11.18,16.5-.91,1.97-.84,3.86-.74,5.83.39,9.34-2.11,10.64-11.21,15.09-4.99,2.46-10.23,1.25-14.06-4.45-4.23-6.32-7.77-13.32-5.14-21.68.84-2.63,2.43-4.45,3.93-6.51,1.79-2.53,3.98-1.89,6.42-1.75,1.23.07,2.61-.81,3.79-1.5,1.79-1.06,3.69-1.5,5.83-1.52m3.84,21.8c-.08-1.06-.71-1.5-1.55-1.5-1.2-.05-1.92.84-1.97,1.82-.03,1.01.59,1.97,1.89,1.72,1.11-.2,1.55-1.06,1.62-2.04"/><path class="cls-2" d="m1006.09,1832.03c.66,7.65-4.13,12.76-8.58,17.77-1.94,2.16-5.31,2.36-8.46,1.35-8.43-2.68-13.54-6-13.69-14.73-.03-1.55-.37-3.22,1.4-4.3,2.46-1.55,1.65-3.17,0-4.87-4.15-4.28-4.03-5.65-.12-9.66,5.95-6.02,10.89-7.72,19.49-1.5.66.47,1.28,1.06,2.02,1.33,7.08,2.48,7.38,8.7,7.94,14.6"/><path class="cls-2" d="m1243.23,1701.05c.15,3.27-1.52,5.11-3.74,7.52-2.8,3.05-5.48,5.46-9.34,6.86-4.77,1.75-10.62-.22-12.59-4.87-1.75-4.18-2.31-8.75-5.73-12.34-1.55-1.65-.91-4.6-.07-6.93,1.18-3.37,2.93-6.49,4.01-9.96.98-3.27,4.18-4.74,7.4-5.46,5.46-1.2,9.96,1.87,13.47,6.32,3.56,4.52,3.64,9.98,5.97,14.72.59,1.2.44,2.75.62,4.13"/><path class="cls-2" d="m935.64,200.34c-.29-5.73.54-7.23,5.9-9.29,4.77-1.84,9.73-2.09,14.23.54,2.19,1.28,4.35,1.67,6.71,2.02,9.61,1.35,11.55,6.47,8.16,15.39-2.46,6.44-7.15,11.14-14.21,13.18-8.7,2.51-14.82-1.03-16.64-8.23-.54-2.14-.86-4.13-2.56-5.83-1.5-1.5-1.28-1.72-1.6-7.77m-9.27-23.99c1.33-.22,2.09-1.06,2.09-2.36,0-1.99-1.38-2.7-3.07-2.58-1.45.07-1.87,1.23-1.74,2.51.17,1.6,1.16,2.36,2.73,2.43"/><path class="cls-2" d="m345.26,431.6c-.49,5.21-3.32,8.92-7.94,11.41-4.15,2.21-8.36,3.59-12.61.27-2.11-1.65-4.79-1.89-7.18-2.56-7.5-2.09-9.83-5.38-9.17-13.2.57-6.39,3.34-11.33,9.46-13.1,4.03-1.18,8.56-2.41,12.78-1.33,4.08,1.06,7.05,4.11,9.61,7.6,2.43,3.32,6.22,5.8,5.04,10.91"/><path class="cls-2" d="m1391.04,1446.14c.39.05,1.3-.07,1.94.27,6.56,3.59,13.89,6.07,17.75,13.32,1.97,3.71,1.87,7.4.22,10.91-2.41,5.16-4.67,10.94-11.53,11.46-4.23.29-8.68-.05-12.66-1.6-4.08-1.6-5.63-5.53-6-9.61-.3-3.37-.3-6.49-2.06-9.71-1.35-2.41-1.75-6.22.34-8.51,3.02-3.32,6.64-6.32,12-6.54m6.66,47.52c1.5-.12,2.38-1.08,2.51-2.61.12-1.35-.74-2.16-2.07-2.26-1.45-.07-2.14.81-2.24,2.14-.1,1.28.32,2.29,1.8,2.73"/><path class="cls-2" d="m1373.08,446.77c-.35,6.12-2.48,10.62-6.76,13.67-2.85,2.04-5.73,2.43-9.83,1.13-7.96-2.53-12.09-8.33-16.57-14.33-1.25-1.67-1.6-3.15-1.13-4.94.91-3.42,1.11-6.93,3.05-10.18,2.29-3.86,6.98-7.18,11.92-7.13,3.56.02,8.21,3.32,9.34,7.35.71,2.63,2.16,3.93,4.3,5.29,3.56,2.24,4.99,6,5.68,9.14"/><path class="cls-2" d="m1433.44,1037.85c-.84,1.2-2.07,1.06-3.25.86-2.16-.34-4.42-1.3-6.49-.98-7.13,1.03-10.59-4.18-14.9-8.11-.86-.76-1.01-1.7-.98-2.68.25-5.85.66-11.5,6.42-15.24,2.31-1.5,4.55-3.22,7.01-4.5,6.54-3.32,13.72-.42,16.52,6.44,1.03,2.56,2.58,4.89,3.66,7.45,1.92,4.45,1.77,8.85-.52,13.25-1.7,3.24-3.96,4.84-7.69,3.71-.1-.37-.27-.76-.25-1.13.12-1.3-.1-2.41-1.62-2.53-.74-.05-1.6.29-1.65,1.28-.1,1.38.62,2.19,1.99,2.34.57.07,1.16-.1,1.75-.15"/><path class="cls-2" d="m222.35,399.68c-.12-5.41,7.01-15.14,11.63-16.25,3.56-.88,12.46,3.34,14.43,6.91.93,1.72,1.5,3.49,3.27,4.84,9.66,7.4,3.71,19.3-3.1,23.28-5.11,3-9.05,2.24-13.72-2.43-3.52-3.52-6.74-7.3-10.25-10.79-1.72-1.72-2.41-3.59-2.26-5.56"/><path class="cls-2" d="m429.83,375.79c5.06-.57,8.11,2.36,10.45,5.95,1.47,2.29,3.19,3.91,5.41,5.38,5.16,3.42,5.78,7.06,3.2,12.61-3.37,7.28-9.98,9.49-16.86,10.64-4.7.79-8.83-2.26-11.01-6.05-3.54-6.15-3.96-13.27-3.34-20.23.37-4.18,2.63-7.4,7.65-7.62,1.52-.07,3.07-.81,4.52-.69m18.19,17.23c-.22-.98-.57-1.94-1.8-1.89-1.4.05-2.11.91-2.06,2.24.05,1.23,1.01,1.55,2.06,1.5,1.16-.02,1.62-.81,1.8-1.84"/><path class="cls-2" d="m1331.23,1179.42c-6.17-.05-9.1-2.46-10.23-8.43-.32-1.75-.66-3.52-1.06-5.26-1.67-7.42,4.7-20.35,11.43-23.89,2.04-1.08,3.69-1.2,5.58-.22,1.77.93,3.61,1.75,5.24,2.85,4.69,3.15,6.1,6.88,4.69,12.37-.59,2.31-1.47,4.67-.81,6.98,2.46,8.95-6.15,15.95-14.85,15.61"/><path class="cls-2" d="m1172.48,1649.82c-.37,9.64-4.13,14.23-12.86,15.71-5.36.91-8.56-1.01-11.31-5.9-2.51-4.45-5.53-8.53-6.54-13.82-1.38-7.03,3.44-15.07,10.35-16.03,4.06-.57,7.91,1.06,9.86,4.3,1.62,2.73,3.96,4.38,6.15,6.24,4.03,3.47,4.55,4.01,4.35,9.49"/><path class="cls-2" d="m237.99,659.18c-.25,7.62-3.93,11.68-10.96,13.18-3.52.76-6-1.2-8.26-2.53-3.29-1.94-6.56-4.35-8.9-7.72-1.57-2.21-2.33-4.23-1.79-7.08.44-2.43-.25-5.09-.27-7.65-.1-8.58,5.88-11.95,13.25-11.21,1.38.12,2.78.34,4.11.69,6.93,1.87,9.37,4.84,10.1,12.17.22,2.19.17,4.45,1.77,6.19,1.03,1.18,1.01,2.56.96,3.96"/><path class="cls-2" d="m1459.65,1284.67c.02,4.79-5.78,11.6-11.06,12.66-2.78.57-5.8,1.82-8.41-.81-.44-.44-1.52-.39-2.29-.34-8.29.54-13.5-7.72-12.49-16.1.52-4.08,4.42-6.49,7.08-9.39,3.61-3.96,7.87-4.84,12.98-2.56,3.86,1.75,7.45,3.59,10.4,6.78,2.61,2.85,3.93,5.95,3.79,9.76"/><path class="cls-2" d="m590.17,458.31c8.68.15,14.6,5.29,19.49,11.65,1.87,2.43,2.65,5.9-.22,8.78-.69.69-1.4,1.67-1.45,2.58-.3,4.2-3.27,6.22-6.37,8.06-3.05,1.82-6.37,1.89-9.81,1.4-3.81-.54-6.47-3.37-7.87-5.95-2.75-5.06-6.27-10.13-4.92-16.72,1.4-6.98,4.03-9.66,11.14-9.81"/><path class="cls-2" d="m661.36,1849.53c-11.16.84-18.41-10.01-15.71-19.86,1.7-6.27,7.1-11.26,12.98-14.85,1.4-.84,3.02-.42,4.62.12,10.77,3.56,13.67,9.29,9.88,20.18-.54,1.55-.74,3.07-.98,4.62-.96,6.81-4.06,9.59-10.79,9.78"/><path class="cls-2" d="m852.57,262.73c.59-10.08,9.39-15.78,19.47-10.96,9.39,4.47,12.02,13.23,12.88,22.57.39,4.43-5.29,8.78-9.69,7.96-1.25-.25-2.19-.42-3.32.32-3.44,2.29-5.73.64-8.09-2.11-2.95-3.44-5.33-7.4-9-10.3-2.16-1.72-2.06-4.62-2.26-7.47"/><path class="cls-2" d="m754.66,1528.01c.27,5.56-2.46,10.4-3.86,15.51-1.11,3.98-11.97,6.39-16,4.28-4.89-2.56-7.28-7.45-9.22-11.85-1.52-3.47-.12-8.31,1.52-12.12,3.47-8.06,17.9-11.28,25.07-5.88,1.25.93,1.72,2.19,1.94,3.54.32,2.14.37,4.33.54,6.51"/><path class="cls-2" d="m1420.96,710.23c-.35-4.2.76-7.72,3.93-10.79,3.52-3.42,7.74-5.06,11.65-2.41,4.06,2.75,8.68,4.7,12.02,8.63,4.38,5.16,5.6,12.73,2.26,18.22-1.47,2.38-7.72,5.06-10.55,4.3-3.39-.93-7.08-1.52-10.15-2.7-4.23-1.62-7.79-5.43-8.87-10.47-.32-1.52-.2-3.17-.29-4.77"/><path class="cls-2" d="m606.65,1618.1c6.69.2,15.22,7.4,14.09,13.45-.98,5.24-1.11,10.99-5.48,15.76-3.71,4.08-7.1,5.11-11.97,3.91-1.4-.34-2.58-.91-3.59-1.94-1.11-1.13-2.19-2.41-3.52-3.22-5.38-3.2-6.39-7.84-5.51-13.64.76-5.11,9.69-14.26,14.8-14.5.39-.02.79.12,1.18.2"/><path class="cls-2" d="m723.65,542.26c-5.78-.64-10.4-.64-13.94-4.92-3.74-4.47-6.29-13-3-18.02,2.65-4.08,6.05-7.33,10.05-9.81,3.93-2.41,13.13.96,14.87,5.26,1.13,2.75,2.21,5.48,3.47,8.19,3.88,8.36-3.59,18.88-11.46,19.3m-3.39-26.94c-1.43.42-2.75.89-2.41,2.73.29,1.55,1.45,2.43,2.9,2.41,1.47-.02,2.75-1.13,2.75-2.56.03-1.92-1.65-2.38-3.24-2.58"/><path class="cls-2" d="m1429.2,1123.38c2.19.96,2.75,3.52,5.31,3.47,1.55-2.7.12-5.51.37-8.16,9.39-2.83,16.03-1.16,21.41,5.41,3.79,4.6,3.74,12.44-.07,18.44-3.22,5.04-9.64,7.82-15.07,6.27-3.66-1.06-5.11-4.89-7.99-6.98-.79-.57-1.16-1.62-1.87-2.29-6.59-6.15-6.78-7.5-2.09-16.15"/><path class="cls-2" d="m318,1717.53c-1.7,6.37-3.27,12.76-10.38,15.78-1.82.79-3.22,1.01-5.01.22-9.22-4.06-12.39-9.98-11.09-20.01.57-4.18,1.16-8.09,4.08-11.43,2.29-2.65,9.05-4.77,13.22-3.69,3.79.96,7.5,5.48,7.77,9.56.22,3.2.59,6.37,1.4,9.56"/><path class="cls-2" d="m865.88,423.62c3.66-.05,5.83,1.45,7.84,3.05,4.55,3.61,8.53,7.57,8.92,14.01.2,2.85,2.39,5.51.71,8.58-1.6,2.95-3.52,5.33-6.98,6.34-3.49,1.01-6.76,1.3-10.42.47-4.4-1.01-6.98-3.49-8.29-7.52-1.08-3.37-1.55-6.83-3.37-10.08-1.97-3.49,0-8.14,3.42-10.74,2.73-2.09,5.53-3.84,8.16-4.11"/><path class="cls-2" d="m1015.01,1610.11c.15-1.55,3.02-2.53,1.01-4.4-1.65-1.52-3.12-1.28-4.45.69-.81,1.18-1.77.34-2.51-.32-2.11-1.84-4.2-3.66-6.22-5.58-3.71-3.61-4.55-10.45-1.82-15.49.96-1.75,2.09-3.44,3.42-4.92,3.05-3.37,7.82-3.76,12.17-1.67,3.47,1.7,6.29,4.25,9.49,6.29,5.36,3.39,6.05,8.95,5.93,14.68-.02,1.67-1.35,2.83-2.41,4.03-3.83,4.42-8.78,6.39-14.6,6.69m1.55-25.91c-.37-1.47-1.33-2.43-2.88-2.38-1.11.05-1.67.98-1.6,2.09.1,1.43,1.03,2.02,2.38,1.99,1.11-.02,1.79-.57,2.09-1.7"/><path class="cls-2" d="m344.12,290.7c3.83.86,9.1,2.04,13.81,4.72,4.65,2.63,5.75,7.42,6.32,12.22.3,2.46-5.14,9.59-7.64,10.08-4.06.76-8.21,1.23-12.37,1.47-2.16.12-4.15-.71-5.78-2.58-3-3.49-6-6.78-7.5-11.38-2.65-8.14,4.5-15.02,13.15-14.53"/><path class="cls-2" d="m1424.84,879.13c.66,4.65-1.77,7.5-5.66,9.42-1.77.86-3.59,1.65-5.38,2.46-2.46,1.06-4.6,3.52-7.69,1.82-3.44-1.92-6.93-3.61-8.68-7.74-1.77-4.15-2.46-8.24-1.97-12.64.54-4.87,5.19-9.96,10.18-11.21,6.59-1.62,12.12.15,15.41,4.94,2.48,3.59,3.81,8.09,3.79,12.96m-16.84,3.1c-.15-.79-.42-1.57-1.33-1.65-1.16-.1-1.74.64-1.72,1.72.02.88.74,1.4,1.55,1.4s1.35-.64,1.5-1.48"/><path class="cls-2" d="m1038.21,525.98c-1.79,4.7-1.18,9.37-4.42,13.25-2.19,2.61-4.5,3.96-7.67,3.59-8.09-.96-14.23-3.74-14.26-12.73,0-2.11-.98-3.86-1.67-5.7-1.99-5.51-1.62-10.13,1.11-12.24,6-4.55,11.73-5.43,16.52-1.72,5.16,4.01,8.75,9.32,10.4,15.56m-39.09,19.54c.22-1.33-2.19-3.61-4.03-3.83-.86-.1-1.57.27-1.8,1.18-.42,1.6,1.52,3.86,3.54,4.11,1.16.12,1.89-.44,2.29-1.45"/><path class="cls-2" d="m748.94,1875.01c.93-2.09.49-3.88-.12-5.78-.69-2.09-1.5-3.69-4.06-3.52-2.51.17-4.2,1.45-4.7,3.86-.49,2.36-.66,4.79,1.08,6.86,1.65,1.92,3.17,3.32,6.12,1.79,1.55-.81,6.59,3.37,7.05,5.26,1.18,4.79.27,9.02-2.63,10.64-7.82,4.38-10.62,4.57-15.88.76-2.24-1.6-4.15-3.64-6.07-5.65-1.43-1.5-2.24-3.42-1.28-5.51,1.23-2.65.32-4.25-1.79-6.15-5.56-4.92-4.08-13.27,2.65-16.52,8.06-3.88,17.11-.69,21.04,7.42.34.71.69,1.45,1.16,2.09,2.19,2.85.12,3.59-2.58,4.42m18.93,16.84c-1.38.27-2.39,1.18-2.34,2.75.05,1.3.91,2.24,2.31,1.99,1.57-.27,2.26-1.5,2.16-3.02-.1-1.06-.84-1.7-2.14-1.72"/><path class="cls-2" d="m1099.92,1755.81c-3.05-.66-5.68-.29-7.92-2.09-1.74-1.43-3.59-2.48-3.47-5.14.05-.96-.37-1.94-.66-2.9-2.41-7.2-.07-13.84,6.32-17.8.17-.12.32-.27.49-.32,4.11-1.45,8.33-.39,12.41-.17,4.38.25,7.45,3.24,8.73,7.79.52,1.89,1.97,3.54,2.46,5.43,1.4,5.33-2.88,12-8.9,13.64-3.24.88-6.66,1.11-9.46,1.55"/><path class="cls-2" d="m1281.31,1620.97c.74,3.05-1.45,6.39-3.56,9.39-3.05,4.28-7.25,6.88-12.91,5.51-5.73-1.4-10.25-4.28-12-10.32-.22-.74-.59-1.77-.27-2.29,2.75-4.52,2.09-10.05,4.52-14.7,3.27-6.2,11.09-8.14,17.31-5.02,6.15,3.1,6.49,8.36,6.88,13.91.07.81.02,1.6.02,3.52"/><path class="cls-2" d="m79.54,801.92c-.59-3.64,1.67-6.46,3.83-9.39.79-1.03,1.77-1.7,3.02-1.65,6.91.29,13.81-.27,20.38,3.15,9.37,4.87,7.87,10.05,3.69,15.83-2.95,4.06-6.64,7.67-12.54,8.06-7.74.52-19.59-5.95-18.39-16"/><path class="cls-2" d="m1412.64,583.03c.71,2.31.05,3.93-2.09,4.99-.69.34-1.2,1.03-1.84,1.5-4.28,3.17-9.22,6.29-14.26,3.84-6-2.93-10.54-7.96-10.91-15.36-.07-1.57.02-3.15-.22-4.77-1.13-7.42,6.24-14.26,13.37-12.49,2.46.61,4.13,2.56,5.7,4.25,2.85,3.02,5.43,6.32,7.82,9.73,1.67,2.43,3.32,5.09,2.44,8.31"/><path class="cls-2" d="m901.75,1755.53c-1.01,3.69-.69,8.14-3.79,11.73-6,6.93-19.79,4.65-23.65-4.11-1.18-2.7-3.27-5.21-3.2-8.31.1-4.01,2.26-7.28,4.94-10.01,6.32-6.37,22.15-3.64,24.61,4.45.59,1.97.2,3.93,1.08,6.24"/><path class="cls-2" d="m1265.48,621.61c-1.57,0-3.07.07-4.7-.2-4.6-.79-7.01-3.32-7.25-7.87-.12-2.41-.66-4.7-1.08-7.06-1.3-7.25,4.84-15.41,12.19-16.37,3.61-.47,6.56,0,9.1,3.71,2.46,3.59,4.01,7.6,6.39,11.19,2.36,3.52,1.67,8.33-.42,12.05-1.43,2.53-4.79,3.32-7.69,3.91-2.14.44-4.35.44-6.54.64"/><path class="cls-2" d="m1147.84,471.77c-.91.05-1.55.22-2.12.1-2.06-.49-4.11,1.77-6.27-.12-2.83-2.51-5.83-4.84-7.47-8.38-2.11-4.52.47-8.16,2.61-11.65,2.73-4.38,15.17-8.65,20.23-7.35,7.23,1.84,12.17,13.3,8.38,19.42-.66,1.03-1.77,1.57-2.83,2.14-2.46,1.3-5.01,2.51-6.78,4.79-1.7,2.19-3.96,1.25-5.75,1.06"/><path class="cls-2" d="m1053.45,196.7c.27-6.76,2.68-12.27,8.8-15.83,4.33-2.51,7.96-2.29,11.7,1.08.44.42.91.79,1.38,1.18,9.19,7.69,8.33,11.48,4.7,22.05-1.11,3.25-10.74,7.2-12.59,4.92-1.77-2.24-2.63-1.35-4.4-1.03-3.29.64-6.24-1.2-7.77-4.25-1.28-2.56-1.87-5.26-1.82-8.11"/><path class="cls-2" d="m144.77,1401.73c.24-6.49,1.99-11.77,7.64-13.86,4.89-1.82,10.42-4.25,15.46.39.59.52,1.35.84,2.04,1.23,5.83,3.44,6.05,4.99,5.14,11.58-.74,5.38-3.25,9.22-7.33,12.37-1.3,1.01-2.65,1.94-4.35,1.82-6.71-.44-12.81-2.21-17.04-8.11-1.38-1.94-2.14-3.79-1.57-5.41"/><path class="cls-2" d="m806.35,166.01c.37.57.49.71.59.89,1.89,3.32,4.11,7.01,1.77,10.55-2.92,4.45-6.56,8.68-12.9,8.16-.2-.02-.39-.02-.59-.05-15.78-.1-12.12-1.18-17.9-13.5-1.79-3.79.22-7.6,2.75-10.42,4.74-5.29,12.93-6.05,19.2-2.53,1.94,1.08,2.95,2.02,1.52,4.08-1.01,1.45-1.6,2.9.07,4.23,1.7,1.35,2.93.02,4.23-.88.3-.25.71-.3,1.25-.52"/><path class="cls-2" d="m290.61,1607.61c.1-3.22.88-6.46,2.6-9.05,1.89-2.83,4.06-6.19,8.68-4.47,1.06.39,2.36.1,3.56.12,6.27.07,10.57,3.84,12.22,9.91,1.6,5.9,1.47,11.28-2.41,16.32-4.11,5.31-7.84,6.1-13.79,3-6.49-3.37-11.09-7.89-10.86-15.83"/><path class="cls-2" d="m463.71,1629.9c-1.06-.07-2.51-.57-3.86-1.52-1.28-.93-2.56-2.06-4.25-2.11-1.97-.02-4.01.44-5.53-1.45-1.77-2.19-3.22-4.62-3.91-7.35-1.6-6.47,3.49-16.13,9.61-18.95,1.2-.57,2.19-.79,3.37-.25,4.67,2.09,10.08,3.2,11.41,9.42.17.86,1.16,1.57,1.82,2.31,4.84,5.33,5.04,7.4,2.04,13.77-2.09,4.38-5.63,5.95-10.69,6.15"/><path class="cls-2" d="m721.78,1322.65c-.57-4.15,1.67-7.35,3.93-10.28,3.05-3.93,12.86-3.66,16.27.22,1.03,1.18,1.89,2.53,2.83,3.84,6.66,9.12,2.56,20.6-8.43,23.62-.39.1-.79.17-1.13.34-3.12,1.6-6.56,3.07-9.37.2-3.29-3.39-6.74-7.15-4.47-12.66.71-1.75.61-3.52.37-5.29"/><path class="cls-2" d="m154.46,1531.79c-9.17,1.23-12.14-6.19-16.47-11.5-2.53-3.07-3.05-6.44-1.33-10.5,2.78-6.61,13.6-9.02,18.56-6.19,9.64,5.48,12.56,12.27,9.83,22.84-.96,3.71-5.29,5.63-10.59,5.36"/><path class="cls-2" d="m898.41,1856.63c.47,8.06-8.9,17.55-20.4,12.22-2.63-1.23-4.4-2.61-5.14-5.9-.91-4.23-2.11-8.31-2.21-12.76-.07-3.76,1.57-6.15,4.25-7.96,8.92-6.02,20.16-1.23,22.86,9.69.37,1.52.44,3.15.64,4.72"/><path class="cls-2" d="m627.66,1739.86c-.79-7.92,5.85-9.81,10.79-12.51,4.5-2.46,9.44-1.77,13.2,2.21,4.35,4.65,6.49,10.37,7.01,16.69.05.39,0,.79-.12,1.16-1.28,4.11-10.1,8.82-14.28,7.57-3-.91-5.85-2.09-9.07-2.58-4.77-.71-8.14-6.96-7.52-12.54"/><path class="cls-2" d="m269.24,542.09c-4.45,1.28-7.7-2.83-11.8-4.65-1.3-.57-1.82-2.04-2.14-3.47-1.16-5.31-1.55-10.35,2.36-15.02,4.25-5.09,9.32-7.1,15.81-5.85,1.28.25,2.41.54,2.97,1.7,1.74,3.39,4.4,6.19,6.27,9.49,1.87,3.32,2.31,6.37-.34,10.33-4.35,6.51-5.58,8.04-13.13,7.47"/><path class="cls-2" d="m835.56,79.94c.74.07,1.84-.07,2.7.32,4.67,2.19,9.42,4.67,12.49,8.8,5.38,7.25,1.4,16.69-7.62,18.93-2.09.52-4.3,1.08-6.42.91-4.03-.29-7.74-1.47-9.51-5.85-.81-1.99-2.14-3.81-3.27-5.68-4.33-7.25-.05-16.03,8.38-17.16.98-.12,1.99-.17,3.25-.27"/><path class="cls-2" d="m69.97,1202.54c.1-6.12,3.59-10.15,8.53-12.81,3.81-2.09,7.99-.22,11.55,1.13,2.16.81,4.42,2.68,6.22,4.45,2.78,2.73,4.6,5.65,2.56,10.08-1.89,4.08-1.77,9.02-5.28,12.54-1.03,1.03-1.94,1.79-3.44,1.89-8.21.61-17.85-6.27-19.86-14.31-.25-.96-.2-1.97-.27-2.97"/><path class="cls-2" d="m1334.19,716.85c.39,5.83-2.16,9.66-7.55,11.6-.54.2-1.25,1.01-1.45.89-3.64-2.26-5.04-.74-5.41,2.95-.1.98-1.06,1.18-1.84,1.06-4.11-.57-7.38-2.65-9.71-6.02-1.23-1.77-.79-3.56.42-5.51,1.08-1.79,1.06-3.88-2.11-2.53-2.16.91-1.28-1.16-1.23-1.43,1.13-5.01,2.9-9.83,4.97-14.53.52-1.2,1.67-1.7,2.88-1.94,6.37-1.4,12.27-1.45,16.08,5.24,1.16,2.04,2.65,3.91,4.08,5.8,1.06,1.38,1.08,2.93.89,4.42"/><path class="cls-2" d="m137.45,1322.07c-9.93-.1-15.17-6.32-18.09-14.06-1.2-3.2,2.04-10.35,5.61-12.54,2.33-1.45,4.99-3.07,7.6-3.24,5.11-.37,9.07,3.37,13.47,5.33,2.75,1.23,4.01,4.3,4.6,7.35.81,4.08-.71,7.13-4.7,9.05-1.2.59-1.74,1.47-2.09,2.7-1.47,5.41-1.5,5.38-6.39,5.41"/><path class="cls-2" d="m1352.03,1280.51c-.93,4.06-3.25,6.91-6.56,8.46-5.73,2.7-13.62.57-17.87-4.47-2.26-2.7-3.56-5.6-1.16-8.97.89-1.23,1.13-2.56.37-3.96-.74-1.38-2.29-2.85-1.2-4.33,1.62-2.21,2.38-5.38,5.01-6.47,8.11-3.34,16.1-3.37,18.66,7.89.74,3.27,2.39,6.32,2.36,9.78-.02.79.3,1.55.39,2.06"/><path class="cls-2" d="m83.5,1021.08c.56-5.78,1.06-11.5,5.6-15.95,1.6-1.55,3.07-2.34,5.24-1.89,1.16.25,2.38.22,3.52.49,4.23,1.01,8.11,2.48,9.14,7.42.05.2.2.37.27.54,5.14,11.53,2.43,15.54-8.01,22.62-4.18,2.83-13.99-2.46-15.36-7.84-.47-1.75-.69-3.54-.39-5.38"/><path class="cls-2" d="m644,182.1c4.96-.37,7.32,1.97,9.56,4.18,1.67,1.62,2.68,3.91,4.3,5.63,6.71,7.05,2.16,15.63-4.94,18.95-7.87,3.64-15.66.2-18.34-8.46-1.33-4.3-3.69-8.78-.59-13.64,2.75-4.35,7.28-5.09,10.01-6.66"/><path class="cls-2" d="m413.73,262.3c-7.77.2-12.32-5.65-10.3-13.2,1.08-4.08,2.09-8.01,6.1-10.55,8.16-5.19,20.3-1.3,23.62,7.77,2.56,7.01-1.62,14.21-8.87,14.7-3.56.25-6.91,1.84-10.55,1.28m-3.88,19.59c-1.13.22-1.8.93-1.62,2.07.12.86.91,1.43,1.72,1.3,1.06-.15,1.84-.86,1.65-2.06-.15-.86-.91-1.18-1.74-1.3"/><path class="cls-2" d="m1034.09,1352.29c-10.06,1.62-18.81-11.97-14.95-22.12.86-2.24,1.82-4.47,3.69-6.07,4.57-3.96,13.86-2.04,17.45,3.69,1.16,1.84,1.84,3.98,2.98,5.85,3.86,6.39,1.43,11.73-2.61,16.94-1.99,2.58-4.82,1.11-6.56,1.72"/><path class="cls-2" d="m868.16,1550.45c-2.16,1.23-3.71,0-5.23-1.43-2.31-2.21-5.06-4.08-6.93-6.61-5.58-7.67-2.9-15.02,5.11-19.17,2.63-1.35,16.72,1.72,18.68,3.96,2.16,2.46,3.34,5.33,3.05,8.73-.89,9.76-4.57,13.45-14.68,14.53m-213.11-122.03c-.03-.79-.15-1.72-1.01-1.79-1.38-.12-1.38,1.08-1.35,2.02.02.74.17,1.67,1.25,1.52.91-.12,1.03-.98,1.11-1.75"/><path class="cls-2" d="m1267.46,311.79c.66-1.28-.05-2.38-.22-3.54-.96-6.76.37-9.78,5.09-11.68,7.84-3.17,11.87-2.43,15.85,3.12,1.74,2.41,3.37,4.94,4.77,7.55,2.83,5.36-1.89,14.28-8.6,16.5-7.32,2.38-14.77-1.55-16.81-8.7-.37-1.2-.84-2.19-.07-3.24"/><path class="cls-2" d="m1167.29,227.56c2.24-.91,3.42.47,4.77,2.14,2.85,3.54,6.44,6.47,7.67,11.16.47,1.82.79,3.64.12,5.26-1.65,4.11-3.91,7.87-7.01,11.14-2.78,2.9-6.37,3.12-9.91,3.42-5.04.42-6.32-.71-8.43-5.36-2.51-5.48-1.97-11.36-1.82-16.94.15-4.5,7.77-12.02,14.6-10.82m5.88,22.81c-.12-2.63-3.42-5.65-6-5.51-2.63.17-5.02,2.21-4.99,4.25.05,3.61,2.36,6.27,5.21,6,3.29-.29,5.88-2.43,5.78-4.74"/><path class="cls-2" d="m127.4,667.85c-7.33-.34-10.42-2.68-12.22-7.84-1.03-2.9,1.16-4.87,1.45-7.4,1.57-13.37,14.58-14.9,23.08-9.49,3.1,1.99,4.79,9.51,3.2,12.91-2.43,5.06-6.86,8.01-11.26,11.06-1.72,1.18-3.37.96-4.25.76"/><path class="cls-2" d="m634.37,1330.6c4.52.22,7.67,3.54,9.96,6.71,2.93,4.13,4.67,8.95,2.46,14.55-2.6,6.54-10.37,9.64-16.42,6.12-5.11-2.95-8.63-6.86-9.86-12.73-1.38-6.54,3.42-13.1,10.2-13.86,1.18-.12,2.34-.49,3.66-.79"/><path class="cls-2" d="m135.53,1106.77c-7.01.17-11.6-3.15-14.43-9.37-1.72-3.79.17-9.56,4.15-11.9,3.25-1.89,6.54-3.76,9.91-5.48,4.74-2.43,12.66,1.2,13.79,6.44.96,4.35.81,8.63-2.11,12.39-1.23,1.55-2.43,3.12-3.52,4.79-1.89,2.93-4.77,3.2-7.79,3.12"/><path class="cls-2" d="m404.41,1277.82c-.17,7.47-1.87,10.05-8.83,12.37-3.12,1.03-6.15,1.92-9.78,1.57-6.96-.61-8.43-6-10.42-10.67-1.13-2.61-.02-5.97,2.38-8.14,5.16-4.6,10.99-7.94,18.22-6.78,5.51.91,8.58,5.51,8.43,11.65"/><path class="cls-2" d="m1101.74,1245.24c.81,4.33-2.33,8.43-5.65,12.46-.79.96-1.84,1.52-3.05,1.79-6.1,1.4-10.91-1.35-15.29-4.97-3.98-3.29-4.01-7.99-3.47-12.64.12-1.18.64-2.31,1.03-3.44,1.77-4.87,5.24-6.69,10.42-6.37,2.88.17,5.46,1.18,8.19,1.7,5.48,1.03,7.89,4.47,7.82,11.46"/><path class="cls-2" d="m525.78,1840.22c3.74.05,7.05,1.45,9.83,3.81,2.48,2.14,3.61,4.45,2.75,8.36-1.55,7.01-4.55,12.54-10.69,16.25-1.97,1.2-3.61,1.62-6.05.42-7.92-3.93-9.19-6.05-7.87-15.07.27-1.77.1-3.61.49-5.36,1.16-5.11,5.83-8.43,11.53-8.41"/><path class="cls-2" d="m149.8,729.24c4.94-1.16,8.68-.49,12.34,2.97,2.51,2.34,4.72,4.82,6.54,7.57,4.38,6.61,2.26,14.97-4.52,17.53-4.23,1.6-8.68,1.28-12.34-1.79-2.29-1.92-4.25-4.18-6.12-6.54-2.56-3.22-2.92-6.88-2.8-10.67.12-3.79,1.62-4.57,5.09-2.9,1.11.54,2.19,1.23,3.29.34,1.18-.96.61-2.16.07-3.27-.27-.52-.69-.96-.98-1.5-.17-.32-.25-.71-.56-1.75"/><path class="cls-2" d="m893.4,1634.69c-.25,3.17,0,6.49-2.09,9.22-1.35,1.77-2.16,4.55-5.48,3.12-.52-.2-1.89.37-2.06.86-1.72,4.6-4.15,1.7-6.54.84-6.61-2.34-8.48-7.96-8.24-13.84.27-6.51,2.53-12.56,9.76-15.09,1.4-.49,2.6-.89,4.01-.42,6.93,2.31,11.04,8.21,10.65,15.31"/><path class="cls-2" d="m189.91,908.81c1.11,9.27-4.28,12.07-10.82,13.42-1.5.3-3.05.52-4.57.84-3.37.66-6.96,1.62-9.64-2.09-3.2-4.43-5.73-8.85-2.61-14.28,4.35-7.55,19.49-10.23,26.03-4.7,2.36,1.99,1.16,4.87,1.6,6.81m-25.49,1.33c.1,1.4.74,2.43,2.14,2.38,2.02-.02,3.32-1.3,3.59-3.24.17-1.35-.86-2.21-2.19-2.19-1.99,0-3.42.86-3.54,3.05"/><path class="cls-2" d="m425.07,1754.51c-9.29.15-15.27-5.26-15.24-13.74,0-6.02,7.47-12.59,14.41-12.66,6.07-.07,12,8.01,12.49,16.96.24,4.92-5.21,9.34-11.65,9.44"/><path class="cls-2" d="m158.69,515.26c5.41.17,10.45,3.54,11.9,7.79,1.6,4.57.05,11.55-3.69,14.48-3.32,2.58-7.55,2.46-11.41,2.09-6.74-.69-11.63-5.7-12.81-12.27-.47-2.65,2.26-8.21,5.33-9.37,3.49-1.35,7.28-1.89,10.67-2.73"/><path class="cls-2" d="m374.2,1654.31c-1.79-3.22,1.3-3.39,2.8-3.74,5.04-1.11,8.7,2.02,12.36,4.82.44.34.69.96,1.03,1.45,1.5,2.21,4.52,3.2,4.52,6.69,0,2.51-.32,5.04-1.52,6.91-2.8,4.33-9.96,8.16-16.13,6.29-4.13-1.25-7.37-3.84-10.45-6.61-2.09-1.92-2.31-4.65-1.65-7.28.52-2.11,1.35-4.18,2.31-6.15,1.03-2.11,2.31-4.15,4.23-.49.37.69,1.35.88,2.09.3.71-.57.66-1.38.39-2.19m2.41,3.15c.32,1.38-.42,3.37,1.92,3.61,1.57.2,3.98-2.41,3.54-3.91-.49-1.67-1.25-3.74-3.27-3.74-2.51,0-2.14,2.26-2.19,4.03"/><path class="cls-2" d="m1104.78,1472.02c-.05,7.99-9.66,15.95-16.94,13.84-3.47-1.01-5.8-4.23-7.99-6.81-4.33-5.14-2.36-13.57,3.34-17.06,4.77-2.9,15.93-1.35,19.45,2.95,1.65,2.02,2.83,4.4,2.14,7.08"/><path class="cls-2" d="m257.57,1261.04c6.71.1,11.55,6.81,11.77,13.67.25,6.93-4.47,9.37-8.65,12.46-2.38,1.79-9.49.1-11.68-2.41-3.42-3.91-5.16-8.63-4.87-13.74.37-6.74,5.14-10.1,13.42-9.98"/><path class="cls-2" d="m242.22,787.75c-4.25.69-7.23-1.35-10.15-3.49-2.7-1.94-3.79-4.6-3.37-7.84.69-5.16,2.97-9.51,7.08-12.76,3.74-2.95,7.67-3.17,11.63-.81,5.51,3.29,8.55,10.05,7.42,16.5-.66,3.74-5.26,7.67-9.93,8.38-.98.15-1.99.02-2.68.02m-1.94-60.79c1.23-.05,2.33-.47,2.29-1.94-.02-1.2-.57-2.43-1.87-2.58-1.55-.15-2.63.71-2.65,2.36-.03,1.35.81,2.09,2.24,2.16"/><path class="cls-2" d="m1063.3,720.85c7.84.49,13.96,6.34,13.35,12.86-.66,7.06-7.87,11.7-15.73,11.73-6.29.02-10.96-6.34-10.5-13.86.42-6.93,5.53-11.19,12.88-10.72"/><path class="cls-2" d="m638.26,1553.05c-8.02.15-13.99-5.58-13.72-13,.15-3.88,2.26-7.25,5.58-8.73,5.04-2.24,10.65-2.56,15.61.29,3.88,2.24,5.63,6.51,5.63,10.67-.02,4.35-2.31,7.92-7.13,9.24-2.11.59-4.06,1.72-5.97,1.52"/><path class="cls-2" d="m278.97,866.77c-.25-6.46,3.56-10.79,8.5-13.35,3.86-2.02,9.07-1.06,12.32,1.87,3.05,2.75,4.84,6.44,3,11.7-1.97,5.58-4.47,9.34-10.1,11.26-2.21.74-3.49.47-5.36-.76-2.68-1.77-5.16-3.61-7.01-6.32-.93-1.4-1.13-2.93-1.35-4.4"/><path class="cls-2" d="m1260.98,403c1.43,7.28-2.68,11.55-7.4,14.9-4.06,2.9-9.22,2.09-13.18-.22-3.54-2.06-5.9-5.92-5.78-10.47.07-2.16.64-4.33,1.08-6.49.1-.54.42-1.35.84-1.5,5.09-1.84,9.29-5.9,15-6.1,1.97-.07,2.51,1.84,1.45,4.67-1.16,3.05-.35,5.78,1.92,6.86,2.33,1.11,3.59-1.3,6.07-1.65"/><path class="cls-2" d="m1133.22,327.64c-.74,5.26-2.56,9.73-7.28,12.61-1.5.91-2.95,1.01-4.57.81-9.88-1.18-15.96-12.96-10.42-21.24,2.26-3.37,5.41-7.01,10.59-6.59,5.51.47,8.53,3.96,10.45,8.63.74,1.79.86,3.88,1.23,5.78m-6.1,2.53c2.02-.15,3.37-2.29,2.11-3.74-1.38-1.6-3.12-3-4.92-4.11-1.08-.66-2.24.29-3.05,1.18-.66.69-1.25,1.52-.89,2.61.22.64,6.05,4.11,6.74,4.06"/><path class="cls-2" d="m446.72,165c.2-7.01,7.52-13.27,14.72-12.98,4.82.2,10.5,7.23,10.2,12.66-.34,6.27-7.67,12.81-13.91,12.27-3.79-.32-6.56-2.97-9.27-5.09-1.72-1.35-2.7-4.45-1.74-6.86m15.61-2.02c-.08-1.35-.76-2.33-2.07-2.48-1.38-.17-2.24.89-2.33,2.11-.12,1.57.84,2.73,2.38,2.83,1.5.07,1.74-1.3,2.02-2.46"/><path class="cls-2" d="m714.69,115.67c-5.75.07-11.58-5.11-11.6-10.37-.05-7.82,7.28-12.17,14.26-12.36,6.24-.15,9.76,4.33,9.88,12.12.12,6.12-5.06,10.52-12.54,10.62"/><path class="cls-2" d="m566.14,1210.28c-.05-4.13,6.44-9.66,10.81-9.22,4.94.52,9.49,4.4,10.67,9.14.79,3.12-2.46,9.44-5.97,11.63-3.39,2.09-6,1.7-9.73-1.45-3.66-3.12-5.75-6.74-5.78-10.1"/><path class="cls-2" d="m992.28,145.18c-5.34.15-8.58-2.83-8.8-8.09-.37-7.67,4.4-12.17,8.46-12.73,4.92-.66,10.69,4.77,11.06,9.59.44,5.8-4.42,12.59-10.72,11.23"/><path class="cls-2" d="m627.59,405.22c-5.34.15-8.58-2.83-8.8-8.09-.37-7.67,4.4-12.17,8.46-12.73,4.92-.66,10.69,4.77,11.06,9.61.44,5.78-4.42,12.56-10.72,11.21"/><path class="cls-2" d="m339.6,606.92c3.98.07,8.28,5.85,8.01,10.74-.3,4.6-6.29,9.39-11.63,9.24-4.11-.12-9-5.43-8.85-9.64.17-5.73,5.88-10.45,12.46-10.35"/><path class="cls-2" d="m555.13,187.19c3.98.07,8.28,5.85,7.99,10.74-.27,4.6-6.27,9.39-11.6,9.24-4.11-.12-9-5.43-8.85-9.64.17-5.73,5.88-10.45,12.46-10.35"/><path class="cls-2" d="m765.66,2000C343.48,2000,0,1656.52,0,1234.34v-468.68C0,343.48,343.48,0,765.66,0s765.67,343.48,765.67,765.66v468.68c0,422.18-343.48,765.66-765.67,765.66Zm0-1952.83C369.48,47.17,47.17,369.48,47.17,765.66v468.68c0,396.18,322.31,718.49,718.49,718.49s718.5-322.31,718.5-718.49v-468.68c0-396.18-322.32-718.49-718.5-718.49Z"/></g></svg>