<?xml version="1.0" encoding="UTF-8"?>
<svg id="Layer_2" data-name="Layer 2" xmlns="http://www.w3.org/2000/svg" viewBox="0 0 670.65 351.82">
  <defs>
    <style>
      .cls-1 {
        fill: #ea0029;
      }

      .cls-2 {
        fill: #f1e4b2;
      }
    </style>
  </defs>
  <g id="art">
    <g id="single_line" data-name="single line">
      <g>
        <path class="cls-1" d="m578.23,20.38c10.3,0,13.6-7.79,13.6-11.63,0-4.16-3.33-7.49-7.28-7.49h-30.57c-3.25,0-14.23.88-14.23,12.26v132.27c0,4.37,3.33,7.9,7.9,7.9h30.57c11.43,0,13.6-7.78,13.6-11.84s-3.33-7.28-7.28-7.28h-20.8v-48.68h9.28c10.24,0,13.6-7.79,13.6-11.63,0-4.16-3.33-7.49-7.28-7.49h-15.6V20.38h14.47Z"/>
        <path class="cls-1" d="m32.74,54.92c-4.58-4.78-7.07-11.44-7.07-18.72v-11.44c0-1.91.58-3.69,1.56-5.2.68-.15,1.38-.23,2.1-.23,5.41,0,9.77,4.37,9.77,9.98v10.25c-.13,9.52,9.78,10.54,9.78,10.54,8.38,1.48,14.23-3.78,14.23-12.46v-10.82C63.1,12.07,51.25.22,36.48.22h-1.87C16.17.22,1.66,9.47,1.66,31.19v11.86c0,11.23,4.99,21.21,12.27,28.91l17.47,18.72c4.99,5.2,8.32,12.06,8.32,19.97v16.08c0,4.26-.63,6.98-1.71,8.62-.76.17-1.55.27-2.36.27h-1.25c-5.82,0-10.4-4.58-10.4-10.4v-21.63c0-4.37-3.54-7.9-7.9-7.9h-1.87c-8.31,0-14.23,3.99-14.23,12.25v20.17c0,14.77,11.85,26.62,26.62,26.62h4.16c18.71,0,33.15-11.73,33.15-30.97v-19.97c0-11.23-4.99-21.21-12.27-28.91l-18.93-19.97Z"/>
        <path class="cls-1" d="m424.83,54.92c-4.58-4.78-7.07-11.44-7.07-18.72v-11.44c0-1.91.58-3.69,1.56-5.2.68-.15,1.38-.23,2.1-.23,5.41,0,9.77,4.37,9.77,9.98v10.25c-.13,9.52,9.78,10.54,9.78,10.54,8.38,1.48,14.23-3.78,14.23-12.46v-10.82c0-14.77-11.85-26.62-26.62-26.62h-1.87c-18.43,0-32.94,9.25-32.94,30.97v11.86c0,11.23,4.99,21.21,12.27,28.91l17.47,18.72c4.99,5.2,8.32,12.06,8.32,19.97v16.08c0,4.26-.63,6.98-1.71,8.62-.76.17-1.55.27-2.36.27h-1.25c-5.82,0-10.4-4.58-10.4-10.4v-21.63c0-4.37-3.54-7.9-7.9-7.9h-1.87c-8.31,0-14.23,3.99-14.23,12.25v20.17c0,14.77,11.85,26.62,26.62,26.62h4.16c18.71,0,33.15-11.73,33.15-30.97v-19.97c0-11.23-4.99-21.21-12.27-28.91l-18.93-19.97Z"/>
        <path class="cls-1" d="m118.52,73.22l23.71-62.81c.42-1.04.62-1.66.62-2.7,0-3.95-3.14-7.01-7.7-7.49-6.78-.71-10.54,2.04-12.98,8.51l-18.43,48.46V8.12c0-4.37-3.54-7.9-7.9-7.9h-1.46c-6.59,0-14.23.54-14.23,12.25l.21,65.31-.21,69.05c0,4.37,3.33,7.9,7.9,7.9h1.46c6.3-.06,14.23-5.36,14.23-12.25l.14-40.7,17.13,44.82c1.04,3.33,5.17,7.5,8.65,8.13,5.21.94,14.64-2.33,14.64-12.88,0-.83-.21-1.87-.62-2.91l-25.17-65.72Z"/>
        <path class="cls-1" d="m220,7.91c0-4.37-3.33-7.9-7.7-7.9-3.05,0-11.96-.76-14.23,10.17l-11.56,44.65-12.69-49C172.78,2.09,169.46.01,165.71.01c-3.21,0-16.46,2.75-14.64,12.67.34,1.87.98,5.02,1.19,5.86l21.9,80.66v46.05c0,4.51,2.89,9.48,7.9,9.48h1.87c11.4,0,14.23-8.14,14.23-12.25v-51.58l21.63-80.9c.21-.83.21-1.25.21-2.08Z"/>
        <path class="cls-1" d="m294.65,127.09V23.51c0-12.27-9.98-22.25-22.25-22.25h-25.79c-3.25,0-14.23,1-14.23,12.26v132.27c0,4.37,3.33,7.9,7.9,7.9h25.79c24.41,0,28.58-17.64,28.58-26.6Zm-26.41,7.49h-11.85V20.38h5.53c4.99,0,8.94,3.74,8.94,8.73v101.08c0,1.57-.39,3.01-1.08,4.25-.5.08-1.01.13-1.54.13Z"/>
        <path class="cls-1" d="m376.69,124.17V8.12c0-4.37-3.53-7.9-8.11-7.9h-1.87c-3.1,0-14.23.41-14.23,12.25v117.09c0,2.14-.65,4.1-1.75,5.74-.81.19-1.66.31-2.53.31-5.62,0-10.4-4.58-10.4-10.4V8.12c0-4.37-3.33-7.9-7.9-7.9h-1.87c-3.1,0-14.23.79-14.23,12.25v116.05c0,14.35,11.85,26.2,26.2,26.2h4.16c24.08,0,32.53-16.99,32.53-30.56Z"/>
        <path class="cls-1" d="m522.26,1.26h-47.42c-3.05,0-13.81,1.06-13.81,11.84,0,3.95,3.33,7.28,7.49,7.28h14.77v126.24c0,4.57,3.54,7.9,8.11,7.9h1.66c12.3,0,14.43-8.02,14.43-12.25V20.38h8.44c2.92,0,13.6-7.79,13.6-11.63,0-4.16-3.33-7.49-7.28-7.49Z"/>
        <path class="cls-1" d="m667.12,138.73c-1.46-.42-2.49-2.08-2.49-3.74v-41.18c0-8.32-4.16-15.6-10.61-19.76l.83-.42c7.07-4.16,11.65-11.65,11.65-20.59v-29.53c0-12.27-10.19-22.25-22.46-22.25h-25.58c-3.25,0-14.23.5-14.23,12.26v133.31c0,4.37,3.54,7.9,8.11,7.9h1.87c11.76,0,14.02-8.08,14.02-12.25v-56.8h3.45c4.99,0,9.57,3.95,9.57,8.94v46.79c0,7.49,5.82,13.31,13.31,13.31h4.37c8.62,0,11.73-6.43,11.73-9.34v-1.87c0-2.08-1.46-3.95-3.54-4.78Zm-27.04-72.17h-11.86V20.38h5.53c4.99,0,8.94,3.74,8.94,8.73v32.86c0,1.64-.43,3.16-1.18,4.47-.47.07-.95.12-1.44.12Z"/>
        <path class="cls-1" d="m385.03,217.47c10.3,0,13.6-7.79,13.6-11.63,0-4.16-3.33-7.49-7.28-7.49h-30.57c-3.25,0-14.23.88-14.23,12.26v132.27c0,4.37,3.33,7.9,7.9,7.9h30.57c11.43,0,13.6-7.78,13.6-11.84s-3.33-7.28-7.28-7.28h-20.8v-48.68h9.28c10.24,0,13.6-7.79,13.6-11.63,0-4.16-3.33-7.49-7.28-7.49h-15.6v-46.39h14.47Z"/>
        <path class="cls-1" d="m320.56,217.47c10.3,0,13.6-7.79,13.6-11.63,0-4.16-3.33-7.49-7.28-7.49h-30.57c-3.25,0-14.23.88-14.23,12.26v132.27c0,4.37,3.33,7.9,7.9,7.9h30.57c11.43,0,13.6-7.78,13.6-11.84s-3.33-7.28-7.28-7.28h-20.8v-48.68h9.28c10.24,0,13.6-7.79,13.6-11.63,0-4.16-3.33-7.49-7.28-7.49h-15.6v-46.39h14.47Z"/>
        <path class="cls-1" d="m473.92,335.82c-1.46-.42-2.49-2.08-2.49-3.74v-41.18c0-8.32-4.16-15.6-10.61-19.76l.83-.42c7.07-4.16,11.65-11.65,11.65-20.59v-29.53c0-12.27-10.19-22.25-22.46-22.25h-25.58c-3.25,0-14.23.5-14.23,12.26v133.31c0,4.37,3.54,7.9,8.11,7.9h1.87c11.76,0,14.02-8.08,14.02-12.25v-56.8h3.45c4.99,0,9.57,3.95,9.57,8.94v46.79c0,7.49,5.82,13.31,13.31,13.31h4.37c8.62,0,11.73-6.43,11.73-9.34v-1.87c0-2.08-1.46-3.95-3.54-4.78Zm-27.04-72.17h-11.86v-46.19h5.53c4.99,0,8.94,3.74,8.94,8.73v32.86c0,1.64-.43,3.16-1.18,4.47-.47.07-.95.12-1.44.12Z"/>
        <path class="cls-1" d="m249.66,269.12c.1-.09.2-.18.3-.28,8.09-3.84,13.91-12.22,13.91-21.62v-26.62c0-12.27-9.98-22.25-22.25-22.25h-24.54c-3.25,0-14.23.55-14.23,12.26v132.27c0,4.37,3.33,7.9,7.9,7.9h25.79c26.34,0,28.58-17.64,28.58-26.6v-32.86c0-10.14-6.38-18.83-15.46-22.2Zm-12.41-6.3h-10.4v-45.36h4.08c4.99,0,8.94,3.74,8.94,8.73v32.03c0,1.64-.43,3.16-1.18,4.47-.47.07-.95.12-1.44.12Zm1.46,68.84h-11.85v-51.59h5.53c4.99,0,8.94,3.95,8.94,8.94v38.27c0,1.57-.39,3.01-1.08,4.25-.5.08-1.01.13-1.54.13Z"/>
      </g>
      <g>
        <path class="cls-2" d="m37.1,150.38h-4.16c-14.77,0-26.62-11.85-26.62-26.62v-20.17c0-4.37,3.54-7.9,7.9-7.9h1.87c4.37,0,7.9,3.53,7.9,7.9v21.63c0,5.82,4.58,10.4,10.4,10.4h1.25c5.82,0,10.4-4.58,10.4-10.4v-18.93c0-7.9-3.33-14.77-8.32-19.97l-17.47-18.72c-7.28-7.7-12.27-17.68-12.27-28.91v-11.86C7.99,12.07,19.84.22,34.61.22h1.87c14.77,0,26.62,11.86,26.62,26.62v10.82c0,4.57-3.54,8.11-7.9,8.11h-1.87c-4.37,0-7.9-3.54-7.9-8.11v-12.69c0-5.62-4.37-9.98-9.77-9.98s-9.98,4.37-9.98,9.77v11.44c0,7.28,2.5,13.93,7.07,18.72l18.93,19.97c7.28,7.7,12.27,17.68,12.27,28.91v19.97c0,14.77-11.85,26.62-26.83,26.62Z"/>
        <path class="cls-2" d="m144.31,141.85c0,4.58-3.54,8.53-8.32,8.53-3.54,0-6.66-1.87-7.7-5.2l-24.33-64.27-.21,61.56c0,4.37-3.54,7.9-7.9,7.9h-1.46c-4.58,0-7.9-3.54-7.9-7.9l.21-69.05-.21-65.31c0-4.37,3.33-7.9,7.9-7.9h1.46c4.37,0,7.9,3.54,7.9,7.9v61.35L128.5,4.38c1.66-2.91,3.74-4.16,6.66-4.16,4.58,0,7.7,3.54,7.7,7.49,0,1.04-.21,1.66-.62,2.7l-23.71,62.81,25.17,65.72c.42,1.04.62,2.08.62,2.91Z"/>
        <path class="cls-2" d="m198.16,90.9v51.58c0,4.37-3.54,7.9-7.9,7.9h-1.87c-4.37,0-7.9-3.54-7.9-7.9v-47.63l-22.88-84.44c-.21-.83-.21-1.46-.21-2.08C157.39,3.55,161.14.01,165.71.01c3.74,0,7.07,2.08,8.11,5.82l13.52,52.2c.42,1.87,1.46,8.32,1.87,11.85.21-3.53,1.25-9.57,1.66-11.85l13.52-52.2C205.44,2.3,208.76.01,212.3.01c4.37,0,7.7,3.54,7.7,7.9,0,.83,0,1.25-.21,2.08l-21.63,80.9Z"/>
        <path class="cls-2" d="m272.4,149.34h-25.79c-4.58,0-7.9-3.54-7.9-7.9V9.16c0-4.37,3.33-7.9,7.9-7.9h25.79c12.27,0,22.25,9.98,22.25,22.25v103.57c0,12.27-9.98,22.25-22.25,22.25Zm4.78-124.58c0-4.99-3.95-8.73-8.94-8.73h-11.85v118.55h11.85c4.99,0,8.94-3.74,8.94-8.73V24.76Z"/>
        <path class="cls-2" d="m350.49,150.38h-4.16c-14.35,0-26.2-11.85-26.2-26.2V8.12c0-4.37,3.54-7.9,7.9-7.9h1.87c4.58,0,7.9,3.54,7.9,7.9v117.09c0,5.82,4.78,10.4,10.4,10.4s10.61-4.58,10.61-10.4V8.12c0-4.37,3.54-7.9,7.9-7.9h1.87c4.58,0,8.11,3.54,8.11,7.9v116.05c0,14.35-11.85,26.2-26.2,26.2Z"/>
        <path class="cls-2" d="m429.19,150.38h-4.16c-14.77,0-26.62-11.85-26.62-26.62v-20.17c0-4.37,3.54-7.9,7.9-7.9h1.87c4.37,0,7.9,3.53,7.9,7.9v21.63c0,5.82,4.57,10.4,10.4,10.4h1.25c5.82,0,10.4-4.58,10.4-10.4v-18.93c0-7.9-3.33-14.77-8.32-19.97l-17.47-18.72c-7.28-7.7-12.27-17.68-12.27-28.91v-11.86c0-14.77,11.85-26.62,26.62-26.62h1.87c14.77,0,26.62,11.86,26.62,26.62v10.82c0,4.57-3.54,8.11-7.9,8.11h-1.87c-4.37,0-7.9-3.54-7.9-8.11v-12.69c0-5.62-4.37-9.98-9.77-9.98s-9.98,4.37-9.98,9.77v11.44c0,7.28,2.5,13.93,7.07,18.72l18.93,19.97c7.28,7.7,12.27,17.68,12.27,28.91v19.97c0,14.77-11.86,26.62-26.83,26.62Z"/>
        <path class="cls-2" d="m522.26,16.03h-14.77v126.24c0,4.57-3.54,7.9-8.11,7.9h-1.66c-4.58,0-8.11-3.33-8.11-7.9V16.03h-14.77c-4.16,0-7.49-3.33-7.49-7.28,0-4.16,3.33-7.49,7.49-7.49h47.42c3.95,0,7.28,3.33,7.28,7.49s-3.33,7.28-7.28,7.28Z"/>
        <path class="cls-2" d="m584.55,149.34h-30.57c-4.58,0-7.9-3.54-7.9-7.9V9.16c0-4.37,3.33-7.9,7.9-7.9h30.57c3.95,0,7.28,3.33,7.28,7.49s-3.33,7.28-7.28,7.28h-20.8v50.75h15.6c3.95,0,7.28,3.33,7.28,7.49s-3.33,7.28-7.28,7.28h-15.6v53.03h20.8c3.95,0,7.28,3.33,7.28,7.28,0,4.16-3.33,7.49-7.28,7.49Z"/>
        <path class="cls-2" d="m665.24,150.38h-4.37c-7.49,0-13.31-5.82-13.31-13.31v-46.79c0-4.99-4.58-8.94-9.57-8.94h-9.78v61.15c0,4.37-3.33,7.9-7.7,7.9h-1.87c-4.57,0-8.11-3.54-8.11-7.9V9.16c0-4.37,3.33-7.9,7.9-7.9h25.58c12.27,0,22.46,9.98,22.46,22.25v29.53c0,8.94-4.58,16.43-11.65,20.59l-.83.42c6.45,4.16,10.61,11.44,10.61,19.76v41.18c0,1.66,1.04,3.33,2.49,3.74,2.08.83,3.54,2.7,3.54,4.78v1.87c0,2.91-2.7,4.99-5.41,4.99Zm-16.22-125.62c0-4.99-3.95-8.73-8.94-8.73h-11.86v50.54h11.86c4.99,0,8.94-3.95,8.94-8.94V24.76Z"/>
        <g>
          <path class="cls-2" d="m242.87,346.43h-25.79c-4.58,0-7.9-3.54-7.9-7.9v-132.27c0-4.37,3.33-7.9,7.9-7.9h24.54c12.27,0,22.25,9.98,22.25,22.25v26.62c0,9.57-6.03,18.09-14.35,21.84,9.15,3.33,15.6,12.06,15.6,22.25v32.86c0,12.27-9.98,22.25-22.25,22.25Zm3.33-124.58c0-4.99-3.95-8.73-8.94-8.73h-10.4v49.71h10.4c4.99,0,8.94-3.95,8.94-8.94v-32.03Zm1.46,62.81c0-4.99-3.95-8.94-8.94-8.94h-11.85v55.94h11.85c4.99,0,8.94-3.74,8.94-8.73v-38.27Z"/>
          <path class="cls-2" d="m326.89,346.43h-30.57c-4.58,0-7.9-3.54-7.9-7.9v-132.27c0-4.37,3.33-7.9,7.9-7.9h30.57c3.95,0,7.28,3.33,7.28,7.49s-3.33,7.28-7.28,7.28h-20.8v50.75h15.6c3.95,0,7.28,3.33,7.28,7.49s-3.33,7.28-7.28,7.28h-15.6v53.03h20.8c3.95,0,7.28,3.33,7.28,7.28,0,4.16-3.33,7.49-7.28,7.49Z"/>
          <path class="cls-2" d="m391.35,346.43h-30.57c-4.58,0-7.9-3.54-7.9-7.9v-132.27c0-4.37,3.33-7.9,7.9-7.9h30.57c3.95,0,7.28,3.33,7.28,7.49s-3.33,7.28-7.28,7.28h-20.8v50.75h15.6c3.95,0,7.28,3.33,7.28,7.49s-3.33,7.28-7.28,7.28h-15.6v53.03h20.8c3.95,0,7.28,3.33,7.28,7.28,0,4.16-3.33,7.49-7.28,7.49Z"/>
          <path class="cls-2" d="m472.05,347.47h-4.37c-7.49,0-13.31-5.82-13.31-13.31v-46.79c0-4.99-4.58-8.94-9.57-8.94h-9.78v61.15c0,4.37-3.33,7.9-7.7,7.9h-1.87c-4.57,0-8.11-3.54-8.11-7.9v-133.31c0-4.37,3.33-7.9,7.9-7.9h25.58c12.27,0,22.46,9.98,22.46,22.25v29.53c0,8.94-4.58,16.43-11.65,20.59l-.83.42c6.45,4.16,10.61,11.44,10.61,19.76v41.18c0,1.66,1.04,3.33,2.49,3.74,2.08.83,3.54,2.7,3.54,4.78v1.87c0,2.91-2.7,4.99-5.41,4.99Zm-16.22-125.62c0-4.99-3.95-8.73-8.94-8.73h-11.86v50.54h11.86c4.99,0,8.94-3.95,8.94-8.94v-32.86Z"/>
        </g>
      </g>
    </g>
  </g>
</svg>