<?xml version="1.0" encoding="UTF-8"?>
<svg id="Layer_2" data-name="Layer 2" xmlns="http://www.w3.org/2000/svg" viewBox="0 0 1000 153.45">
  <defs>
    <style>
      .cls-1 {
        fill: #ea0029;
      }

      .cls-2 {
        fill: #f1e4b2;
      }
    </style>
  </defs>
  <g id="art">
    <g id="stacked">
      <path class="cls-1" d="m572.88,20.19c10.2,0,13.48-7.72,13.48-11.52,0-4.12-3.3-7.42-7.21-7.42h-30.29c-3.22,0-14.09.87-14.09,12.14v131.05c0,4.33,3.3,7.83,7.83,7.83h30.29c11.32,0,13.48-7.71,13.48-11.73s-3.3-7.21-7.21-7.21h-20.61v-48.23h9.19c10.14,0,13.48-7.72,13.48-11.52,0-4.12-3.3-7.42-7.21-7.42h-15.45V20.19h14.34Z"/>
      <path class="cls-1" d="m32.43,54.41c-4.53-4.74-7.01-11.33-7.01-18.55v-11.33c0-1.9.58-3.66,1.55-5.15.67-.14,1.37-.23,2.08-.23,5.36,0,9.68,4.33,9.68,9.89v10.16c-.13,9.43,9.68,10.45,9.68,10.45,8.3,1.46,14.09-3.75,14.09-12.35v-10.72C62.52,11.96,50.77.22,36.14.22h-1.85C16.02.22,1.65,9.38,1.65,30.9v11.75c0,11.13,4.95,21.02,12.16,28.64l17.31,18.55c4.94,5.15,8.24,11.95,8.24,19.78v15.93c0,4.22-.62,6.91-1.7,8.54-.75.17-1.53.27-2.34.27h-1.24c-5.77,0-10.3-4.53-10.3-10.3v-21.43c0-4.33-3.5-7.83-7.83-7.83h-1.85c-8.24,0-14.09,3.96-14.09,12.14v19.99c0,14.63,11.75,26.37,26.37,26.37h4.12c18.53,0,32.85-11.62,32.85-30.69v-19.78c0-11.13-4.94-21.02-12.16-28.64l-18.75-19.78Z"/>
      <path class="cls-1" d="m420.9,54.41c-4.53-4.74-7.01-11.33-7.01-18.55v-11.33c0-1.9.58-3.66,1.55-5.15.67-.14,1.37-.23,2.08-.23,5.36,0,9.68,4.33,9.68,9.89v10.16c-.13,9.43,9.68,10.45,9.68,10.45,8.3,1.46,14.09-3.75,14.09-12.35v-10.72c0-14.63-11.75-26.37-26.37-26.37h-1.85c-18.26,0-32.64,9.16-32.64,30.69v11.75c0,11.13,4.95,21.02,12.16,28.64l17.31,18.55c4.94,5.15,8.24,11.95,8.24,19.78v15.93c0,4.22-.62,6.91-1.7,8.54-.75.17-1.53.27-2.34.27h-1.24c-5.77,0-10.3-4.53-10.3-10.3v-21.43c0-4.33-3.5-7.83-7.83-7.83h-1.85c-8.24,0-14.09,3.96-14.09,12.14v19.99c0,14.63,11.75,26.37,26.37,26.37h4.12c18.53,0,32.85-11.62,32.85-30.69v-19.78c0-11.13-4.94-21.02-12.16-28.64l-18.75-19.78Z"/>
      <path class="cls-1" d="m117.42,72.54l23.49-62.23c.41-1.03.62-1.65.62-2.68,0-3.91-3.12-6.94-7.62-7.42-6.72-.71-10.44,2.02-12.86,8.43l-18.26,48.02V8.05c0-4.33-3.5-7.83-7.83-7.83h-1.44c-6.53,0-14.09.53-14.09,12.14l.21,64.7-.21,68.41c0,4.33,3.3,7.83,7.83,7.83h1.44c6.24-.06,14.09-5.31,14.09-12.14l.14-40.32,16.97,44.41c1.03,3.3,5.12,7.43,8.57,8.05,5.16.93,14.51-2.31,14.51-12.76,0-.82-.21-1.85-.62-2.88l-24.93-65.11Z"/>
      <path class="cls-1" d="m217.96,7.84c0-4.33-3.3-7.83-7.62-7.83-3.02,0-11.85-.75-14.09,10.08l-11.45,44.23-12.57-48.54C171.19,2.07,167.89.01,164.18.01c-3.18,0-16.31,2.72-14.51,12.55.34,1.85.97,4.98,1.17,5.8l21.7,79.92v45.63c0,4.47,2.87,9.39,7.83,9.39h1.85c11.29,0,14.09-8.06,14.09-12.14v-51.1l21.43-80.16c.21-.82.21-1.24.21-2.06Z"/>
      <path class="cls-1" d="m291.93,125.91V23.3c0-12.16-9.89-22.05-22.05-22.05h-25.55c-3.22,0-14.09.99-14.09,12.14v131.05c0,4.33,3.3,7.83,7.83,7.83h25.55c24.19,0,28.31-17.48,28.31-26.36Zm-26.17,7.42h-11.75V20.19h5.48c4.94,0,8.86,3.71,8.86,8.65v100.14c0,1.55-.39,2.98-1.07,4.21-.5.08-1,.13-1.53.13Z"/>
      <path class="cls-1" d="m373.21,123.03V8.05c0-4.33-3.5-7.83-8.04-7.83h-1.85c-3.07,0-14.1.41-14.1,12.14v116.01c0,2.12-.64,4.06-1.74,5.69-.81.19-1.64.31-2.51.31-5.56,0-10.3-4.53-10.3-10.3V8.05c0-4.33-3.3-7.83-7.83-7.83h-1.85c-3.07,0-14.09.78-14.09,12.14v114.98c0,14.22,11.74,25.96,25.96,25.96h4.12c23.86,0,32.23-16.83,32.23-30.27Z"/>
      <path class="cls-1" d="m517.43,1.25h-46.98c-3.02,0-13.68,1.05-13.68,11.73,0,3.91,3.3,7.21,7.42,7.21h14.63v125.07c0,4.53,3.5,7.83,8.04,7.83h1.65c12.18,0,14.3-7.95,14.3-12.14V20.19h8.37c2.89,0,13.48-7.72,13.48-11.52,0-4.12-3.3-7.42-7.21-7.42Z"/>
      <path class="cls-1" d="m660.94,137.45c-1.44-.41-2.47-2.06-2.47-3.71v-40.8c0-8.24-4.12-15.45-10.51-19.58l.82-.41c7.01-4.12,11.54-11.54,11.54-20.4v-29.26c0-12.16-10.1-22.05-22.25-22.05h-25.34c-3.22,0-14.09.5-14.09,12.14v132.08c0,4.33,3.5,7.83,8.04,7.83h1.85c11.65,0,13.89-8.01,13.89-12.14v-56.27h3.42c4.94,0,9.48,3.92,9.48,8.86v46.36c0,7.42,5.77,13.19,13.19,13.19h4.33c8.54,0,11.62-6.37,11.62-9.26v-1.85c0-2.06-1.44-3.91-3.5-4.74Zm-26.79-71.5h-11.75V20.19h5.48c4.94,0,8.86,3.71,8.86,8.65v32.56c0,1.62-.43,3.13-1.17,4.43-.46.07-.94.12-1.43.12Z"/>
      <path class="cls-1" d="m908.43,19.64c10.2,0,13.48-7.72,13.48-11.52,0-4.12-3.3-7.42-7.21-7.42h-30.29c-3.22,0-14.09.87-14.09,12.14v131.05c0,4.33,3.3,7.83,7.83,7.83h30.29c11.32,0,13.48-7.71,13.48-11.73s-3.3-7.21-7.21-7.21h-20.61v-48.23h9.19c10.14,0,13.48-7.72,13.48-11.52,0-4.12-3.3-7.42-7.21-7.42h-15.45V19.64h14.34Z"/>
      <path class="cls-1" d="m844.56,19.64c10.2,0,13.48-7.72,13.48-11.52,0-4.12-3.3-7.42-7.21-7.42h-30.29c-3.22,0-14.09.87-14.09,12.14v131.05c0,4.33,3.3,7.83,7.83,7.83h30.29c11.32,0,13.48-7.71,13.48-11.73s-3.3-7.21-7.21-7.21h-20.61v-48.23h9.19c10.14,0,13.48-7.72,13.48-11.52,0-4.12-3.3-7.42-7.21-7.42h-15.45V19.64h14.34Z"/>
      <path class="cls-1" d="m996.5,136.9c-1.44-.41-2.47-2.06-2.47-3.71v-40.8c0-8.24-4.12-15.45-10.51-19.58l.82-.41c7.01-4.12,11.54-11.54,11.54-20.4v-29.26c0-12.16-10.1-22.05-22.25-22.05h-25.34c-3.22,0-14.09.5-14.09,12.14v132.08c0,4.33,3.5,7.83,8.04,7.83h1.85c11.65,0,13.89-8.01,13.89-12.14v-56.27h3.42c4.94,0,9.48,3.92,9.48,8.86v46.36c0,7.42,5.77,13.19,13.19,13.19h4.33c8.54,0,11.62-6.37,11.62-9.26v-1.85c0-2.06-1.44-3.91-3.5-4.74Zm-26.79-71.5h-11.75V19.64h5.48c4.94,0,8.86,3.71,8.86,8.65v32.56c0,1.62-.43,3.13-1.17,4.43-.46.07-.94.12-1.43.12Z"/>
      <path class="cls-1" d="m774.32,70.82c.1-.09.2-.18.3-.27,8.01-3.81,13.78-12.11,13.78-21.42v-26.37c0-12.16-9.89-22.05-22.05-22.05h-24.31c-3.22,0-14.09.54-14.09,12.14v131.05c0,4.33,3.3,7.83,7.83,7.83h25.55c26.09,0,28.31-17.48,28.31-26.36v-32.56c0-10.04-6.32-18.66-15.31-21.99Zm-12.3-6.24h-10.3V19.64h4.04c4.94,0,8.86,3.71,8.86,8.65v31.73c0,1.62-.43,3.13-1.17,4.43-.47.07-.94.12-1.43.12Zm1.44,68.2h-11.75v-51.12h5.48c4.94,0,8.86,3.91,8.86,8.86v37.91c0,1.55-.39,2.98-1.07,4.21-.5.08-1.01.13-1.53.13Z"/>
      <g>
        <path class="cls-2" d="m36.76,148.99h-4.12c-14.63,0-26.37-11.74-26.37-26.37v-19.99c0-4.33,3.5-7.83,7.83-7.83h1.85c4.33,0,7.83,3.5,7.83,7.83v21.43c0,5.77,4.53,10.3,10.3,10.3h1.24c5.77,0,10.3-4.53,10.3-10.3v-18.75c0-7.83-3.3-14.63-8.24-19.78l-17.31-18.55c-7.21-7.62-12.16-17.52-12.16-28.64v-11.75C7.91,11.96,19.66.22,34.29.22h1.85c14.63,0,26.37,11.75,26.37,26.37v10.72c0,4.53-3.5,8.04-7.83,8.04h-1.85c-4.33,0-7.83-3.5-7.83-8.04v-12.57c0-5.56-4.33-9.89-9.68-9.89s-9.89,4.33-9.89,9.68v11.33c0,7.21,2.47,13.81,7.01,18.55l18.75,19.78c7.21,7.62,12.16,17.51,12.16,28.64v19.78c0,14.63-11.75,26.37-26.58,26.37Z"/>
        <path class="cls-2" d="m142.97,140.54c0,4.53-3.5,8.45-8.24,8.45-3.5,0-6.59-1.85-7.62-5.15l-24.11-63.67-.21,60.99c0,4.33-3.5,7.83-7.83,7.83h-1.44c-4.53,0-7.83-3.5-7.83-7.83l.21-68.41-.21-64.7c0-4.33,3.3-7.83,7.83-7.83h1.44c4.33,0,7.83,3.5,7.83,7.83v60.79L127.31,4.34c1.65-2.89,3.71-4.12,6.59-4.12,4.53,0,7.62,3.5,7.62,7.42,0,1.03-.21,1.65-.62,2.68l-23.49,62.23,24.93,65.11c.41,1.03.62,2.06.62,2.88Z"/>
        <path class="cls-2" d="m196.32,90.06v51.1c0,4.33-3.5,7.83-7.83,7.83h-1.85c-4.33,0-7.83-3.5-7.83-7.83v-47.19l-22.67-83.66c-.21-.82-.21-1.44-.21-2.06C155.94,3.51,159.65.01,164.18.01c3.71,0,7.01,2.06,8.04,5.77l13.39,51.72c.41,1.85,1.44,8.24,1.85,11.74.21-3.5,1.24-9.48,1.65-11.74l13.39-51.72C203.54,2.28,206.83.01,210.34.01c4.33,0,7.62,3.5,7.62,7.83,0,.82,0,1.24-.21,2.06l-21.43,80.16Z"/>
        <path class="cls-2" d="m269.88,147.96h-25.55c-4.53,0-7.83-3.5-7.83-7.83V9.08c0-4.33,3.3-7.83,7.83-7.83h25.55c12.16,0,22.05,9.89,22.05,22.05v102.61c0,12.16-9.89,22.05-22.05,22.05Zm4.74-123.43c0-4.94-3.92-8.65-8.86-8.65h-11.75v117.45h11.75c4.94,0,8.86-3.71,8.86-8.65V24.53Z"/>
        <path class="cls-2" d="m347.24,148.99h-4.12c-14.22,0-25.96-11.74-25.96-25.96V8.05c0-4.33,3.5-7.83,7.83-7.83h1.85c4.53,0,7.83,3.5,7.83,7.83v116.01c0,5.77,4.74,10.3,10.3,10.3s10.51-4.53,10.51-10.3V8.05c0-4.33,3.5-7.83,7.83-7.83h1.85c4.53,0,8.04,3.5,8.04,7.83v114.98c0,14.22-11.74,25.96-25.96,25.96Z"/>
        <path class="cls-2" d="m425.22,148.99h-4.12c-14.63,0-26.37-11.74-26.37-26.37v-19.99c0-4.33,3.5-7.83,7.83-7.83h1.85c4.33,0,7.83,3.5,7.83,7.83v21.43c0,5.77,4.53,10.3,10.3,10.3h1.24c5.77,0,10.3-4.53,10.3-10.3v-18.75c0-7.83-3.3-14.63-8.24-19.78l-17.31-18.55c-7.21-7.62-12.16-17.52-12.16-28.64v-11.75c0-14.63,11.74-26.37,26.37-26.37h1.85c14.63,0,26.37,11.75,26.37,26.37v10.72c0,4.53-3.5,8.04-7.83,8.04h-1.85c-4.33,0-7.83-3.5-7.83-8.04v-12.57c0-5.56-4.33-9.89-9.68-9.89s-9.89,4.33-9.89,9.68v11.33c0,7.21,2.47,13.81,7.01,18.55l18.75,19.78c7.21,7.62,12.16,17.51,12.16,28.64v19.78c0,14.63-11.75,26.37-26.58,26.37Z"/>
        <path class="cls-2" d="m517.43,15.88h-14.63v125.07c0,4.53-3.5,7.83-8.04,7.83h-1.65c-4.53,0-8.04-3.3-8.04-7.83V15.88h-14.63c-4.12,0-7.42-3.3-7.42-7.21,0-4.12,3.3-7.42,7.42-7.42h46.98c3.91,0,7.21,3.3,7.21,7.42s-3.3,7.21-7.21,7.21Z"/>
        <path class="cls-2" d="m579.15,147.96h-30.29c-4.53,0-7.83-3.5-7.83-7.83V9.08c0-4.33,3.3-7.83,7.83-7.83h30.29c3.91,0,7.21,3.3,7.21,7.42s-3.3,7.21-7.21,7.21h-20.61v50.28h15.45c3.91,0,7.21,3.3,7.21,7.42s-3.3,7.21-7.21,7.21h-15.45v52.54h20.61c3.91,0,7.21,3.3,7.21,7.21,0,4.12-3.3,7.42-7.21,7.42Z"/>
        <path class="cls-2" d="m659.09,148.99h-4.33c-7.42,0-13.19-5.77-13.19-13.19v-46.36c0-4.94-4.53-8.86-9.48-8.86h-9.69v60.58c0,4.33-3.3,7.83-7.62,7.83h-1.85c-4.53,0-8.04-3.5-8.04-7.83V9.08c0-4.33,3.3-7.83,7.83-7.83h25.34c12.16,0,22.25,9.89,22.25,22.05v29.26c0,8.86-4.53,16.28-11.54,20.4l-.82.41c6.39,4.12,10.51,11.33,10.51,19.58v40.8c0,1.65,1.03,3.3,2.47,3.71,2.06.82,3.5,2.68,3.5,4.74v1.85c0,2.88-2.68,4.94-5.36,4.94Zm-16.07-124.46c0-4.94-3.91-8.65-8.86-8.65h-11.75v50.07h11.75c4.94,0,8.86-3.91,8.86-8.86V24.53Z"/>
        <g>
          <path class="cls-2" d="m767.58,147.41h-25.55c-4.53,0-7.83-3.5-7.83-7.83V8.53c0-4.33,3.3-7.83,7.83-7.83h24.31c12.16,0,22.05,9.89,22.05,22.05v26.37c0,9.48-5.98,17.93-14.22,21.64,9.07,3.3,15.45,11.95,15.45,22.05v32.56c0,12.16-9.89,22.05-22.05,22.05Zm3.3-123.43c0-4.94-3.92-8.65-8.86-8.65h-10.3v49.25h10.3c4.94,0,8.86-3.91,8.86-8.86v-31.73Zm1.44,62.23c0-4.94-3.92-8.86-8.86-8.86h-11.75v55.43h11.75c4.94,0,8.86-3.71,8.86-8.65v-37.91Z"/>
          <path class="cls-2" d="m850.83,147.41h-30.29c-4.53,0-7.83-3.5-7.83-7.83V8.53c0-4.33,3.3-7.83,7.83-7.83h30.29c3.91,0,7.21,3.3,7.21,7.42s-3.3,7.21-7.21,7.21h-20.61v50.28h15.45c3.91,0,7.21,3.3,7.21,7.42s-3.3,7.21-7.21,7.21h-15.45v52.54h20.61c3.91,0,7.21,3.3,7.21,7.21,0,4.12-3.3,7.42-7.21,7.42Z"/>
          <path class="cls-2" d="m914.7,147.41h-30.29c-4.53,0-7.83-3.5-7.83-7.83V8.53c0-4.33,3.3-7.83,7.83-7.83h30.29c3.91,0,7.21,3.3,7.21,7.42s-3.3,7.21-7.21,7.21h-20.61v50.28h15.45c3.91,0,7.21,3.3,7.21,7.42s-3.3,7.21-7.21,7.21h-15.45v52.54h20.61c3.91,0,7.21,3.3,7.21,7.21,0,4.12-3.3,7.42-7.21,7.42Z"/>
          <path class="cls-2" d="m994.64,148.44h-4.33c-7.42,0-13.19-5.77-13.19-13.19v-46.36c0-4.94-4.53-8.86-9.48-8.86h-9.69v60.58c0,4.33-3.3,7.83-7.62,7.83h-1.85c-4.53,0-8.04-3.5-8.04-7.83V8.53c0-4.33,3.3-7.83,7.83-7.83h25.34c12.16,0,22.25,9.89,22.25,22.05v29.26c0,8.86-4.53,16.28-11.54,20.4l-.82.41c6.39,4.12,10.51,11.33,10.51,19.58v40.8c0,1.65,1.03,3.3,2.47,3.71,2.06.82,3.5,2.68,3.5,4.74v1.85c0,2.88-2.68,4.94-5.36,4.94Zm-16.07-124.46c0-4.94-3.91-8.65-8.86-8.65h-11.75v50.07h11.75c4.94,0,8.86-3.91,8.86-8.86V23.98Z"/>
        </g>
      </g>
    </g>
  </g>
</svg>